<?xml version="1.0" standalone="no"?>
 <!DOCTYPE svg PUBLIC "-//W3C//DTD SVG 1.1//EN" 
 "http://www.w3.org/Graphics/SVG/1.1/DTD/svg11.dtd"> 
<svg xmlns="http://www.w3.org/2000/svg" version="1.1" 
    width="29.7002cm" height="21.0007cm" viewBox="0 0 116930 82680 ">
<title>SVG Picture created as Projeto final-F.Cu.svg date 2022/12/04 20:14:20 </title>
  <desc>Picture generated by PCBNEW </desc>
<g style="fill:#000000; fill-opacity:1;stroke:#000000; stroke-opacity:1;
stroke-linecap:round; stroke-linejoin:round; "
 transform="translate(0 0) scale(1 1)">
</g>
<g style="fill:#000000; fill-opacity:0.0; 
stroke:#000000; stroke-width:-0.000393701; stroke-opacity:1; 
stroke-linecap:round; stroke-linejoin:round;">
</g>
<g style="fill:#000000; fill-opacity:0.0; 
stroke:#000000; stroke-width:39.3701; stroke-opacity:1; 
stroke-linecap:round; stroke-linejoin:round;">
</g>
<g style="fill:#000000; fill-opacity:0.0; 
stroke:#000000; stroke-width:59.0551; stroke-opacity:1; 
stroke-linecap:round; stroke-linejoin:round;">
<rect x="69685.9" y="65357.2" width="42519.7" height="12598.4" rx="0" />
</g>
<g style="fill:#000000; fill-opacity:0.0; 
stroke:#000000; stroke-width:39.3701; stroke-opacity:1; 
stroke-linecap:round; stroke-linejoin:round;">
</g>
<g style="fill:#000000; fill-opacity:0.0; 
stroke:#000000; stroke-width:59.0551; stroke-opacity:1; 
stroke-linecap:round; stroke-linejoin:round;">
<rect x="3937.01" y="3937.01" width="109056" height="74806" rx="0" />
</g>
<g style="fill:#000000; fill-opacity:0.0; 
stroke:#000000; stroke-width:39.3701; stroke-opacity:1; 
stroke-linecap:round; stroke-linejoin:round;">
</g>
<g style="fill:#000000; fill-opacity:0.0; 
stroke:#000000; stroke-width:59.0551; stroke-opacity:1; 
stroke-linecap:round; stroke-linejoin:round;">
<rect x="4724.41" y="4724.41" width="107481" height="73231.2" rx="0" />
</g>
<g style="fill:#000000; fill-opacity:0.0; 
stroke:#000000; stroke-width:39.3701; stroke-opacity:1; 
stroke-linecap:round; stroke-linejoin:round;">
</g>
<g style="fill:#000000; fill-opacity:0.0; 
stroke:#000000; stroke-width:59.0551; stroke-opacity:1; 
stroke-linecap:round; stroke-linejoin:round;">
<path d="M23622 4724
L23622 3937
" />
</g>
<g style="fill:#000000; fill-opacity:0.0; 
stroke:#000000; stroke-width:39.3701; stroke-opacity:1; 
stroke-linecap:round; stroke-linejoin:round;">
</g>
<g style="fill:#000000; fill-opacity:0.0; 
stroke:#000000; stroke-width:59.0551; stroke-opacity:1; 
stroke-linecap:round; stroke-linejoin:round;">
<path d="M43307 4724
L43307 3937
" />
</g>
<g style="fill:#000000; fill-opacity:0.0; 
stroke:#000000; stroke-width:39.3701; stroke-opacity:1; 
stroke-linecap:round; stroke-linejoin:round;">
</g>
<g style="fill:#000000; fill-opacity:0.0; 
stroke:#000000; stroke-width:59.0551; stroke-opacity:1; 
stroke-linecap:round; stroke-linejoin:round;">
<path d="M62992 4724
L62992 3937
" />
</g>
<g style="fill:#000000; fill-opacity:0.0; 
stroke:#000000; stroke-width:39.3701; stroke-opacity:1; 
stroke-linecap:round; stroke-linejoin:round;">
</g>
<g style="fill:#000000; fill-opacity:0.0; 
stroke:#000000; stroke-width:59.0551; stroke-opacity:1; 
stroke-linecap:round; stroke-linejoin:round;">
<path d="M82677 4724
L82677 3937
" />
</g>
<g style="fill:#000000; fill-opacity:0.0; 
stroke:#000000; stroke-width:39.3701; stroke-opacity:1; 
stroke-linecap:round; stroke-linejoin:round;">
</g>
<g style="fill:#000000; fill-opacity:0.0; 
stroke:#000000; stroke-width:59.0551; stroke-opacity:1; 
stroke-linecap:round; stroke-linejoin:round;">
<path d="M102362 4724
L102362 3937
" />
</g>
<g style="fill:#000000; fill-opacity:0.0; 
stroke:#000000; stroke-width:39.3701; stroke-opacity:1; 
stroke-linecap:round; stroke-linejoin:round;">
</g>
<g style="fill:#000000; fill-opacity:0.0; 
stroke:#000000; stroke-width:59.0551; stroke-opacity:1; 
stroke-linecap:round; stroke-linejoin:round;">
<path d="M14199 4562
L13906 4562
" />
<path d="M14052 4562
L14052 4050
L14004 4123
L13955 4172
L13906 4196
" />
</g>
<g style="fill:#000000; fill-opacity:0.0; 
stroke:#000000; stroke-width:39.3701; stroke-opacity:1; 
stroke-linecap:round; stroke-linejoin:round;">
</g>
<g style="fill:#000000; fill-opacity:0.0; 
stroke:#000000; stroke-width:59.0551; stroke-opacity:1; 
stroke-linecap:round; stroke-linejoin:round;">
<path d="M33591 4099
L33615 4074
L33664 4050
L33786 4050
L33835 4074
L33859 4099
L33884 4147
L33884 4196
L33859 4269
L33567 4562
L33884 4562
" />
</g>
<g style="fill:#000000; fill-opacity:0.0; 
stroke:#000000; stroke-width:39.3701; stroke-opacity:1; 
stroke-linecap:round; stroke-linejoin:round;">
</g>
<g style="fill:#000000; fill-opacity:0.0; 
stroke:#000000; stroke-width:59.0551; stroke-opacity:1; 
stroke-linecap:round; stroke-linejoin:round;">
<path d="M53252 4050
L53569 4050
L53398 4245
L53471 4245
L53520 4269
L53544 4294
L53569 4342
L53569 4464
L53544 4513
L53520 4537
L53471 4562
L53325 4562
L53276 4537
L53252 4513
" />
</g>
<g style="fill:#000000; fill-opacity:0.0; 
stroke:#000000; stroke-width:39.3701; stroke-opacity:1; 
stroke-linecap:round; stroke-linejoin:round;">
</g>
<g style="fill:#000000; fill-opacity:0.0; 
stroke:#000000; stroke-width:59.0551; stroke-opacity:1; 
stroke-linecap:round; stroke-linejoin:round;">
<path d="M73205 4221
L73205 4562
" />
<path d="M73083 4026
L72961 4391
L73278 4391
" />
</g>
<g style="fill:#000000; fill-opacity:0.0; 
stroke:#000000; stroke-width:39.3701; stroke-opacity:1; 
stroke-linecap:round; stroke-linejoin:round;">
</g>
<g style="fill:#000000; fill-opacity:0.0; 
stroke:#000000; stroke-width:59.0551; stroke-opacity:1; 
stroke-linecap:round; stroke-linejoin:round;">
<path d="M92914 4050
L92671 4050
L92646 4294
L92671 4269
L92719 4245
L92841 4245
L92890 4269
L92914 4294
L92939 4342
L92939 4464
L92914 4513
L92890 4537
L92841 4562
L92719 4562
L92671 4537
L92646 4513
" />
</g>
<g style="fill:#000000; fill-opacity:0.0; 
stroke:#000000; stroke-width:39.3701; stroke-opacity:1; 
stroke-linecap:round; stroke-linejoin:round;">
</g>
<g style="fill:#000000; fill-opacity:0.0; 
stroke:#000000; stroke-width:59.0551; stroke-opacity:1; 
stroke-linecap:round; stroke-linejoin:round;">
<path d="M112575 4050
L112477 4050
L112429 4074
L112404 4099
L112356 4172
L112331 4269
L112331 4464
L112356 4513
L112380 4537
L112429 4562
L112526 4562
L112575 4537
L112599 4513
L112624 4464
L112624 4342
L112599 4294
L112575 4269
L112526 4245
L112429 4245
L112380 4269
L112356 4294
L112331 4342
" />
</g>
<g style="fill:#000000; fill-opacity:0.0; 
stroke:#000000; stroke-width:39.3701; stroke-opacity:1; 
stroke-linecap:round; stroke-linejoin:round;">
</g>
<g style="fill:#000000; fill-opacity:0.0; 
stroke:#000000; stroke-width:59.0551; stroke-opacity:1; 
stroke-linecap:round; stroke-linejoin:round;">
<path d="M23622 77955
L23622 78742
" />
</g>
<g style="fill:#000000; fill-opacity:0.0; 
stroke:#000000; stroke-width:39.3701; stroke-opacity:1; 
stroke-linecap:round; stroke-linejoin:round;">
</g>
<g style="fill:#000000; fill-opacity:0.0; 
stroke:#000000; stroke-width:59.0551; stroke-opacity:1; 
stroke-linecap:round; stroke-linejoin:round;">
<path d="M43307 77955
L43307 78742
" />
</g>
<g style="fill:#000000; fill-opacity:0.0; 
stroke:#000000; stroke-width:39.3701; stroke-opacity:1; 
stroke-linecap:round; stroke-linejoin:round;">
</g>
<g style="fill:#000000; fill-opacity:0.0; 
stroke:#000000; stroke-width:59.0551; stroke-opacity:1; 
stroke-linecap:round; stroke-linejoin:round;">
<path d="M62992 77955
L62992 78742
" />
</g>
<g style="fill:#000000; fill-opacity:0.0; 
stroke:#000000; stroke-width:39.3701; stroke-opacity:1; 
stroke-linecap:round; stroke-linejoin:round;">
</g>
<g style="fill:#000000; fill-opacity:0.0; 
stroke:#000000; stroke-width:59.0551; stroke-opacity:1; 
stroke-linecap:round; stroke-linejoin:round;">
<path d="M82677 77955
L82677 78742
" />
</g>
<g style="fill:#000000; fill-opacity:0.0; 
stroke:#000000; stroke-width:39.3701; stroke-opacity:1; 
stroke-linecap:round; stroke-linejoin:round;">
</g>
<g style="fill:#000000; fill-opacity:0.0; 
stroke:#000000; stroke-width:59.0551; stroke-opacity:1; 
stroke-linecap:round; stroke-linejoin:round;">
<path d="M102362 77955
L102362 78742
" />
</g>
<g style="fill:#000000; fill-opacity:0.0; 
stroke:#000000; stroke-width:39.3701; stroke-opacity:1; 
stroke-linecap:round; stroke-linejoin:round;">
</g>
<g style="fill:#000000; fill-opacity:0.0; 
stroke:#000000; stroke-width:59.0551; stroke-opacity:1; 
stroke-linecap:round; stroke-linejoin:round;">
<path d="M14199 78580
L13906 78580
" />
<path d="M14052 78580
L14052 78069
L14004 78142
L13955 78190
L13906 78215
" />
</g>
<g style="fill:#000000; fill-opacity:0.0; 
stroke:#000000; stroke-width:39.3701; stroke-opacity:1; 
stroke-linecap:round; stroke-linejoin:round;">
</g>
<g style="fill:#000000; fill-opacity:0.0; 
stroke:#000000; stroke-width:59.0551; stroke-opacity:1; 
stroke-linecap:round; stroke-linejoin:round;">
<path d="M33591 78117
L33615 78093
L33664 78069
L33786 78069
L33835 78093
L33859 78117
L33884 78166
L33884 78215
L33859 78288
L33567 78580
L33884 78580
" />
</g>
<g style="fill:#000000; fill-opacity:0.0; 
stroke:#000000; stroke-width:39.3701; stroke-opacity:1; 
stroke-linecap:round; stroke-linejoin:round;">
</g>
<g style="fill:#000000; fill-opacity:0.0; 
stroke:#000000; stroke-width:59.0551; stroke-opacity:1; 
stroke-linecap:round; stroke-linejoin:round;">
<path d="M53252 78069
L53569 78069
L53398 78263
L53471 78263
L53520 78288
L53544 78312
L53569 78361
L53569 78483
L53544 78532
L53520 78556
L53471 78580
L53325 78580
L53276 78556
L53252 78532
" />
</g>
<g style="fill:#000000; fill-opacity:0.0; 
stroke:#000000; stroke-width:39.3701; stroke-opacity:1; 
stroke-linecap:round; stroke-linejoin:round;">
</g>
<g style="fill:#000000; fill-opacity:0.0; 
stroke:#000000; stroke-width:59.0551; stroke-opacity:1; 
stroke-linecap:round; stroke-linejoin:round;">
<path d="M73205 78239
L73205 78580
" />
<path d="M73083 78044
L72961 78410
L73278 78410
" />
</g>
<g style="fill:#000000; fill-opacity:0.0; 
stroke:#000000; stroke-width:39.3701; stroke-opacity:1; 
stroke-linecap:round; stroke-linejoin:round;">
</g>
<g style="fill:#000000; fill-opacity:0.0; 
stroke:#000000; stroke-width:59.0551; stroke-opacity:1; 
stroke-linecap:round; stroke-linejoin:round;">
<path d="M92914 78069
L92671 78069
L92646 78312
L92671 78288
L92719 78263
L92841 78263
L92890 78288
L92914 78312
L92939 78361
L92939 78483
L92914 78532
L92890 78556
L92841 78580
L92719 78580
L92671 78556
L92646 78532
" />
</g>
<g style="fill:#000000; fill-opacity:0.0; 
stroke:#000000; stroke-width:39.3701; stroke-opacity:1; 
stroke-linecap:round; stroke-linejoin:round;">
</g>
<g style="fill:#000000; fill-opacity:0.0; 
stroke:#000000; stroke-width:59.0551; stroke-opacity:1; 
stroke-linecap:round; stroke-linejoin:round;">
<path d="M112575 78069
L112477 78069
L112429 78093
L112404 78117
L112356 78190
L112331 78288
L112331 78483
L112356 78532
L112380 78556
L112429 78580
L112526 78580
L112575 78556
L112599 78532
L112624 78483
L112624 78361
L112599 78312
L112575 78288
L112526 78263
L112429 78263
L112380 78288
L112356 78312
L112331 78361
" />
</g>
<g style="fill:#000000; fill-opacity:0.0; 
stroke:#000000; stroke-width:39.3701; stroke-opacity:1; 
stroke-linecap:round; stroke-linejoin:round;">
</g>
<g style="fill:#000000; fill-opacity:0.0; 
stroke:#000000; stroke-width:59.0551; stroke-opacity:1; 
stroke-linecap:round; stroke-linejoin:round;">
<path d="M3937 23622
L4724 23622
" />
</g>
<g style="fill:#000000; fill-opacity:0.0; 
stroke:#000000; stroke-width:39.3701; stroke-opacity:1; 
stroke-linecap:round; stroke-linejoin:round;">
</g>
<g style="fill:#000000; fill-opacity:0.0; 
stroke:#000000; stroke-width:59.0551; stroke-opacity:1; 
stroke-linecap:round; stroke-linejoin:round;">
<path d="M3937 43307
L4724 43307
" />
</g>
<g style="fill:#000000; fill-opacity:0.0; 
stroke:#000000; stroke-width:39.3701; stroke-opacity:1; 
stroke-linecap:round; stroke-linejoin:round;">
</g>
<g style="fill:#000000; fill-opacity:0.0; 
stroke:#000000; stroke-width:59.0551; stroke-opacity:1; 
stroke-linecap:round; stroke-linejoin:round;">
<path d="M3937 62992
L4724 62992
" />
</g>
<g style="fill:#000000; fill-opacity:0.0; 
stroke:#000000; stroke-width:39.3701; stroke-opacity:1; 
stroke-linecap:round; stroke-linejoin:round;">
</g>
<g style="fill:#000000; fill-opacity:0.0; 
stroke:#000000; stroke-width:59.0551; stroke-opacity:1; 
stroke-linecap:round; stroke-linejoin:round;">
<path d="M4208 13864
L4452 13864
" />
<path d="M4160 14011
L4330 13499
L4501 14011
" />
</g>
<g style="fill:#000000; fill-opacity:0.0; 
stroke:#000000; stroke-width:39.3701; stroke-opacity:1; 
stroke-linecap:round; stroke-linejoin:round;">
</g>
<g style="fill:#000000; fill-opacity:0.0; 
stroke:#000000; stroke-width:59.0551; stroke-opacity:1; 
stroke-linecap:round; stroke-linejoin:round;">
<path d="M4367 33428
L4440 33452
L4464 33476
L4489 33525
L4489 33598
L4464 33647
L4440 33671
L4391 33696
L4196 33696
L4196 33184
L4367 33184
L4416 33208
L4440 33233
L4464 33281
L4464 33330
L4440 33379
L4416 33403
L4367 33428
L4196 33428
" />
</g>
<g style="fill:#000000; fill-opacity:0.0; 
stroke:#000000; stroke-width:39.3701; stroke-opacity:1; 
stroke-linecap:round; stroke-linejoin:round;">
</g>
<g style="fill:#000000; fill-opacity:0.0; 
stroke:#000000; stroke-width:59.0551; stroke-opacity:1; 
stroke-linecap:round; stroke-linejoin:round;">
<path d="M4489 53332
L4464 53356
L4391 53381
L4342 53381
L4269 53356
L4221 53308
L4196 53259
L4172 53161
L4172 53088
L4196 52991
L4221 52942
L4269 52893
L4342 52869
L4391 52869
L4464 52893
L4489 52918
" />
</g>
<g style="fill:#000000; fill-opacity:0.0; 
stroke:#000000; stroke-width:39.3701; stroke-opacity:1; 
stroke-linecap:round; stroke-linejoin:round;">
</g>
<g style="fill:#000000; fill-opacity:0.0; 
stroke:#000000; stroke-width:59.0551; stroke-opacity:1; 
stroke-linecap:round; stroke-linejoin:round;">
<path d="M4196 73066
L4196 72554
L4318 72554
L4391 72578
L4440 72627
L4464 72676
L4489 72773
L4489 72846
L4464 72944
L4440 72993
L4391 73041
L4318 73066
L4196 73066
" />
</g>
<g style="fill:#000000; fill-opacity:0.0; 
stroke:#000000; stroke-width:39.3701; stroke-opacity:1; 
stroke-linecap:round; stroke-linejoin:round;">
</g>
<g style="fill:#000000; fill-opacity:0.0; 
stroke:#000000; stroke-width:59.0551; stroke-opacity:1; 
stroke-linecap:round; stroke-linejoin:round;">
<path d="M112992 23622
L112205 23622
" />
</g>
<g style="fill:#000000; fill-opacity:0.0; 
stroke:#000000; stroke-width:39.3701; stroke-opacity:1; 
stroke-linecap:round; stroke-linejoin:round;">
</g>
<g style="fill:#000000; fill-opacity:0.0; 
stroke:#000000; stroke-width:59.0551; stroke-opacity:1; 
stroke-linecap:round; stroke-linejoin:round;">
<path d="M112992 43307
L112205 43307
" />
</g>
<g style="fill:#000000; fill-opacity:0.0; 
stroke:#000000; stroke-width:39.3701; stroke-opacity:1; 
stroke-linecap:round; stroke-linejoin:round;">
</g>
<g style="fill:#000000; fill-opacity:0.0; 
stroke:#000000; stroke-width:59.0551; stroke-opacity:1; 
stroke-linecap:round; stroke-linejoin:round;">
<path d="M112992 62992
L112205 62992
" />
</g>
<g style="fill:#000000; fill-opacity:0.0; 
stroke:#000000; stroke-width:39.3701; stroke-opacity:1; 
stroke-linecap:round; stroke-linejoin:round;">
</g>
<g style="fill:#000000; fill-opacity:0.0; 
stroke:#000000; stroke-width:59.0551; stroke-opacity:1; 
stroke-linecap:round; stroke-linejoin:round;">
<path d="M112477 13864
L112721 13864
" />
<path d="M112428 14011
L112599 13499
L112769 14011
" />
</g>
<g style="fill:#000000; fill-opacity:0.0; 
stroke:#000000; stroke-width:39.3701; stroke-opacity:1; 
stroke-linecap:round; stroke-linejoin:round;">
</g>
<g style="fill:#000000; fill-opacity:0.0; 
stroke:#000000; stroke-width:59.0551; stroke-opacity:1; 
stroke-linecap:round; stroke-linejoin:round;">
<path d="M112635 33428
L112708 33452
L112733 33476
L112757 33525
L112757 33598
L112733 33647
L112708 33671
L112660 33696
L112465 33696
L112465 33184
L112635 33184
L112684 33208
L112708 33233
L112733 33281
L112733 33330
L112708 33379
L112684 33403
L112635 33428
L112465 33428
" />
</g>
<g style="fill:#000000; fill-opacity:0.0; 
stroke:#000000; stroke-width:39.3701; stroke-opacity:1; 
stroke-linecap:round; stroke-linejoin:round;">
</g>
<g style="fill:#000000; fill-opacity:0.0; 
stroke:#000000; stroke-width:59.0551; stroke-opacity:1; 
stroke-linecap:round; stroke-linejoin:round;">
<path d="M112757 53332
L112733 53356
L112660 53381
L112611 53381
L112538 53356
L112489 53308
L112465 53259
L112440 53161
L112440 53088
L112465 52991
L112489 52942
L112538 52893
L112611 52869
L112660 52869
L112733 52893
L112757 52918
" />
</g>
<g style="fill:#000000; fill-opacity:0.0; 
stroke:#000000; stroke-width:39.3701; stroke-opacity:1; 
stroke-linecap:round; stroke-linejoin:round;">
</g>
<g style="fill:#000000; fill-opacity:0.0; 
stroke:#000000; stroke-width:59.0551; stroke-opacity:1; 
stroke-linecap:round; stroke-linejoin:round;">
<path d="M112465 73066
L112465 72554
L112587 72554
L112660 72578
L112708 72627
L112733 72676
L112757 72773
L112757 72846
L112733 72944
L112708 72993
L112660 73041
L112587 73066
L112465 73066
" />
</g>
<g style="fill:#000000; fill-opacity:0.0; 
stroke:#000000; stroke-width:39.3701; stroke-opacity:1; 
stroke-linecap:round; stroke-linejoin:round;">
</g>
<g style="fill:#000000; fill-opacity:0.0; 
stroke:#000000; stroke-width:59.0551; stroke-opacity:1; 
stroke-linecap:round; stroke-linejoin:round;">
<path d="M78911 76293
L78911 75703
L79051 75703
L79136 75731
L79192 75787
L79220 75843
L79248 75956
L79248 76040
L79220 76153
L79192 76209
L79136 76265
L79051 76293
L78911 76293
" />
<path d="M79754 76293
L79754 75984
L79726 75928
L79670 75899
L79557 75899
L79501 75928
" />
<path d="M79754 76265
L79698 76293
L79557 76293
L79501 76265
L79473 76209
L79473 76153
L79501 76096
L79557 76068
L79698 76068
L79754 76040
" />
<path d="M79951 75899
L80176 75899
" />
<path d="M80036 75703
L80036 76209
L80064 76265
L80120 76293
L80176 76293
" />
<path d="M80598 76265
L80542 76293
L80429 76293
L80373 76265
L80345 76209
L80345 75984
L80373 75928
L80429 75899
L80542 75899
L80598 75928
L80626 75984
L80626 76040
L80345 76096
" />
<path d="M80879 76237
L80907 76265
L80879 76293
L80851 76265
L80879 76237
L80879 76293
" />
<path d="M80879 75928
L80907 75956
L80879 75984
L80851 75956
L80879 75928
L80879 75984
" />
</g>
<g style="fill:#000000; fill-opacity:0.0; 
stroke:#000000; stroke-width:39.3701; stroke-opacity:1; 
stroke-linecap:round; stroke-linejoin:round;">
</g>
<g style="fill:#000000; fill-opacity:0.0; 
stroke:#000000; stroke-width:59.0551; stroke-opacity:1; 
stroke-linecap:round; stroke-linejoin:round;">
<path d="M69685 76577
L112205 76577
" />
</g>
<g style="fill:#000000; fill-opacity:0.0; 
stroke:#000000; stroke-width:39.3701; stroke-opacity:1; 
stroke-linecap:round; stroke-linejoin:round;">
</g>
<g style="fill:#000000; fill-opacity:0.0; 
stroke:#000000; stroke-width:59.0551; stroke-opacity:1; 
stroke-linecap:round; stroke-linejoin:round;">
<path d="M70249 77395
L70249 76805
" />
<path d="M70587 77395
L70334 77058
" />
<path d="M70587 76805
L70249 77142
" />
<path d="M70840 77395
L70840 77002
" />
<path d="M70840 76805
L70812 76833
L70840 76861
L70868 76833
L70840 76805
L70840 76861
" />
<path d="M71458 77339
L71430 77367
L71346 77395
L71290 77395
L71205 77367
L71149 77311
L71121 77255
L71093 77142
L71093 77058
L71121 76946
L71149 76889
L71205 76833
L71290 76805
L71346 76805
L71430 76833
L71458 76861
" />
<path d="M71965 77395
L71965 77086
L71937 77030
L71880 77002
L71768 77002
L71712 77030
" />
<path d="M71965 77367
L71908 77395
L71768 77395
L71712 77367
L71683 77311
L71683 77255
L71712 77199
L71768 77171
L71908 77171
L71965 77142
" />
<path d="M72499 77395
L72499 76805
" />
<path d="M72499 77367
L72443 77395
L72330 77395
L72274 77367
L72246 77339
L72218 77283
L72218 77114
L72246 77058
L72274 77030
L72330 77002
L72443 77002
L72499 77030
" />
<path d="M73230 77086
L73427 77086
" />
<path d="M73511 77395
L73230 77395
L73230 76805
L73511 76805
" />
<path d="M73764 77339
L73793 77367
L73764 77395
L73736 77367
L73764 77339
L73764 77395
" />
<path d="M74046 77395
L74046 76805
L74186 76805
L74271 76833
L74327 76889
L74355 76946
L74383 77058
L74383 77142
L74355 77255
L74327 77311
L74271 77367
L74186 77395
L74046 77395
" />
<path d="M74636 77339
L74664 77367
L74636 77395
L74608 77367
L74636 77339
L74636 77395
" />
<path d="M74889 77227
L75171 77227
" />
<path d="M74833 77395
L75030 76805
L75227 77395
" />
<path d="M75424 77339
L75452 77367
L75424 77395
L75395 77367
L75424 77339
L75424 77395
" />
<path d="M76605 77395
L76605 76805
" />
<path d="M76661 77171
L76830 77395
" />
<path d="M76830 77002
L76605 77227
" />
<path d="M77083 77395
L77083 77002
" />
<path d="M77083 76805
L77055 76833
L77083 76861
L77111 76833
L77083 76805
L77083 76861
" />
<path d="M77617 77367
L77561 77395
L77448 77395
L77392 77367
L77364 77339
L77336 77283
L77336 77114
L77364 77058
L77392 77030
L77448 77002
L77561 77002
L77617 77030
" />
<path d="M78123 77395
L78123 77086
L78095 77030
L78039 77002
L77926 77002
L77870 77030
" />
<path d="M78123 77367
L78067 77395
L77926 77395
L77870 77367
L77842 77311
L77842 77255
L77870 77199
L77926 77171
L78067 77171
L78123 77142
" />
<path d="M78658 77395
L78658 76805
" />
<path d="M78658 77367
L78601 77395
L78489 77395
L78433 77367
L78404 77339
L78376 77283
L78376 77114
L78404 77058
L78433 77030
L78489 77002
L78601 77002
L78658 77030
" />
<path d="M79557 77620
L79529 77592
L79473 77508
L79445 77452
L79417 77367
L79389 77227
L79389 77114
L79417 76974
L79445 76889
L79473 76833
L79529 76749
L79557 76721
" />
<path d="M80064 76805
L79782 76805
L79754 77086
L79782 77058
L79839 77030
L79979 77030
L80036 77058
L80064 77086
L80092 77142
L80092 77283
L80064 77339
L80036 77367
L79979 77395
L79839 77395
L79782 77367
L79754 77339
" />
<path d="M80345 77339
L80373 77367
L80345 77395
L80317 77367
L80345 77339
L80345 77395
" />
<path d="M80739 76805
L80795 76805
L80851 76833
L80879 76861
L80907 76917
L80935 77030
L80935 77171
L80907 77283
L80879 77339
L80851 77367
L80795 77395
L80739 77395
L80682 77367
L80654 77339
L80626 77283
L80598 77171
L80598 77030
L80626 76917
L80654 76861
L80682 76833
L80739 76805
" />
<path d="M81188 77339
L81217 77367
L81188 77395
L81160 77367
L81188 77339
L81188 77395
" />
<path d="M81582 76805
L81638 76805
L81695 76833
L81723 76861
L81751 76917
L81779 77030
L81779 77171
L81751 77283
L81723 77339
L81695 77367
L81638 77395
L81582 77395
L81526 77367
L81498 77339
L81470 77283
L81442 77171
L81442 77030
L81470 76917
L81498 76861
L81526 76833
L81582 76805
" />
<path d="M81976 77620
L82004 77592
L82060 77508
L82088 77452
L82117 77367
L82145 77227
L82145 77114
L82117 76974
L82088 76889
L82060 76833
L82004 76749
L81976 76721
" />
</g>
<g style="fill:#000000; fill-opacity:0.0; 
stroke:#000000; stroke-width:39.3701; stroke-opacity:1; 
stroke-linecap:round; stroke-linejoin:round;">
</g>
<g style="fill:#000000; fill-opacity:0.0; 
stroke:#000000; stroke-width:59.0551; stroke-opacity:1; 
stroke-linecap:round; stroke-linejoin:round;">
<path d="M69685 75396
L112205 75396
" />
</g>
<g style="fill:#000000; fill-opacity:0.0; 
stroke:#000000; stroke-width:39.3701; stroke-opacity:1; 
stroke-linecap:round; stroke-linejoin:round;">
</g>
<g style="fill:#000000; fill-opacity:0.0; 
stroke:#000000; stroke-width:118.11; stroke-opacity:1; 
stroke-linecap:round; stroke-linejoin:round;">
<path d="M104099 76293
L103902 76012
" />
<path d="M103761 76293
L103761 75703
L103986 75703
L104042 75731
L104070 75759
L104099 75815
L104099 75899
L104070 75956
L104042 75984
L103986 76012
L103761 76012
" />
<path d="M104577 76265
L104520 76293
L104408 76293
L104352 76265
L104323 76209
L104323 75984
L104352 75928
L104408 75899
L104520 75899
L104577 75928
L104605 75984
L104605 76040
L104323 76096
" />
<path d="M104802 75899
L104942 76293
L105083 75899
" />
<path d="M105308 76237
L105336 76265
L105308 76293
L105280 76265
L105308 76237
L105308 76293
" />
<path d="M105308 75928
L105336 75956
L105308 75984
L105280 75956
L105308 75928
L105308 75984
" />
</g>
<g style="fill:#000000; fill-opacity:0.0; 
stroke:#000000; stroke-width:39.3701; stroke-opacity:1; 
stroke-linecap:round; stroke-linejoin:round;">
</g>
<g style="fill:#000000; fill-opacity:0.0; 
stroke:#000000; stroke-width:59.0551; stroke-opacity:1; 
stroke-linecap:round; stroke-linejoin:round;">
<path d="M70221 76265
L70305 76293
L70446 76293
L70502 76265
L70530 76237
L70559 76181
L70559 76124
L70530 76068
L70502 76040
L70446 76012
L70334 75984
L70277 75956
L70249 75928
L70221 75871
L70221 75815
L70249 75759
L70277 75731
L70334 75703
L70474 75703
L70559 75731
" />
<path d="M70812 76293
L70812 75899
" />
<path d="M70812 75703
L70784 75731
L70812 75759
L70840 75731
L70812 75703
L70812 75759
" />
<path d="M71037 75899
L71346 75899
L71037 76293
L71346 76293
" />
<path d="M71796 76265
L71740 76293
L71627 76293
L71571 76265
L71543 76209
L71543 75984
L71571 75928
L71627 75899
L71740 75899
L71796 75928
L71824 75984
L71824 76040
L71543 76096
" />
<path d="M72077 76237
L72105 76265
L72077 76293
L72049 76265
L72077 76237
L72077 76293
" />
<path d="M72077 75928
L72105 75956
L72077 75984
L72049 75956
L72077 75928
L72077 75984
" />
<path d="M72780 76124
L73061 76124
" />
<path d="M72724 76293
L72921 75703
L73118 76293
" />
<path d="M73568 75899
L73568 76293
" />
<path d="M73427 75674
L73286 76096
L73652 76096
" />
</g>
<g style="fill:#000000; fill-opacity:0.0; 
stroke:#000000; stroke-width:39.3701; stroke-opacity:1; 
stroke-linecap:round; stroke-linejoin:round;">
</g>
<g style="fill:#000000; fill-opacity:0.0; 
stroke:#000000; stroke-width:59.0551; stroke-opacity:1; 
stroke-linecap:round; stroke-linejoin:round;">
<path d="M103714 77395
L103714 76805
" />
<path d="M104248 77395
L104248 76805
" />
<path d="M104248 77367
L104192 77395
L104079 77395
L104023 77367
L103995 77339
L103967 77283
L103967 77114
L103995 77058
L104023 77030
L104079 77002
L104192 77002
L104248 77030
" />
<path d="M104529 77339
L104557 77367
L104529 77395
L104501 77367
L104529 77339
L104529 77395
" />
<path d="M104529 77030
L104557 77058
L104529 77086
L104501 77058
L104529 77030
L104529 77086
" />
<path d="M105570 77395
L105232 77395
" />
<path d="M105401 77395
L105401 76805
L105345 76889
L105289 76946
L105232 76974
" />
<path d="M106245 76777
L105739 77536
" />
<path d="M106751 77395
L106413 77395
" />
<path d="M106582 77395
L106582 76805
L106526 76889
L106470 76946
L106413 76974
" />
</g>
<g style="fill:#000000; fill-opacity:0.0; 
stroke:#000000; stroke-width:39.3701; stroke-opacity:1; 
stroke-linecap:round; stroke-linejoin:round;">
</g>
<g style="fill:#000000; fill-opacity:0.0; 
stroke:#000000; stroke-width:59.0551; stroke-opacity:1; 
stroke-linecap:round; stroke-linejoin:round;">
<path d="M69685 73821
L112205 73821
" />
</g>
<g style="fill:#000000; fill-opacity:0.0; 
stroke:#000000; stroke-width:39.3701; stroke-opacity:1; 
stroke-linecap:round; stroke-linejoin:round;">
</g>
<g style="fill:#000000; fill-opacity:0.0; 
stroke:#000000; stroke-width:157.48; stroke-opacity:1; 
stroke-linecap:round; stroke-linejoin:round;">
<path d="M70360 74099
L70810 74099
" />
<path d="M70486 74886
L70585 74099
" />
<path d="M70974 74886
L71039 74361
" />
<path d="M71072 74099
L71030 74136
L71063 74174
L71105 74136
L71072 74099
L71063 74174
" />
<path d="M71302 74361
L71602 74361
" />
<path d="M71447 74099
L71363 74774
L71391 74849
L71461 74886
L71536 74886
" />
<path d="M71911 74886
L71841 74849
L71813 74774
L71897 74099
" />
<path d="M72516 74849
L72436 74886
L72286 74886
L72216 74849
L72187 74774
L72225 74474
L72272 74399
L72352 74361
L72501 74361
L72572 74399
L72600 74474
L72591 74549
L72206 74624
" />
<path d="M72895 74811
L72928 74849
L72886 74886
L72853 74849
L72895 74811
L72886 74886
" />
<path d="M72947 74399
L72980 74436
L72937 74474
L72905 74436
L72947 74399
L72937 74474
" />
</g>
<g style="fill:#000000; fill-opacity:0.0; 
stroke:#000000; stroke-width:39.3701; stroke-opacity:1; 
stroke-linecap:round; stroke-linejoin:round;">
</g>
<g style="fill:#000000; fill-opacity:0.0; 
stroke:#000000; stroke-width:59.0551; stroke-opacity:1; 
stroke-linecap:round; stroke-linejoin:round;">
<path d="M70446 73070
L70249 73070
" />
<path d="M70249 73380
L70249 72789
L70530 72789
" />
<path d="M70755 73380
L70755 72986
" />
<path d="M70755 72789
L70727 72817
L70755 72845
L70784 72817
L70755 72789
L70755 72845
" />
<path d="M71121 73380
L71065 73352
L71037 73295
L71037 72789
" />
<path d="M71571 73352
L71515 73380
L71402 73380
L71346 73352
L71318 73295
L71318 73070
L71346 73014
L71402 72986
L71515 72986
L71571 73014
L71599 73070
L71599 73127
L71318 73183
" />
<path d="M71852 73323
L71880 73352
L71852 73380
L71824 73352
L71852 73323
L71852 73380
" />
<path d="M71852 73014
L71880 73042
L71852 73070
L71824 73042
L71852 73014
L71852 73070
" />
<path d="M72583 73380
L72583 72789
L72808 72789
L72865 72817
L72893 72845
L72921 72902
L72921 72986
L72893 73042
L72865 73070
L72808 73099
L72583 73099
" />
<path d="M73174 73380
L73174 72986
" />
<path d="M73174 73099
L73202 73042
L73230 73014
L73286 72986
L73343 72986
" />
<path d="M73624 73380
L73568 73352
L73539 73323
L73511 73267
L73511 73099
L73539 73042
L73568 73014
L73624 72986
L73708 72986
L73764 73014
L73793 73042
L73821 73099
L73821 73267
L73793 73323
L73764 73352
L73708 73380
L73624 73380
" />
<path d="M74074 72986
L74074 73492
L74046 73548
L73989 73577
L73961 73577
" />
<path d="M74074 72789
L74046 72817
L74074 72845
L74102 72817
L74074 72789
L74074 72845
" />
<path d="M74580 73352
L74524 73380
L74411 73380
L74355 73352
L74327 73295
L74327 73070
L74355 73014
L74411 72986
L74524 72986
L74580 73014
L74608 73070
L74608 73127
L74327 73183
" />
<path d="M74777 72986
L75002 72986
" />
<path d="M74861 72789
L74861 73295
L74889 73352
L74946 73380
L75002 73380
" />
<path d="M75283 73380
L75227 73352
L75199 73323
L75171 73267
L75171 73099
L75199 73042
L75227 73014
L75283 72986
L75367 72986
L75424 73014
L75452 73042
L75480 73099
L75480 73267
L75452 73323
L75424 73352
L75367 73380
L75283 73380
" />
<path d="M76099 72986
L76323 72986
" />
<path d="M76183 73380
L76183 72874
L76211 72817
L76267 72789
L76323 72789
" />
<path d="M76520 73380
L76520 72986
" />
<path d="M76520 72789
L76492 72817
L76520 72845
L76548 72817
L76520 72789
L76520 72845
" />
<path d="M76802 72986
L76802 73380
" />
<path d="M76802 73042
L76830 73014
L76886 72986
L76970 72986
L77027 73014
L77055 73070
L77055 73380
" />
<path d="M77589 73380
L77589 73070
L77561 73014
L77505 72986
L77392 72986
L77336 73014
" />
<path d="M77589 73352
L77533 73380
L77392 73380
L77336 73352
L77308 73295
L77308 73239
L77336 73183
L77392 73155
L77533 73155
L77589 73127
" />
<path d="M77955 73380
L77898 73352
L77870 73295
L77870 72789
" />
<path d="M78180 73323
L78208 73352
L78180 73380
L78151 73352
L78180 73323
L78180 73380
" />
<path d="M78461 73380
L78461 72789
" />
<path d="M78517 73155
L78686 73380
" />
<path d="M78686 72986
L78461 73211
" />
<path d="M78939 73380
L78939 72986
" />
<path d="M78939 72789
L78911 72817
L78939 72845
L78967 72817
L78939 72789
L78939 72845
" />
<path d="M79473 73352
L79417 73380
L79304 73380
L79248 73352
L79220 73323
L79192 73267
L79192 73099
L79220 73042
L79248 73014
L79304 72986
L79417 72986
L79473 73014
" />
<path d="M79979 73380
L79979 73070
L79951 73014
L79895 72986
L79782 72986
L79726 73014
" />
<path d="M79979 73352
L79923 73380
L79782 73380
L79726 73352
L79698 73295
L79698 73239
L79726 73183
L79782 73155
L79923 73155
L79979 73127
" />
<path d="M80514 73380
L80514 72789
" />
<path d="M80514 73352
L80457 73380
L80345 73380
L80289 73352
L80260 73323
L80232 73267
L80232 73099
L80260 73042
L80289 73014
L80345 72986
L80457 72986
L80514 73014
" />
<path d="M80654 73436
L81104 73436
" />
<path d="M81245 72986
L81245 73577
" />
<path d="M81245 73014
L81301 72986
L81413 72986
L81470 73014
L81498 73042
L81526 73099
L81526 73267
L81498 73323
L81470 73352
L81413 73380
L81301 73380
L81245 73352
" />
<path d="M82032 73352
L81976 73380
L81863 73380
L81807 73352
L81779 73323
L81751 73267
L81751 73099
L81779 73042
L81807 73014
L81863 72986
L81976 72986
L82032 73014
" />
<path d="M82285 73380
L82285 72789
" />
<path d="M82285 73014
L82341 72986
L82454 72986
L82510 73014
L82538 73042
L82566 73099
L82566 73267
L82538 73323
L82510 73352
L82454 73380
L82341 73380
L82285 73352
" />
</g>
<g style="fill:#000000; fill-opacity:0.0; 
stroke:#000000; stroke-width:39.3701; stroke-opacity:1; 
stroke-linecap:round; stroke-linejoin:round;">
</g>
<g style="fill:#000000; fill-opacity:0.0; 
stroke:#000000; stroke-width:59.0551; stroke-opacity:1; 
stroke-linecap:round; stroke-linejoin:round;">
<path d="M69685 71459
L112205 71459
" />
</g>
<g style="fill:#000000; fill-opacity:0.0; 
stroke:#000000; stroke-width:39.3701; stroke-opacity:1; 
stroke-linecap:round; stroke-linejoin:round;">
</g>
<g style="fill:#000000; fill-opacity:0.0; 
stroke:#000000; stroke-width:59.0551; stroke-opacity:1; 
stroke-linecap:round; stroke-linejoin:round;">
<path d="M70221 72289
L70305 72317
L70446 72317
L70502 72289
L70530 72260
L70559 72204
L70559 72148
L70530 72092
L70502 72064
L70446 72036
L70334 72007
L70277 71979
L70249 71951
L70221 71895
L70221 71839
L70249 71782
L70277 71754
L70334 71726
L70474 71726
L70559 71754
" />
<path d="M70812 72317
L70812 71726
" />
<path d="M71065 72317
L71065 72007
L71037 71951
L70980 71923
L70896 71923
L70840 71951
L70812 71979
" />
<path d="M71571 72289
L71515 72317
L71402 72317
L71346 72289
L71318 72232
L71318 72007
L71346 71951
L71402 71923
L71515 71923
L71571 71951
L71599 72007
L71599 72064
L71318 72120
" />
<path d="M72077 72289
L72021 72317
L71908 72317
L71852 72289
L71824 72232
L71824 72007
L71852 71951
L71908 71923
L72021 71923
L72077 71951
L72105 72007
L72105 72064
L71824 72120
" />
<path d="M72274 71923
L72499 71923
" />
<path d="M72358 71726
L72358 72232
L72386 72289
L72443 72317
L72499 72317
" />
<path d="M72696 72260
L72724 72289
L72696 72317
L72668 72289
L72696 72260
L72696 72317
" />
<path d="M72696 71951
L72724 71979
L72696 72007
L72668 71979
L72696 71951
L72696 72007
" />
</g>
<g style="fill:#000000; fill-opacity:0.0; 
stroke:#000000; stroke-width:39.3701; stroke-opacity:1; 
stroke-linecap:round; stroke-linejoin:round;">
</g>
<g style="fill:#000000; fill-opacity:0.0; 
stroke:#000000; stroke-width:59.0551; stroke-opacity:1; 
stroke-linecap:round; stroke-linejoin:round;">
<path d="M77559 75396
L77559 76577
" />
</g>
<g style="fill:#000000; fill-opacity:0.0; 
stroke:#000000; stroke-width:39.3701; stroke-opacity:1; 
stroke-linecap:round; stroke-linejoin:round;">
</g>
<g style="fill:#000000; fill-opacity:0.0; 
stroke:#000000; stroke-width:59.0551; stroke-opacity:1; 
stroke-linecap:round; stroke-linejoin:round;">
<path d="M102756 75396
L102756 77955
" />
</g>
<g style="fill:#848400; fill-opacity:0.0; 
stroke:#848400; stroke-width:59.0551; stroke-opacity:1; 
stroke-linecap:round; stroke-linejoin:round;">
</g>
<g style="fill:#848400; fill-opacity:0.0; 
stroke:#848400; stroke-width:0; stroke-opacity:1; 
stroke-linecap:round; stroke-linejoin:round;">
</g>
<g style="fill:#848400; fill-opacity:1.0; 
stroke:#848400; stroke-width:0; stroke-opacity:1; 
stroke-linecap:round; stroke-linejoin:round;">
<polyline style="fill-rule:evenodd;"
points="54755,32295
54283,32295
54283,31822
54755,31822
54755,32295
" /> 
<circle cx="54519.7" cy="31271.7" r="236.22" /> 
</g>
<g style="fill:#848400; fill-opacity:1.0; 
stroke:#848400; stroke-width:39.3701; stroke-opacity:1; 
stroke-linecap:round; stroke-linejoin:round;">
</g>
<g style="fill:#848400; fill-opacity:1.0; 
stroke:#848400; stroke-width:0; stroke-opacity:1; 
stroke-linecap:round; stroke-linejoin:round;">
<circle cx="58307.1" cy="37059.1" r="236.22" /> 
</g>
<g style="fill:#848400; fill-opacity:1.0; 
stroke:#848400; stroke-width:39.3701; stroke-opacity:1; 
stroke-linecap:round; stroke-linejoin:round;">
</g>
<g style="fill:#848400; fill-opacity:1.0; 
stroke:#848400; stroke-width:0; stroke-opacity:1; 
stroke-linecap:round; stroke-linejoin:round;">
<polyline style="fill-rule:evenodd;"
points="57283,37295
57283,36822
57755,36822
57755,37295
57283,37295
" /> 
<polyline style="fill-rule:evenodd;"
points="51814,36263
51814,36854
51224,36854
51224,36263
51814,36263
" /> 
</g>
<g style="fill:#848400; fill-opacity:1.0; 
stroke:#848400; stroke-width:590.551; stroke-opacity:1; 
stroke-linecap:round; stroke-linejoin:round;">
</g>
<g style="fill:#848400; fill-opacity:0.0; 
stroke:#848400; stroke-width:590.551; stroke-opacity:1; 
stroke-linecap:round; stroke-linejoin:round;">
<path d="M49519 36559
L49519 36559
" />
</g>
<g style="fill:#848400; fill-opacity:0.0; 
stroke:#848400; stroke-width:0; stroke-opacity:1; 
stroke-linecap:round; stroke-linejoin:round;">
</g>
<g style="fill:#848400; fill-opacity:1.0; 
stroke:#848400; stroke-width:0; stroke-opacity:1; 
stroke-linecap:round; stroke-linejoin:round;">
<polyline style="fill-rule:evenodd;"
points="49224,35354
49224,34763
49814,34763
49814,35354
49224,35354
" /> 
</g>
<g style="fill:#848400; fill-opacity:1.0; 
stroke:#848400; stroke-width:590.551; stroke-opacity:1; 
stroke-linecap:round; stroke-linejoin:round;">
</g>
<g style="fill:#848400; fill-opacity:0.0; 
stroke:#848400; stroke-width:590.551; stroke-opacity:1; 
stroke-linecap:round; stroke-linejoin:round;">
<path d="M51519 35059
L51519 35059
" />
<path d="M49519 33559
L49519 33559
" />
</g>
<g style="fill:#848400; fill-opacity:0.0; 
stroke:#848400; stroke-width:0; stroke-opacity:1; 
stroke-linecap:round; stroke-linejoin:round;">
</g>
<g style="fill:#848400; fill-opacity:1.0; 
stroke:#848400; stroke-width:0; stroke-opacity:1; 
stroke-linecap:round; stroke-linejoin:round;">
<polyline style="fill-rule:evenodd;"
points="51814,33263
51814,33854
51224,33854
51224,33263
51814,33263
" /> 
</g>
<g style="fill:#848400; fill-opacity:1.0; 
stroke:#848400; stroke-width:590.551; stroke-opacity:1; 
stroke-linecap:round; stroke-linejoin:round;">
</g>
<g style="fill:#848400; fill-opacity:0.0; 
stroke:#848400; stroke-width:590.551; stroke-opacity:1; 
stroke-linecap:round; stroke-linejoin:round;">
<path d="M51519 32059
L51519 32059
" />
</g>
<g style="fill:#848400; fill-opacity:0.0; 
stroke:#848400; stroke-width:0; stroke-opacity:1; 
stroke-linecap:round; stroke-linejoin:round;">
</g>
<g style="fill:#848400; fill-opacity:1.0; 
stroke:#848400; stroke-width:0; stroke-opacity:1; 
stroke-linecap:round; stroke-linejoin:round;">
<polyline style="fill-rule:evenodd;"
points="49224,32354
49224,31763
49814,31763
49814,32354
49224,32354
" /> 
<polyline style="fill-rule:evenodd;"
points="43354,33224
43354,33893
42685,33893
42685,33224
43354,33224
" /> 
</g>
<g style="fill:#848400; fill-opacity:1.0; 
stroke:#848400; stroke-width:669.291; stroke-opacity:1; 
stroke-linecap:round; stroke-linejoin:round;">
</g>
<g style="fill:#848400; fill-opacity:0.0; 
stroke:#848400; stroke-width:669.291; stroke-opacity:1; 
stroke-linecap:round; stroke-linejoin:round;">
<path d="M43019 32559
L43019 32559
" />
<path d="M50519 48059
L50519 48059
" />
</g>
<g style="fill:#848400; fill-opacity:0.0; 
stroke:#848400; stroke-width:0; stroke-opacity:1; 
stroke-linecap:round; stroke-linejoin:round;">
</g>
<g style="fill:#848400; fill-opacity:1.0; 
stroke:#848400; stroke-width:0; stroke-opacity:1; 
stroke-linecap:round; stroke-linejoin:round;">
<polyline style="fill-rule:evenodd;"
points="49854,48393
49185,48393
49185,47724
49854,47724
49854,48393
" /> 
<polyline style="fill-rule:evenodd;"
points="59505,32226
59171,32226
59171,31891
59505,31891
59505,32226
" /> 
</g>
<g style="fill:#848400; fill-opacity:1.0; 
stroke:#848400; stroke-width:334.646; stroke-opacity:1; 
stroke-linecap:round; stroke-linejoin:round;">
</g>
<g style="fill:#848400; fill-opacity:0.0; 
stroke:#848400; stroke-width:334.646; stroke-opacity:1; 
stroke-linecap:round; stroke-linejoin:round;">
<path d="M59732 32059
L59732 32059
" />
<path d="M60125 32059
L60125 32059
" />
<path d="M60519 32059
L60519 32059
" />
</g>
<g style="fill:#848400; fill-opacity:1.0; 
stroke:#848400; stroke-width:0; stroke-opacity:1; 
stroke-linecap:round; stroke-linejoin:round;">
<circle cx="45019.7" cy="32559.1" r="393.701" /> 
</g>
<g style="fill:#848400; fill-opacity:1.0; 
stroke:#848400; stroke-width:39.3701; stroke-opacity:1; 
stroke-linecap:round; stroke-linejoin:round;">
</g>
<g style="fill:#848400; fill-opacity:1.0; 
stroke:#848400; stroke-width:0; stroke-opacity:1; 
stroke-linecap:round; stroke-linejoin:round;">
<circle cx="45019.7" cy="36889.8" r="393.701" /> 
</g>
<g style="fill:#848400; fill-opacity:1.0; 
stroke:#848400; stroke-width:39.3701; stroke-opacity:1; 
stroke-linecap:round; stroke-linejoin:round;">
</g>
<g style="fill:#848400; fill-opacity:1.0; 
stroke:#848400; stroke-width:0; stroke-opacity:1; 
stroke-linecap:round; stroke-linejoin:round;">
<circle cx="47381.9" cy="32559.1" r="393.701" /> 
</g>
<g style="fill:#848400; fill-opacity:1.0; 
stroke:#848400; stroke-width:39.3701; stroke-opacity:1; 
stroke-linecap:round; stroke-linejoin:round;">
</g>
<g style="fill:#848400; fill-opacity:1.0; 
stroke:#848400; stroke-width:0; stroke-opacity:1; 
stroke-linecap:round; stroke-linejoin:round;">
<circle cx="47381.9" cy="36889.8" r="393.701" /> 
</g>
<g style="fill:#848400; fill-opacity:1.0; 
stroke:#848400; stroke-width:39.3701; stroke-opacity:1; 
stroke-linecap:round; stroke-linejoin:round;">
</g>
<g style="fill:#840000; fill-opacity:1.0; 
stroke:#840000; stroke-width:39.3701; stroke-opacity:1; 
stroke-linecap:round; stroke-linejoin:round;">
</g>
<g style="fill:#840000; fill-opacity:1.0; 
stroke:#840000; stroke-width:0; stroke-opacity:1; 
stroke-linecap:round; stroke-linejoin:round;">
<polyline style="fill-rule:evenodd;"
points="53858,37645
53385,37645
53385,36779
53858,36779
53858,37645
" /> 
<polyline style="fill-rule:evenodd;"
points="54755,37645
54283,37645
54283,36779
54755,36779
54755,37645
" /> 
<polyline style="fill-rule:evenodd;"
points="55653,37645
55181,37645
55181,36779
55653,36779
55653,37645
" /> 
<polyline style="fill-rule:evenodd;"
points="55661,35992
53377,35992
53377,33472
55661,33472
55661,35992
" /> 
<polyline style="fill-rule:evenodd;"
points="53887,41427
53651,41427
53651,40816
53887,40816
53887,41427
" /> 
<polyline style="fill-rule:evenodd;"
points="54387,41427
54151,41427
54151,40816
54387,40816
54387,41427
" /> 
<polyline style="fill-rule:evenodd;"
points="54887,41427
54651,41427
54651,40816
54887,40816
54887,41427
" /> 
<polyline style="fill-rule:evenodd;"
points="55387,41427
55151,41427
55151,40816
55387,40816
55387,41427
" /> 
<polyline style="fill-rule:evenodd;"
points="55387,39301
55151,39301
55151,38690
55387,38690
55387,39301
" /> 
<polyline style="fill-rule:evenodd;"
points="54887,39301
54651,39301
54651,38690
54887,38690
54887,39301
" /> 
<polyline style="fill-rule:evenodd;"
points="54387,39301
54151,39301
54151,38690
54387,38690
54387,39301
" /> 
<polyline style="fill-rule:evenodd;"
points="53887,39301
53651,39301
53651,38690
53887,38690
53887,39301
" /> 
<polyline style="fill-rule:evenodd;"
points="49938,38517
49938,40801
47419,40801
47419,38517
49938,38517
" /> 
<polyline style="fill-rule:evenodd;"
points="51592,38525
51592,38998
50726,38998
50726,38525
51592,38525
" /> 
<polyline style="fill-rule:evenodd;"
points="51592,39423
51592,39895
50726,39895
50726,39423
51592,39423
" /> 
<polyline style="fill-rule:evenodd;"
points="51592,40320
51592,40793
50726,40793
50726,40320
51592,40320
" /> 
</g>
<g style="fill:#848400; fill-opacity:1.0; 
stroke:#848400; stroke-width:0; stroke-opacity:1; 
stroke-linecap:round; stroke-linejoin:round;">
<polyline style="fill-rule:evenodd;"
points="47334,45874
46704,45874
46704,45244
47334,45244
47334,45874
" /> 
</g>
<g style="fill:#848400; fill-opacity:1.0; 
stroke:#848400; stroke-width:629.921; stroke-opacity:1; 
stroke-linecap:round; stroke-linejoin:round;">
</g>
<g style="fill:#848400; fill-opacity:0.0; 
stroke:#848400; stroke-width:629.921; stroke-opacity:1; 
stroke-linecap:round; stroke-linejoin:round;">
<path d="M54019 42559
L54019 42559
" />
<path d="M48019 45559
L48019 45559
" />
<path d="M53019 42559
L53019 42559
" />
<path d="M49019 45559
L49019 45559
" />
<path d="M52019 42559
L52019 42559
" />
<path d="M50019 45559
L50019 45559
" />
<path d="M51019 42559
L51019 42559
" />
<path d="M51019 45559
L51019 45559
" />
<path d="M50019 42559
L50019 42559
" />
<path d="M52019 45559
L52019 45559
" />
<path d="M49019 42559
L49019 42559
" />
<path d="M53019 45559
L53019 45559
" />
<path d="M48019 42559
L48019 42559
" />
<path d="M54019 45559
L54019 45559
" />
<path d="M47019 42559
L47019 42559
" />
</g>
<g style="fill:#BFBFBF; fill-opacity:0.0; 
stroke:#BFBFBF; stroke-width:629.921; stroke-opacity:1; 
stroke-linecap:round; stroke-linejoin:round;">
</g>
<g style="fill:#BFBFBF; fill-opacity:1.0; 
stroke:#BFBFBF; stroke-width:0; stroke-opacity:1; 
stroke-linecap:round; stroke-linejoin:round;">
<circle cx="58519.7" cy="43559.1" r="157.48" /> 
</g>
<g style="fill:#BFBFBF; fill-opacity:1.0; 
stroke:#BFBFBF; stroke-width:39.3701; stroke-opacity:1; 
stroke-linecap:round; stroke-linejoin:round;">
</g>
<g style="fill:#BFBFBF; fill-opacity:1.0; 
stroke:#BFBFBF; stroke-width:0; stroke-opacity:1; 
stroke-linecap:round; stroke-linejoin:round;">
<circle cx="56519.7" cy="39059.1" r="157.48" /> 
</g>
<g style="fill:#BFBFBF; fill-opacity:1.0; 
stroke:#BFBFBF; stroke-width:39.3701; stroke-opacity:1; 
stroke-linecap:round; stroke-linejoin:round;">
</g>
<g style="fill:#BFBFBF; fill-opacity:1.0; 
stroke:#BFBFBF; stroke-width:0; stroke-opacity:1; 
stroke-linecap:round; stroke-linejoin:round;">
<circle cx="56519.7" cy="36559.1" r="157.48" /> 
</g>
<g style="fill:#BFBFBF; fill-opacity:1.0; 
stroke:#BFBFBF; stroke-width:39.3701; stroke-opacity:1; 
stroke-linecap:round; stroke-linejoin:round;">
</g>
<g style="fill:#BFBFBF; fill-opacity:1.0; 
stroke:#BFBFBF; stroke-width:0; stroke-opacity:1; 
stroke-linecap:round; stroke-linejoin:round;">
<circle cx="59976.4" cy="36559.1" r="157.48" /> 
</g>
<g style="fill:#BFBFBF; fill-opacity:1.0; 
stroke:#BFBFBF; stroke-width:39.3701; stroke-opacity:1; 
stroke-linecap:round; stroke-linejoin:round;">
</g>
<g style="fill:#BFBFBF; fill-opacity:1.0; 
stroke:#BFBFBF; stroke-width:0; stroke-opacity:1; 
stroke-linecap:round; stroke-linejoin:round;">
<circle cx="60126" cy="34952.8" r="157.48" /> 
</g>
<g style="fill:#BFBFBF; fill-opacity:1.0; 
stroke:#BFBFBF; stroke-width:39.3701; stroke-opacity:1; 
stroke-linecap:round; stroke-linejoin:round;">
</g>
<g style="fill:#BFBFBF; fill-opacity:1.0; 
stroke:#BFBFBF; stroke-width:0; stroke-opacity:1; 
stroke-linecap:round; stroke-linejoin:round;">
<circle cx="59019.7" cy="36984.3" r="157.48" /> 
</g>
<g style="fill:#BFBFBF; fill-opacity:1.0; 
stroke:#BFBFBF; stroke-width:39.3701; stroke-opacity:1; 
stroke-linecap:round; stroke-linejoin:round;">
</g>
<g style="fill:#840000; fill-opacity:1.0; 
stroke:#840000; stroke-width:39.3701; stroke-opacity:1; 
stroke-linecap:round; stroke-linejoin:round;">
</g>
<g style="fill:#840000; fill-opacity:1.0; 
stroke:#840000; stroke-width:295.276; stroke-opacity:1; 
stroke-linecap:round; stroke-linejoin:round;">
</g>
<g style="fill:#840000; fill-opacity:0.0; 
stroke:#840000; stroke-width:295.276; stroke-opacity:1; 
stroke-linecap:round; stroke-linejoin:round;">
<path d="M51519 32059
L53854 32059
" />
<path d="M51519 35059
L51519 35559
" />
<path d="M53173 37212
L53622 37212
" />
<path d="M51519 35559
L53173 37212
" />
<path d="M53854 32059
L54519 32059
" />
<path d="M52019 32559
L51519 32059
" />
<path d="M51519 35059
L52019 34559
" />
<path d="M52106 34547
L52106 32547
" />
</g>
<g style="fill:#840000; fill-opacity:0.0; 
stroke:#840000; stroke-width:98.4252; stroke-opacity:1; 
stroke-linecap:round; stroke-linejoin:round;">
<path d="M55417 37409
L55417 37212
" />
<path d="M57366 37212
L57519 37059
" />
</g>
<g style="fill:#840000; fill-opacity:0.0; 
stroke:#840000; stroke-width:393.701; stroke-opacity:1; 
stroke-linecap:round; stroke-linejoin:round;">
<path d="M55417 37212
L57366 37212
" />
<path d="M52397 41216
L52893 41712
" />
<path d="M52966 41751
L53622 41751
" />
<path d="M55417 37212
L55417 37956
" />
</g>
<g style="fill:#840000; fill-opacity:0.0; 
stroke:#840000; stroke-width:98.4252; stroke-opacity:1; 
stroke-linecap:round; stroke-linejoin:round;">
<path d="M55417 37956
L55314 38059
" />
<path d="M53769 38809
L53769 38996
" />
</g>
<g style="fill:#840000; fill-opacity:0.0; 
stroke:#840000; stroke-width:393.701; stroke-opacity:1; 
stroke-linecap:round; stroke-linejoin:round;">
<path d="M55314 38059
L54519 38059
" />
<path d="M53035 38761
L51159 38761
" />
<path d="M53769 38996
L53269 38996
" />
<path d="M53269 38996
L53035 38761
" />
</g>
<g style="fill:#840000; fill-opacity:0.0; 
stroke:#840000; stroke-width:98.4252; stroke-opacity:1; 
stroke-linecap:round; stroke-linejoin:round;">
<path d="M52519 40029
L52519 40059
" />
</g>
<g style="fill:#840000; fill-opacity:0.0; 
stroke:#840000; stroke-width:393.701; stroke-opacity:1; 
stroke-linecap:round; stroke-linejoin:round;">
<path d="M53533 38966
L52500 40000
" />
</g>
<g style="fill:#840000; fill-opacity:0.0; 
stroke:#840000; stroke-width:98.4252; stroke-opacity:1; 
stroke-linecap:round; stroke-linejoin:round;">
<path d="M53769 38996
L53553 38996
" />
</g>
<g style="fill:#840000; fill-opacity:0.0; 
stroke:#840000; stroke-width:393.701; stroke-opacity:1; 
stroke-linecap:round; stroke-linejoin:round;">
<path d="M52381 40102
L52381 41102
" />
<path d="M54519 38059
L54019 38059
" />
<path d="M53769 38309
L53769 38996
" />
<path d="M54019 38059
L53769 38309
" />
<path d="M55519 44559
L54519 45559
" />
<path d="M55519 42271
L55519 44559
" />
<path d="M53622 41751
L55000 41751
" />
<path d="M54519 45559
L54019 45559
" />
<path d="M55000 41751
L55519 42271
" />
</g>
<g style="fill:#840000; fill-opacity:0.0; 
stroke:#840000; stroke-width:98.4252; stroke-opacity:1; 
stroke-linecap:round; stroke-linejoin:round;">
<path d="M49224 36854
L49519 36559
" />
</g>
<g style="fill:#840000; fill-opacity:0.0; 
stroke:#840000; stroke-width:393.701; stroke-opacity:1; 
stroke-linecap:round; stroke-linejoin:round;">
<path d="M48795 37283
L49224 36854
" />
<path d="M47775 37283
L48795 37283
" />
<path d="M47381 36889
L47775 37283
" />
<path d="M49519 35059
L49519 36559
" />
<path d="M47381 32559
L47881 32059
" />
<path d="M47881 32059
L49519 32059
" />
<path d="M49519 32059
L49519 33559
" />
<path d="M43019 32559
L45019 32559
" />
</g>
<g style="fill:#840000; fill-opacity:0.0; 
stroke:#840000; stroke-width:98.4252; stroke-opacity:1; 
stroke-linecap:round; stroke-linejoin:round;">
<path d="M50519 48059
L50519 47559
" />
<path d="M52019 46059
L52019 45559
" />
<path d="M50519 47559
L52019 46059
" />
<path d="M49019 45559
L49019 47059
" />
<path d="M49519 47559
L49519 48059
" />
<path d="M49019 47059
L49519 47559
" />
</g>
<g style="fill:#840000; fill-opacity:0.0; 
stroke:#840000; stroke-width:295.276; stroke-opacity:1; 
stroke-linecap:round; stroke-linejoin:round;">
<path d="M55519 40559
L58519 43559
" />
<path d="M53645 40559
L55519 40559
" />
<path d="M58519 43559
L58519 40559
" />
<path d="M58519 40559
L58519 39559
" />
<path d="M58519 39559
L58019 39059
" />
<path d="M58019 39059
L56519 39059
" />
</g>
<g style="fill:#840000; fill-opacity:0.0; 
stroke:#840000; stroke-width:98.4252; stroke-opacity:1; 
stroke-linecap:round; stroke-linejoin:round;">
<path d="M56519 39059
L56519 39059
" />
</g>
<g style="fill:#840000; fill-opacity:0.0; 
stroke:#840000; stroke-width:295.276; stroke-opacity:1; 
stroke-linecap:round; stroke-linejoin:round;">
<path d="M59732 32059
L59732 32346
" />
<path d="M59732 32346
L56519 35559
" />
<path d="M56519 35559
L56519 36559
" />
</g>
<g style="fill:#840000; fill-opacity:0.0; 
stroke:#840000; stroke-width:98.4252; stroke-opacity:1; 
stroke-linecap:round; stroke-linejoin:round;">
<path d="M56519 36559
L56519 36559
" />
<path d="M53553 41122
L53519 41088
" />
</g>
<g style="fill:#840000; fill-opacity:0.0; 
stroke:#840000; stroke-width:295.276; stroke-opacity:1; 
stroke-linecap:round; stroke-linejoin:round;">
<path d="M53769 41122
L53553 41122
" />
<path d="M53519 40685
L53645 40559
" />
</g>
<g style="fill:#840000; fill-opacity:0.0; 
stroke:#840000; stroke-width:296.457; stroke-opacity:1; 
stroke-linecap:round; stroke-linejoin:round;">
<path d="M53519 41088
L53519 40685
" />
</g>
<g style="fill:#840000; fill-opacity:0.0; 
stroke:#840000; stroke-width:393.701; stroke-opacity:1; 
stroke-linecap:round; stroke-linejoin:round;">
<path d="M48679 40899
L47019 42559
" />
<path d="M48679 39659
L48679 40899
" />
<path d="M51159 39659
L48679 39659
" />
</g>
<g style="fill:#840000; fill-opacity:0.0; 
stroke:#840000; stroke-width:98.4252; stroke-opacity:1; 
stroke-linecap:round; stroke-linejoin:round;">
<path d="M60125 36409
L59976 36559
" />
<path d="M60125 34952
L60125 36409
" />
<path d="M60519 32059
L60519 34059
" />
<path d="M59019 35559
L59019 36984
" />
<path d="M60519 34059
L59019 35559
" />
</g>
<g style="fill:#840000; fill-opacity:1.0; 
stroke:#840000; stroke-width:100; stroke-opacity:1; 
stroke-linecap:round; stroke-linejoin:round;">
<polyline style="fill-rule:evenodd;"
points="68552,49181
41664,48867
41704,42559
46487,42559
46527,42762
46643,42935
46815,43051
46968,43081
47071,43081
47223,43051
47396,42935
47511,42762
47519,42723
47527,42762
47643,42935
47815,43051
47968,43081
48071,43081
48223,43051
48396,42935
48511,42762
48519,42723
48527,42762
48643,42935
48815,43051
48968,43081
49071,43081
49223,43051
49396,42935
49511,42762
49519,42723
49527,42762
49643,42935
49815,43051
49968,43081
50071,43081
50223,43051
50396,42935
50511,42762
50519,42723
50527,42762
50643,42935
50815,43051
50968,43081
51071,43081
51223,43051
51396,42935
51511,42762
51519,42723
51527,42762
51643,42935
51815,43051
51968,43081
52071,43081
52223,43051
52396,42935
52511,42762
52519,42723
52527,42762
52643,42935
52815,43051
52968,43081
53071,43081
53223,43051
53396,42935
53511,42762
53519,42723
53527,42762
53643,42935
53815,43051
53968,43081
54071,43081
54223,43051
54396,42935
54511,42762
54552,42559
54511,42355
54396,42182
54357,42156
54832,42156
55115,42439
55115,44391
54353,45153
54223,45066
54071,45036
53968,45036
53815,45066
53643,45182
53527,45355
53519,45394
53511,45355
53396,45182
53223,45066
53071,45036
52968,45036
52815,45066
52643,45182
52527,45355
52519,45394
52511,45355
52396,45182
52223,45066
52071,45036
51968,45036
51815,45066
51643,45182
51527,45355
51519,45394
51511,45355
51396,45182
51223,45066
51071,45036
50968,45036
50815,45066
50643,45182
50532,45347
50473,45222
50310,45074
50157,45011
50069,45059
50069,45509
50077,45509
50077,45609
50069,45609
50069,46059
50157,46107
50310,46043
50473,45895
50532,45770
50643,45935
50815,46051
50968,46081
51071,46081
51223,46051
51396,45935
51511,45762
51519,45723
51527,45762
51643,45935
51725,45990
50356,47359
50334,47373
50320,47395
50320,47395
50277,47458
50257,47559
50261,47579
50128,47668
50065,47762
50065,47724
50049,47643
50003,47574
49935,47528
49854,47512
49772,47512
49761,47458
49704,47373
49683,47359
49276,46952
49276,46015
49396,45935
49506,45770
49565,45895
49729,46043
49882,46107
49969,46059
49969,45609
49961,45609
49961,45509
49969,45509
49969,45059
49882,45011
49729,45074
49565,45222
49506,45347
49396,45182
49223,45066
49071,45036
48968,45036
48815,45066
48643,45182
48527,45355
48519,45394
48511,45355
48396,45182
48223,45066
48071,45036
47968,45036
47815,45066
47643,45182
47546,45327
47546,45244
47530,45163
47484,45094
47415,45048
47334,45032
46704,45032
46623,45048
46555,45094
46509,45163
46493,45244
46493,45874
46509,45954
46555,46023
46623,46069
46704,46085
47334,46085
47415,46069
47484,46023
47530,45954
47546,45874
47546,45790
47643,45935
47815,46051
47968,46081
48071,46081
48223,46051
48396,45935
48511,45762
48519,45723
48527,45762
48643,45935
48762,46015
48762,47033
48757,47059
48777,47159
48777,47159
48834,47244
48856,47258
49122,47525
49104,47528
49035,47574
48989,47643
48973,47724
48973,48393
48989,48474
49035,48543
49104,48589
49185,48605
49854,48605
49935,48589
50003,48543
50049,48474
50065,48393
50065,48355
50128,48449
50308,48569
50466,48601
50573,48601
50731,48569
50910,48449
51030,48270
51072,48059
51030,47847
50910,47668
50828,47613
52183,46258
52204,46244
52219,46222
52219,46222
52245,46182
52261,46159
52276,46084
52276,46084
52281,46059
52276,46033
52276,46015
52396,45935
52511,45762
52519,45723
52527,45762
52643,45935
52815,46051
52968,46081
53071,46081
53223,46051
53396,45935
53511,45762
53519,45723
53527,45762
53643,45935
53815,46051
53968,46081
54071,46081
54223,46051
54354,45963
54479,45963
54519,45971
54559,45963
54559,45963
54677,45939
54811,45850
54833,45816
55777,44873
55811,44850
55900,44716
55924,44598
55931,44559
55924,44519
55924,42311
55931,42271
55914,42182
55900,42113
55811,41980
55777,41957
55446,41626
55468,41622
55537,41576
55583,41508
55599,41427
55599,41140
58200,43742
58210,43765
58312,43868
58447,43924
58592,43924
58726,43868
58829,43765
58884,43631
58884,43486
58874,43462
58874,39594
58881,39559
58854,39420
58825,39376
58775,39303
58746,39283
58295,38832
58275,38803
58158,38724
58054,38703
58019,38696
57984,38703
56616,38703
56592,38694
56447,38694
56312,38749
56210,38852
56154,38986
56154,39131
56210,39265
56312,39368
56447,39424
56592,39424
56616,39414
57872,39414
58164,39706
58164,40594
58164,40594
58164,42701
55795,40332
55775,40303
55658,40224
55554,40203
55519,40196
55484,40203
53680,40203
53645,40196
53610,40203
53610,40203
53507,40224
53389,40303
53369,40332
53295,40407
53263,40428
53184,40546
53163,40650
53163,40653
53157,40685
53163,40717
53163,41123
53184,41227
53263,41345
53267,41347
53100,41347
52786,41033
52786,40285
53574,39497
53651,39512
53887,39512
53968,39496
53983,39486
54009,39513
54101,39551
54157,39551
54219,39488
54219,39046
54319,39046
54319,39488
54382,39551
54437,39551
54519,39517
54601,39551
54657,39551
54719,39488
54719,39046
54319,39046
54219,39046
54211,39046
54211,38946
54219,38946
54219,38938
54319,38938
54319,38946
54719,38946
54719,38938
54819,38938
54819,38946
54827,38946
54827,39046
54819,39046
54819,39488
54882,39551
54937,39551
55029,39513
55055,39486
55070,39496
55151,39512
55387,39512
55468,39496
55537,39450
55583,39382
55599,39301
55599,38690
55583,38609
55537,38541
55468,38495
55387,38479
55151,38479
55070,38495
55055,38505
55029,38479
54991,38463
55354,38463
55472,38439
55606,38350
55647,38289
55708,38248
55798,38114
55821,37996
55821,37767
55848,37726
55865,37645
55865,37616
57405,37616
57523,37593
57653,37506
57755,37506
57836,37490
57905,37444
57936,37398
58038,37398
58057,37487
58240,37550
58433,37538
58556,37487
58576,37398
58307,37129
58038,37398
57936,37398
57951,37376
57961,37326
57967,37328
58236,37059
57967,36790
57961,36791
57951,36741
57936,36719
58038,36719
58307,36988
58576,36719
58556,36630
58373,36567
58180,36579
58057,36630
58038,36719
57936,36719
57905,36673
57836,36627
57755,36611
57283,36611
57202,36627
57133,36673
57088,36741
57074,36808
56786,36808
56829,36765
56884,36631
56884,36486
56874,36462
56874,35706
59958,32622
59988,32602
60066,32485
60077,32431
60089,32433
60162,32433
60262,32413
60262,33952
58856,35359
58834,35373
58777,35458
58762,35533
58762,35533
58757,35559
58762,35584
58762,36724
58710,36777
58700,36801
58646,36790
58377,37059
58646,37328
58735,37308
58759,37239
58812,37293
58947,37349
59092,37349
59226,37293
59329,37190
59384,37056
59384,36911
59329,36777
59276,36724
59276,35665
59806,35135
59816,35159
59869,35212
59869,36208
59769,36249
59666,36352
59611,36486
59611,36631
59666,36765
59769,36868
59903,36924
60048,36924
60183,36868
60285,36765
60341,36631
60341,36549
60367,36509
60382,36434
60382,36434
60387,36409
60382,36384
60382,35212
60435,35159
60490,35025
60490,34880
60435,34746
60332,34643
60308,34633
60683,34258
60704,34244
60719,34222
60719,34222
60745,34182
60761,34159
60776,34084
60776,34084
60781,34059
60776,34033
60776,32338
60789,32329
60872,32205
60901,32059
60872,31912
60789,31788
60665,31705
60556,31684
60482,31684
60373,31705
60322,31739
60272,31705
60162,31684
60089,31684
59979,31705
59929,31739
59878,31705
59769,31684
59695,31684
59659,31691
59647,31679
59555,31641
59451,31641
59388,31704
59388,31898
59379,31912
59350,32059
59361,32116
59288,32116
59288,32109
58983,32109
58921,32171
58921,32276
58959,32367
59029,32438
59106,32470
56293,35283
56263,35303
56201,35395
56185,35420
56157,35559
56164,35594
56164,36462
56154,36486
56154,36631
56210,36765
56252,36808
55865,36808
55865,36779
55848,36698
55803,36629
55734,36584
55653,36567
55181,36567
55100,36584
55031,36629
54990,36691
54967,36637
54897,36567
54805,36529
54632,36529
54569,36592
54569,37162
54577,37162
54577,37262
54569,37262
54569,37270
54469,37270
54469,37262
54461,37262
54461,37162
54469,37162
54469,36592
54407,36529
54233,36529
54141,36567
54071,36637
54049,36691
54007,36629
53939,36584
53858,36567
53385,36567
53304,36584
53236,36629
53190,36698
53185,36722
51883,35420
51993,35255
52032,35059
52030,35050
52187,34893
52244,34881
52300,34844
53127,34844
53127,36041
53166,36133
53236,36204
53328,36242
54407,36242
54469,36179
54469,34782
54569,34782
54569,36179
54632,36242
55711,36242
55803,36204
55873,36133
55911,36041
55911,34844
55848,34782
54569,34782
54469,34782
53190,34782
53127,34844
52300,34844
52362,34803
52440,34685
52461,34582
52461,33422
53127,33422
53127,34619
53190,34682
54469,34682
54469,33284
54569,33284
54569,34682
55848,34682
55911,34619
55911,33422
55873,33330
55803,33260
55711,33222
54632,33222
54569,33284
54469,33284
54407,33222
53328,33222
53236,33260
53166,33330
53127,33422
52461,33422
52461,32512
52441,32414
54113,32414
54133,32444
54202,32490
54283,32506
54755,32506
54836,32490
54905,32444
54951,32376
54967,32295
54967,31842
58921,31842
58921,31946
58983,32009
59288,32009
59288,31704
59226,31641
59121,31641
59029,31679
58959,31750
58921,31842
54967,31842
54967,31822
54951,31741
54905,31673
54836,31627
54787,31617
54788,31611
54519,31342
54250,31611
54252,31617
54202,31627
54133,31673
54113,31703
51887,31703
51882,31696
51715,31585
51569,31556
51470,31556
51323,31585
51157,31696
51046,31862
51007,32059
51046,32255
51157,32421
51323,32532
51470,32561
51520,32561
51751,32792
51751,33013
51632,33013
51569,33076
51569,33509
51577,33509
51577,33609
51569,33609
51569,34041
51632,34104
51751,34104
51751,34325
51520,34556
51470,34556
51323,34585
51157,34696
51046,34862
51007,35059
51046,35255
51157,35421
51164,35426
51164,35524
51157,35559
51185,35697
51242,35783
51263,35815
51293,35834
51472,36013
51469,36013
51469,36076
51407,36013
51174,36013
51082,36051
51012,36122
50974,36214
50974,36446
51036,36509
51469,36509
51469,36501
51569,36501
51569,36509
51577,36509
51577,36609
51569,36609
51569,37041
51632,37104
51864,37104
51956,37066
52026,36995
52064,36904
52064,36671
52002,36609
52064,36609
52064,36606
52897,37438
52917,37468
53020,37537
53034,37547
53173,37574
53174,37574
53174,37645
53190,37726
53236,37795
53304,37841
53385,37857
53649,37857
53511,37994
53478,38017
53388,38151
53375,38216
53357,38309
53365,38348
53365,38519
53349,38504
53326,38470
53193,38380
53075,38357
53075,38357
53035,38349
52995,38357
51714,38357
51673,38330
51592,38314
50726,38314
50645,38330
50576,38376
50530,38444
50514,38525
50514,38998
50530,39078
50576,39147
50645,39193
50726,39209
51592,39209
51673,39193
51714,39166
52762,39166
52185,39742
52180,39750
52090,39810
52001,39944
51977,40062
51977,41142
51988,41199
51985,41216
52016,41374
52083,41474
52635,42026
52735,42093
52755,42097
52762,42102
52643,42182
52527,42355
52519,42394
52511,42355
52396,42182
52223,42066
52071,42036
51968,42036
51815,42066
51643,42182
51527,42355
51519,42394
51511,42355
51396,42182
51223,42066
51071,42036
50968,42036
50815,42066
50643,42182
50527,42355
50519,42394
50511,42355
50396,42182
50223,42066
50071,42036
49968,42036
49815,42066
49643,42182
49527,42355
49519,42394
49511,42355
49396,42182
49223,42066
49071,42036
48968,42036
48815,42066
48643,42182
48527,42355
48519,42394
48511,42355
48396,42182
48223,42066
48106,42043
48936,41213
48970,41191
49050,41072
49060,41057
49060,41057
49060,41057
49068,41012
49938,41012
50019,40996
50088,40950
50134,40882
50150,40801
50150,40669
50476,40669
50476,40843
50514,40934
50584,41005
50676,41043
51046,41043
51109,40980
51109,40607
51209,40607
51209,40980
51271,41043
51642,41043
51734,41005
51804,40934
51842,40843
51842,40669
51780,40607
51209,40607
51109,40607
50538,40607
50476,40669
50150,40669
50150,40063
50604,40063
50638,40086
50584,40108
50514,40179
50476,40271
50476,40444
50538,40507
51109,40507
51109,40499
51209,40499
51209,40507
51780,40507
51842,40444
51842,40271
51804,40179
51734,40108
51680,40086
51742,40045
51787,39976
51804,39895
51804,39423
51787,39342
51742,39273
51673,39227
51592,39211
50726,39211
50645,39227
50604,39255
50150,39255
50150,38517
50134,38436
50088,38368
50019,38322
49938,38306
47419,38306
47338,38322
47269,38368
47223,38436
47207,38517
47207,40801
47223,40882
47269,40950
47338,40996
47419,41012
47994,41012
46970,42036
46968,42036
46815,42066
46643,42182
46527,42355
46487,42559
41704,42559
41738,37343
44636,37343
44675,37448
44915,37537
45171,37528
45363,37448
45402,37343
45019,36960
44636,37343
41738,37343
41741,36785
44371,36785
44381,37041
44460,37233
44565,37272
44948,36889
45090,36889
45473,37272
45578,37233
45667,36993
45659,36770
46780,36770
46780,37009
46872,37230
47041,37399
47262,37490
47411,37490
47461,37541
47484,37574
47588,37645
47617,37664
47617,37664
47617,37664
47735,37687
47775,37695
47815,37687
48755,37687
48795,37695
48835,37687
48835,37687
48953,37664
49086,37574
49109,37541
49538,37112
49572,37061
49715,37032
49882,36921
49993,36755
50009,36671
50974,36671
50974,36904
51012,36995
51082,37066
51174,37104
51407,37104
51469,37041
51469,36609
51036,36609
50974,36671
50009,36671
50032,36559
49993,36362
49924,36259
49924,35530
49964,35503
50010,35435
50026,35354
50026,34763
50010,34682
49964,34614
49895,34568
49814,34552
49224,34552
49143,34568
49074,34614
49028,34682
49012,34763
49012,35354
49028,35435
49074,35503
49115,35530
49115,36259
49046,36362
49017,36506
48966,36540
48627,36879
47983,36879
47983,36770
47891,36549
47722,36380
47501,36288
47262,36288
47041,36380
46872,36549
46780,36770
45659,36770
45658,36738
45578,36545
45473,36506
45090,36889
44948,36889
44565,36506
44460,36545
44371,36785
41741,36785
41744,36436
44636,36436
45019,36819
45402,36436
45363,36330
45123,36241
44867,36251
44675,36330
44636,36436
41744,36436
41761,33671
42435,33671
42435,33943
42473,34035
42543,34105
42635,34143
42907,34143
42969,34081
42969,33609
43069,33609
43069,34081
43132,34143
43404,34143
43495,34105
43566,34035
43604,33943
43604,33671
43541,33609
43069,33609
42969,33609
42497,33609
42435,33671
41761,33671
41764,33174
42435,33174
42435,33446
42497,33509
42969,33509
42969,33501
43069,33501
43069,33509
43541,33509
43604,33446
43604,33174
43566,33082
43495,33012
43404,32974
43373,32974
43390,32963
44573,32963
44679,33068
44900,33160
45139,33160
45360,33068
45529,32899
45620,32678
45620,32439
46780,32439
46780,32678
46872,32899
47041,33068
47262,33160
47501,33160
47722,33068
47891,32899
47983,32678
47983,32529
48049,32463
49047,32463
49074,32503
49115,32530
49115,33259
49046,33362
49007,33559
49046,33755
49157,33921
49323,34032
49470,34061
49569,34061
49715,34032
49882,33921
49993,33755
50009,33671
50974,33671
50974,33904
51012,33995
51082,34066
51174,34104
51407,34104
51469,34041
51469,33609
51036,33609
50974,33671
50009,33671
50032,33559
49993,33362
49924,33259
49924,33214
50974,33214
50974,33446
51036,33509
51469,33509
51469,33076
51407,33013
51174,33013
51082,33051
51012,33122
50974,33214
49924,33214
49924,32530
49964,32503
50010,32435
50026,32354
50026,31763
50010,31682
49964,31614
49895,31568
49814,31552
49224,31552
49143,31568
49074,31614
49047,31654
47921,31654
47881,31646
47842,31654
47724,31678
47724,31678
47724,31678
47696,31696
47590,31767
47567,31801
47411,31957
47262,31957
47041,32049
46872,32218
46780,32439
45620,32439
45529,32218
45360,32049
45139,31957
44900,31957
44679,32049
44573,32154
43390,32154
43231,32048
43073,32016
42966,32016
42808,32048
42628,32168
42509,32347
42466,32559
42509,32770
42628,32949
42665,32974
42635,32974
42543,33012
42473,33082
42435,33174
41764,33174
41777,31205
54028,31205
54040,31398
54091,31521
54180,31540
54448,31271
54590,31271
54859,31540
54948,31521
55010,31338
54999,31145
54948,31022
54859,31002
54590,31271
54448,31271
54180,31002
54091,31022
54028,31205
41777,31205
41779,30931
54250,30931
54519,31200
54788,30931
54769,30843
54586,30780
54393,30792
54270,30843
54250,30931
41779,30931
41781,30502
68552,30502
68552,49181
" /> 
<polyline style="fill-rule:evenodd;"
points="54319,41072
54719,41072
54719,41064
54819,41064
54819,41072
54827,41072
54827,41172
54819,41172
54819,41179
54719,41179
54719,41172
54319,41172
54319,41179
54219,41179
54219,41172
54211,41172
54211,41072
54219,41072
54219,41064
54319,41064
54319,41072
" /> 
</g>
<g style="fill:#FFFFFF; fill-opacity:1.0; 
stroke:#FFFFFF; stroke-width:100; stroke-opacity:1; 
stroke-linecap:round; stroke-linejoin:round;">
</g>
<g style="fill:#FFFFFF; fill-opacity:1.0; 
stroke:#FFFFFF; stroke-width:0; stroke-opacity:1; 
stroke-linecap:round; stroke-linejoin:round;">
<circle cx="58519.7" cy="43559.1" r="78.7402" /> 
</g>
<g style="fill:#FFFFFF; fill-opacity:1.0; 
stroke:#FFFFFF; stroke-width:39.3701; stroke-opacity:1; 
stroke-linecap:round; stroke-linejoin:round;">
</g>
<g style="fill:#FFFFFF; fill-opacity:1.0; 
stroke:#FFFFFF; stroke-width:0; stroke-opacity:1; 
stroke-linecap:round; stroke-linejoin:round;">
<circle cx="56519.7" cy="39059.1" r="78.7402" /> 
</g>
<g style="fill:#FFFFFF; fill-opacity:1.0; 
stroke:#FFFFFF; stroke-width:39.3701; stroke-opacity:1; 
stroke-linecap:round; stroke-linejoin:round;">
</g>
<g style="fill:#FFFFFF; fill-opacity:1.0; 
stroke:#FFFFFF; stroke-width:0; stroke-opacity:1; 
stroke-linecap:round; stroke-linejoin:round;">
<circle cx="56519.7" cy="36559.1" r="78.7402" /> 
</g>
<g style="fill:#FFFFFF; fill-opacity:1.0; 
stroke:#FFFFFF; stroke-width:39.3701; stroke-opacity:1; 
stroke-linecap:round; stroke-linejoin:round;">
</g>
<g style="fill:#FFFFFF; fill-opacity:1.0; 
stroke:#FFFFFF; stroke-width:0; stroke-opacity:1; 
stroke-linecap:round; stroke-linejoin:round;">
<circle cx="59976.4" cy="36559.1" r="78.7402" /> 
</g>
<g style="fill:#FFFFFF; fill-opacity:1.0; 
stroke:#FFFFFF; stroke-width:39.3701; stroke-opacity:1; 
stroke-linecap:round; stroke-linejoin:round;">
</g>
<g style="fill:#FFFFFF; fill-opacity:1.0; 
stroke:#FFFFFF; stroke-width:0; stroke-opacity:1; 
stroke-linecap:round; stroke-linejoin:round;">
<circle cx="60126" cy="34952.8" r="78.7402" /> 
</g>
<g style="fill:#FFFFFF; fill-opacity:1.0; 
stroke:#FFFFFF; stroke-width:39.3701; stroke-opacity:1; 
stroke-linecap:round; stroke-linejoin:round;">
</g>
<g style="fill:#FFFFFF; fill-opacity:1.0; 
stroke:#FFFFFF; stroke-width:0; stroke-opacity:1; 
stroke-linecap:round; stroke-linejoin:round;">
<circle cx="59019.7" cy="36984.3" r="78.7402" /> 
</g>
<g style="fill:#FFFFFF; fill-opacity:1.0; 
stroke:#FFFFFF; stroke-width:39.3701; stroke-opacity:1; 
stroke-linecap:round; stroke-linejoin:round;">
</g>
<g style="fill:#FFFFFF; fill-opacity:1.0; 
stroke:#FFFFFF; stroke-width:0; stroke-opacity:1; 
stroke-linecap:round; stroke-linejoin:round;">
<circle cx="54519.7" cy="32059.1" r="118.11" /> 
</g>
<g style="fill:#FFFFFF; fill-opacity:1.0; 
stroke:#FFFFFF; stroke-width:39.3701; stroke-opacity:1; 
stroke-linecap:round; stroke-linejoin:round;">
</g>
<g style="fill:#FFFFFF; fill-opacity:1.0; 
stroke:#FFFFFF; stroke-width:0; stroke-opacity:1; 
stroke-linecap:round; stroke-linejoin:round;">
<circle cx="54519.7" cy="31271.7" r="118.11" /> 
</g>
<g style="fill:#FFFFFF; fill-opacity:1.0; 
stroke:#FFFFFF; stroke-width:39.3701; stroke-opacity:1; 
stroke-linecap:round; stroke-linejoin:round;">
</g>
<g style="fill:#FFFFFF; fill-opacity:1.0; 
stroke:#FFFFFF; stroke-width:0; stroke-opacity:1; 
stroke-linecap:round; stroke-linejoin:round;">
<circle cx="58307.1" cy="37059.1" r="118.11" /> 
</g>
<g style="fill:#FFFFFF; fill-opacity:1.0; 
stroke:#FFFFFF; stroke-width:39.3701; stroke-opacity:1; 
stroke-linecap:round; stroke-linejoin:round;">
</g>
<g style="fill:#FFFFFF; fill-opacity:1.0; 
stroke:#FFFFFF; stroke-width:0; stroke-opacity:1; 
stroke-linecap:round; stroke-linejoin:round;">
<circle cx="57519.7" cy="37059.1" r="118.11" /> 
</g>
<g style="fill:#FFFFFF; fill-opacity:1.0; 
stroke:#FFFFFF; stroke-width:39.3701; stroke-opacity:1; 
stroke-linecap:round; stroke-linejoin:round;">
</g>
<g style="fill:#FFFFFF; fill-opacity:1.0; 
stroke:#FFFFFF; stroke-width:0; stroke-opacity:1; 
stroke-linecap:round; stroke-linejoin:round;">
<circle cx="51519.7" cy="36559.1" r="147.638" /> 
</g>
<g style="fill:#FFFFFF; fill-opacity:1.0; 
stroke:#FFFFFF; stroke-width:39.3701; stroke-opacity:1; 
stroke-linecap:round; stroke-linejoin:round;">
</g>
<g style="fill:#FFFFFF; fill-opacity:1.0; 
stroke:#FFFFFF; stroke-width:0; stroke-opacity:1; 
stroke-linecap:round; stroke-linejoin:round;">
<circle cx="49519.7" cy="36559.1" r="147.638" /> 
</g>
<g style="fill:#FFFFFF; fill-opacity:1.0; 
stroke:#FFFFFF; stroke-width:39.3701; stroke-opacity:1; 
stroke-linecap:round; stroke-linejoin:round;">
</g>
<g style="fill:#FFFFFF; fill-opacity:1.0; 
stroke:#FFFFFF; stroke-width:0; stroke-opacity:1; 
stroke-linecap:round; stroke-linejoin:round;">
<circle cx="49519.7" cy="35059.1" r="147.638" /> 
</g>
<g style="fill:#FFFFFF; fill-opacity:1.0; 
stroke:#FFFFFF; stroke-width:39.3701; stroke-opacity:1; 
stroke-linecap:round; stroke-linejoin:round;">
</g>
<g style="fill:#FFFFFF; fill-opacity:1.0; 
stroke:#FFFFFF; stroke-width:0; stroke-opacity:1; 
stroke-linecap:round; stroke-linejoin:round;">
<circle cx="51519.7" cy="35059.1" r="147.638" /> 
</g>
<g style="fill:#FFFFFF; fill-opacity:1.0; 
stroke:#FFFFFF; stroke-width:39.3701; stroke-opacity:1; 
stroke-linecap:round; stroke-linejoin:round;">
</g>
<g style="fill:#FFFFFF; fill-opacity:1.0; 
stroke:#FFFFFF; stroke-width:0; stroke-opacity:1; 
stroke-linecap:round; stroke-linejoin:round;">
<circle cx="49519.7" cy="33559.1" r="147.638" /> 
</g>
<g style="fill:#FFFFFF; fill-opacity:1.0; 
stroke:#FFFFFF; stroke-width:39.3701; stroke-opacity:1; 
stroke-linecap:round; stroke-linejoin:round;">
</g>
<g style="fill:#FFFFFF; fill-opacity:1.0; 
stroke:#FFFFFF; stroke-width:0; stroke-opacity:1; 
stroke-linecap:round; stroke-linejoin:round;">
<circle cx="51519.7" cy="33559.1" r="147.638" /> 
</g>
<g style="fill:#FFFFFF; fill-opacity:1.0; 
stroke:#FFFFFF; stroke-width:39.3701; stroke-opacity:1; 
stroke-linecap:round; stroke-linejoin:round;">
</g>
<g style="fill:#FFFFFF; fill-opacity:1.0; 
stroke:#FFFFFF; stroke-width:0; stroke-opacity:1; 
stroke-linecap:round; stroke-linejoin:round;">
<circle cx="51519.7" cy="32059.1" r="147.638" /> 
</g>
<g style="fill:#FFFFFF; fill-opacity:1.0; 
stroke:#FFFFFF; stroke-width:39.3701; stroke-opacity:1; 
stroke-linecap:round; stroke-linejoin:round;">
</g>
<g style="fill:#FFFFFF; fill-opacity:1.0; 
stroke:#FFFFFF; stroke-width:0; stroke-opacity:1; 
stroke-linecap:round; stroke-linejoin:round;">
<circle cx="49519.7" cy="32059.1" r="147.638" /> 
</g>
<g style="fill:#FFFFFF; fill-opacity:1.0; 
stroke:#FFFFFF; stroke-width:39.3701; stroke-opacity:1; 
stroke-linecap:round; stroke-linejoin:round;">
</g>
<g style="fill:#FFFFFF; fill-opacity:1.0; 
stroke:#FFFFFF; stroke-width:0; stroke-opacity:1; 
stroke-linecap:round; stroke-linejoin:round;">
<circle cx="43019.7" cy="33559.1" r="196.85" /> 
</g>
<g style="fill:#FFFFFF; fill-opacity:1.0; 
stroke:#FFFFFF; stroke-width:39.3701; stroke-opacity:1; 
stroke-linecap:round; stroke-linejoin:round;">
</g>
<g style="fill:#FFFFFF; fill-opacity:1.0; 
stroke:#FFFFFF; stroke-width:0; stroke-opacity:1; 
stroke-linecap:round; stroke-linejoin:round;">
<circle cx="43019.7" cy="32559.1" r="196.85" /> 
</g>
<g style="fill:#FFFFFF; fill-opacity:1.0; 
stroke:#FFFFFF; stroke-width:39.3701; stroke-opacity:1; 
stroke-linecap:round; stroke-linejoin:round;">
</g>
<g style="fill:#FFFFFF; fill-opacity:1.0; 
stroke:#FFFFFF; stroke-width:0; stroke-opacity:1; 
stroke-linecap:round; stroke-linejoin:round;">
<circle cx="50519.7" cy="48059.1" r="196.85" /> 
</g>
<g style="fill:#FFFFFF; fill-opacity:1.0; 
stroke:#FFFFFF; stroke-width:39.3701; stroke-opacity:1; 
stroke-linecap:round; stroke-linejoin:round;">
</g>
<g style="fill:#FFFFFF; fill-opacity:1.0; 
stroke:#FFFFFF; stroke-width:0; stroke-opacity:1; 
stroke-linecap:round; stroke-linejoin:round;">
<circle cx="49519.7" cy="48059.1" r="196.85" /> 
</g>
<g style="fill:#FFFFFF; fill-opacity:1.0; 
stroke:#FFFFFF; stroke-width:39.3701; stroke-opacity:1; 
stroke-linecap:round; stroke-linejoin:round;">
</g>
<g style="fill:#FFFFFF; fill-opacity:1.0; 
stroke:#FFFFFF; stroke-width:0; stroke-opacity:1; 
stroke-linecap:round; stroke-linejoin:round;">
<circle cx="59338.6" cy="32059.1" r="98.4252" /> 
</g>
<g style="fill:#FFFFFF; fill-opacity:1.0; 
stroke:#FFFFFF; stroke-width:39.3701; stroke-opacity:1; 
stroke-linecap:round; stroke-linejoin:round;">
</g>
<g style="fill:#FFFFFF; fill-opacity:1.0; 
stroke:#FFFFFF; stroke-width:0; stroke-opacity:1; 
stroke-linecap:round; stroke-linejoin:round;">
<circle cx="59732.3" cy="32059.1" r="98.4252" /> 
</g>
<g style="fill:#FFFFFF; fill-opacity:1.0; 
stroke:#FFFFFF; stroke-width:39.3701; stroke-opacity:1; 
stroke-linecap:round; stroke-linejoin:round;">
</g>
<g style="fill:#FFFFFF; fill-opacity:1.0; 
stroke:#FFFFFF; stroke-width:0; stroke-opacity:1; 
stroke-linecap:round; stroke-linejoin:round;">
<circle cx="60126" cy="32059.1" r="98.4252" /> 
</g>
<g style="fill:#FFFFFF; fill-opacity:1.0; 
stroke:#FFFFFF; stroke-width:39.3701; stroke-opacity:1; 
stroke-linecap:round; stroke-linejoin:round;">
</g>
<g style="fill:#FFFFFF; fill-opacity:1.0; 
stroke:#FFFFFF; stroke-width:0; stroke-opacity:1; 
stroke-linecap:round; stroke-linejoin:round;">
<circle cx="60519.7" cy="32059.1" r="98.4252" /> 
</g>
<g style="fill:#FFFFFF; fill-opacity:1.0; 
stroke:#FFFFFF; stroke-width:39.3701; stroke-opacity:1; 
stroke-linecap:round; stroke-linejoin:round;">
</g>
<g style="fill:#FFFFFF; fill-opacity:1.0; 
stroke:#FFFFFF; stroke-width:0; stroke-opacity:1; 
stroke-linecap:round; stroke-linejoin:round;">
<circle cx="45019.7" cy="32559.1" r="196.85" /> 
</g>
<g style="fill:#FFFFFF; fill-opacity:1.0; 
stroke:#FFFFFF; stroke-width:39.3701; stroke-opacity:1; 
stroke-linecap:round; stroke-linejoin:round;">
</g>
<g style="fill:#FFFFFF; fill-opacity:1.0; 
stroke:#FFFFFF; stroke-width:0; stroke-opacity:1; 
stroke-linecap:round; stroke-linejoin:round;">
<circle cx="45019.7" cy="36889.8" r="196.85" /> 
</g>
<g style="fill:#FFFFFF; fill-opacity:1.0; 
stroke:#FFFFFF; stroke-width:39.3701; stroke-opacity:1; 
stroke-linecap:round; stroke-linejoin:round;">
</g>
<g style="fill:#FFFFFF; fill-opacity:1.0; 
stroke:#FFFFFF; stroke-width:0; stroke-opacity:1; 
stroke-linecap:round; stroke-linejoin:round;">
<circle cx="47381.9" cy="32559.1" r="196.85" /> 
</g>
<g style="fill:#FFFFFF; fill-opacity:1.0; 
stroke:#FFFFFF; stroke-width:39.3701; stroke-opacity:1; 
stroke-linecap:round; stroke-linejoin:round;">
</g>
<g style="fill:#FFFFFF; fill-opacity:1.0; 
stroke:#FFFFFF; stroke-width:0; stroke-opacity:1; 
stroke-linecap:round; stroke-linejoin:round;">
<circle cx="47381.9" cy="36889.8" r="196.85" /> 
</g>
<g style="fill:#FFFFFF; fill-opacity:1.0; 
stroke:#FFFFFF; stroke-width:39.3701; stroke-opacity:1; 
stroke-linecap:round; stroke-linejoin:round;">
</g>
<g style="fill:#FFFFFF; fill-opacity:1.0; 
stroke:#FFFFFF; stroke-width:0; stroke-opacity:1; 
stroke-linecap:round; stroke-linejoin:round;">
<circle cx="47019.7" cy="45559.1" r="157.48" /> 
</g>
<g style="fill:#FFFFFF; fill-opacity:1.0; 
stroke:#FFFFFF; stroke-width:39.3701; stroke-opacity:1; 
stroke-linecap:round; stroke-linejoin:round;">
</g>
<g style="fill:#FFFFFF; fill-opacity:1.0; 
stroke:#FFFFFF; stroke-width:0; stroke-opacity:1; 
stroke-linecap:round; stroke-linejoin:round;">
<circle cx="54019.7" cy="42559.1" r="157.48" /> 
</g>
<g style="fill:#FFFFFF; fill-opacity:1.0; 
stroke:#FFFFFF; stroke-width:39.3701; stroke-opacity:1; 
stroke-linecap:round; stroke-linejoin:round;">
</g>
<g style="fill:#FFFFFF; fill-opacity:1.0; 
stroke:#FFFFFF; stroke-width:0; stroke-opacity:1; 
stroke-linecap:round; stroke-linejoin:round;">
<circle cx="48019.7" cy="45559.1" r="157.48" /> 
</g>
<g style="fill:#FFFFFF; fill-opacity:1.0; 
stroke:#FFFFFF; stroke-width:39.3701; stroke-opacity:1; 
stroke-linecap:round; stroke-linejoin:round;">
</g>
<g style="fill:#FFFFFF; fill-opacity:1.0; 
stroke:#FFFFFF; stroke-width:0; stroke-opacity:1; 
stroke-linecap:round; stroke-linejoin:round;">
<circle cx="53019.7" cy="42559.1" r="157.48" /> 
</g>
<g style="fill:#FFFFFF; fill-opacity:1.0; 
stroke:#FFFFFF; stroke-width:39.3701; stroke-opacity:1; 
stroke-linecap:round; stroke-linejoin:round;">
</g>
<g style="fill:#FFFFFF; fill-opacity:1.0; 
stroke:#FFFFFF; stroke-width:0; stroke-opacity:1; 
stroke-linecap:round; stroke-linejoin:round;">
<circle cx="49019.7" cy="45559.1" r="157.48" /> 
</g>
<g style="fill:#FFFFFF; fill-opacity:1.0; 
stroke:#FFFFFF; stroke-width:39.3701; stroke-opacity:1; 
stroke-linecap:round; stroke-linejoin:round;">
</g>
<g style="fill:#FFFFFF; fill-opacity:1.0; 
stroke:#FFFFFF; stroke-width:0; stroke-opacity:1; 
stroke-linecap:round; stroke-linejoin:round;">
<circle cx="52019.7" cy="42559.1" r="157.48" /> 
</g>
<g style="fill:#FFFFFF; fill-opacity:1.0; 
stroke:#FFFFFF; stroke-width:39.3701; stroke-opacity:1; 
stroke-linecap:round; stroke-linejoin:round;">
</g>
<g style="fill:#FFFFFF; fill-opacity:1.0; 
stroke:#FFFFFF; stroke-width:0; stroke-opacity:1; 
stroke-linecap:round; stroke-linejoin:round;">
<circle cx="50019.7" cy="45559.1" r="157.48" /> 
</g>
<g style="fill:#FFFFFF; fill-opacity:1.0; 
stroke:#FFFFFF; stroke-width:39.3701; stroke-opacity:1; 
stroke-linecap:round; stroke-linejoin:round;">
</g>
<g style="fill:#FFFFFF; fill-opacity:1.0; 
stroke:#FFFFFF; stroke-width:0; stroke-opacity:1; 
stroke-linecap:round; stroke-linejoin:round;">
<circle cx="51019.7" cy="42559.1" r="157.48" /> 
</g>
<g style="fill:#FFFFFF; fill-opacity:1.0; 
stroke:#FFFFFF; stroke-width:39.3701; stroke-opacity:1; 
stroke-linecap:round; stroke-linejoin:round;">
</g>
<g style="fill:#FFFFFF; fill-opacity:1.0; 
stroke:#FFFFFF; stroke-width:0; stroke-opacity:1; 
stroke-linecap:round; stroke-linejoin:round;">
<circle cx="51019.7" cy="45559.1" r="157.48" /> 
</g>
<g style="fill:#FFFFFF; fill-opacity:1.0; 
stroke:#FFFFFF; stroke-width:39.3701; stroke-opacity:1; 
stroke-linecap:round; stroke-linejoin:round;">
</g>
<g style="fill:#FFFFFF; fill-opacity:1.0; 
stroke:#FFFFFF; stroke-width:0; stroke-opacity:1; 
stroke-linecap:round; stroke-linejoin:round;">
<circle cx="50019.7" cy="42559.1" r="157.48" /> 
</g>
<g style="fill:#FFFFFF; fill-opacity:1.0; 
stroke:#FFFFFF; stroke-width:39.3701; stroke-opacity:1; 
stroke-linecap:round; stroke-linejoin:round;">
</g>
<g style="fill:#FFFFFF; fill-opacity:1.0; 
stroke:#FFFFFF; stroke-width:0; stroke-opacity:1; 
stroke-linecap:round; stroke-linejoin:round;">
<circle cx="52019.7" cy="45559.1" r="157.48" /> 
</g>
<g style="fill:#FFFFFF; fill-opacity:1.0; 
stroke:#FFFFFF; stroke-width:39.3701; stroke-opacity:1; 
stroke-linecap:round; stroke-linejoin:round;">
</g>
<g style="fill:#FFFFFF; fill-opacity:1.0; 
stroke:#FFFFFF; stroke-width:0; stroke-opacity:1; 
stroke-linecap:round; stroke-linejoin:round;">
<circle cx="49019.7" cy="42559.1" r="157.48" /> 
</g>
<g style="fill:#FFFFFF; fill-opacity:1.0; 
stroke:#FFFFFF; stroke-width:39.3701; stroke-opacity:1; 
stroke-linecap:round; stroke-linejoin:round;">
</g>
<g style="fill:#FFFFFF; fill-opacity:1.0; 
stroke:#FFFFFF; stroke-width:0; stroke-opacity:1; 
stroke-linecap:round; stroke-linejoin:round;">
<circle cx="53019.7" cy="45559.1" r="157.48" /> 
</g>
<g style="fill:#FFFFFF; fill-opacity:1.0; 
stroke:#FFFFFF; stroke-width:39.3701; stroke-opacity:1; 
stroke-linecap:round; stroke-linejoin:round;">
</g>
<g style="fill:#FFFFFF; fill-opacity:1.0; 
stroke:#FFFFFF; stroke-width:0; stroke-opacity:1; 
stroke-linecap:round; stroke-linejoin:round;">
<circle cx="48019.7" cy="42559.1" r="157.48" /> 
</g>
<g style="fill:#FFFFFF; fill-opacity:1.0; 
stroke:#FFFFFF; stroke-width:39.3701; stroke-opacity:1; 
stroke-linecap:round; stroke-linejoin:round;">
</g>
<g style="fill:#FFFFFF; fill-opacity:1.0; 
stroke:#FFFFFF; stroke-width:0; stroke-opacity:1; 
stroke-linecap:round; stroke-linejoin:round;">
<circle cx="54019.7" cy="45559.1" r="157.48" /> 
</g>
<g style="fill:#FFFFFF; fill-opacity:1.0; 
stroke:#FFFFFF; stroke-width:39.3701; stroke-opacity:1; 
stroke-linecap:round; stroke-linejoin:round;">
</g>
<g style="fill:#FFFFFF; fill-opacity:1.0; 
stroke:#FFFFFF; stroke-width:0; stroke-opacity:1; 
stroke-linecap:round; stroke-linejoin:round;">
<circle cx="47019.7" cy="42559.1" r="157.48" /> 
</g>
<g style="fill:#FFFFFF; fill-opacity:1.0; 
stroke:#FFFFFF; stroke-width:39.3701; stroke-opacity:1; 
stroke-linecap:round; stroke-linejoin:round;">
</g>
<g style="fill:#000000; fill-opacity:1.0; 
stroke:#000000; stroke-width:39.3701; stroke-opacity:1; 
stroke-linecap:round; stroke-linejoin:round;">
</g> 
</svg>
