G04 #@! TF.GenerationSoftware,KiCad,Pcbnew,(5.0.0)*
G04 #@! TF.CreationDate,2022-12-05T21:19:23-03:00*
G04 #@! TF.ProjectId,Projeto final,50726F6A65746F2066696E616C2E6B69,rev?*
G04 #@! TF.SameCoordinates,Original*
G04 #@! TF.FileFunction,Soldermask,Top*
G04 #@! TF.FilePolarity,Negative*
%FSLAX46Y46*%
G04 Gerber Fmt 4.6, Leading zero omitted, Abs format (unit mm)*
G04 Created by KiCad (PCBNEW (5.0.0)) date 12/05/22 21:19:23*
%MOMM*%
%LPD*%
G01*
G04 APERTURE LIST*
%ADD10R,1.600000X1.600000*%
%ADD11C,1.600000*%
%ADD12R,1.900000X1.900000*%
%ADD13O,1.900000X1.900000*%
%ADD14R,2.100000X2.100000*%
%ADD15O,2.100000X2.100000*%
%ADD16R,1.250000X1.250000*%
%ADD17O,1.250000X1.250000*%
%ADD18C,2.400000*%
%ADD19R,1.600000X2.600000*%
%ADD20R,6.200000X6.800000*%
%ADD21R,1.000000X1.950000*%
%ADD22R,6.800000X6.200000*%
%ADD23R,2.600000X1.600000*%
%ADD24R,2.000000X2.000000*%
%ADD25O,2.000000X2.000000*%
G04 APERTURE END LIST*
D10*
G04 #@! TO.C,C1*
X138480000Y-81430000D03*
D11*
X138480000Y-79430000D03*
G04 #@! TD*
G04 #@! TO.C,C2*
X148100000Y-94130000D03*
D10*
X146100000Y-94130000D03*
G04 #@! TD*
D12*
G04 #@! TO.C,D1*
X130860000Y-92860000D03*
D13*
X125780000Y-92860000D03*
G04 #@! TD*
D12*
G04 #@! TO.C,D2*
X125780000Y-89050000D03*
D13*
X130860000Y-89050000D03*
G04 #@! TD*
G04 #@! TO.C,D3*
X125780000Y-85240000D03*
D12*
X130860000Y-85240000D03*
G04 #@! TD*
D13*
G04 #@! TO.C,D4*
X130860000Y-81430000D03*
D12*
X125780000Y-81430000D03*
G04 #@! TD*
D14*
G04 #@! TO.C,J1*
X109270000Y-85240000D03*
D15*
X109270000Y-82700000D03*
G04 #@! TD*
G04 #@! TO.C,J2*
X128320000Y-122070000D03*
D14*
X125780000Y-122070000D03*
G04 #@! TD*
D16*
G04 #@! TO.C,J4*
X150720000Y-81430000D03*
D17*
X151720000Y-81430000D03*
X152720000Y-81430000D03*
X153720000Y-81430000D03*
G04 #@! TD*
D18*
G04 #@! TO.C,T1*
X114350000Y-82700000D03*
X114350000Y-93700000D03*
X120350000Y-82700000D03*
X120350000Y-93700000D03*
G04 #@! TD*
D19*
G04 #@! TO.C,U0*
X136200000Y-94520000D03*
X138480000Y-94520000D03*
X140760000Y-94520000D03*
D20*
X138480000Y-88220000D03*
G04 #@! TD*
D21*
G04 #@! TO.C,U1*
X136575000Y-104450000D03*
X137845000Y-104450000D03*
X139115000Y-104450000D03*
X140385000Y-104450000D03*
X140385000Y-99050000D03*
X139115000Y-99050000D03*
X137845000Y-99050000D03*
X136575000Y-99050000D03*
G04 #@! TD*
D22*
G04 #@! TO.C,U4*
X123645000Y-100735000D03*
D23*
X129945000Y-98455000D03*
X129945000Y-100735000D03*
X129945000Y-103015000D03*
G04 #@! TD*
D24*
G04 #@! TO.C,U5*
X119430000Y-115720000D03*
D25*
X137210000Y-108100000D03*
X121970000Y-115720000D03*
X134670000Y-108100000D03*
X124510000Y-115720000D03*
X132130000Y-108100000D03*
X127050000Y-115720000D03*
X129590000Y-108100000D03*
X129590000Y-115720000D03*
X127050000Y-108100000D03*
X132130000Y-115720000D03*
X124510000Y-108100000D03*
X134670000Y-115720000D03*
X121970000Y-108100000D03*
X137210000Y-115720000D03*
X119430000Y-108100000D03*
G04 #@! TD*
M02*
