G04 #@! TF.GenerationSoftware,KiCad,Pcbnew,(5.0.0)*
G04 #@! TF.CreationDate,2022-12-05T21:19:23-03:00*
G04 #@! TF.ProjectId,Projeto final,50726F6A65746F2066696E616C2E6B69,rev?*
G04 #@! TF.SameCoordinates,Original*
G04 #@! TF.FileFunction,Legend,Bot*
G04 #@! TF.FilePolarity,Positive*
%FSLAX46Y46*%
G04 Gerber Fmt 4.6, Leading zero omitted, Abs format (unit mm)*
G04 Created by KiCad (PCBNEW (5.0.0)) date 12/05/22 21:19:23*
%MOMM*%
%LPD*%
G01*
G04 APERTURE LIST*
%ADD10C,0.150000*%
%ADD11C,0.500000*%
G04 APERTURE END LIST*
D10*
G04 #@! TO.C,U3*
X170340000Y-118310000D02*
X152340000Y-118310000D01*
X170340000Y-92810000D02*
X152340000Y-92810000D01*
X170340000Y-118310000D02*
X170340000Y-92810000D01*
X152340000Y-118310000D02*
X152340000Y-92810000D01*
X170340000Y-112310000D02*
X152340000Y-112310000D01*
D11*
X151717981Y-112164000D02*
G75*
G03X151717981Y-112164000I-283981J0D01*
G01*
D10*
X173658904Y-114029380D02*
X173658904Y-114838904D01*
X173611285Y-114934142D01*
X173563666Y-114981761D01*
X173468428Y-115029380D01*
X173277952Y-115029380D01*
X173182714Y-114981761D01*
X173135095Y-114934142D01*
X173087476Y-114838904D01*
X173087476Y-114029380D01*
X172706523Y-114029380D02*
X172087476Y-114029380D01*
X172420809Y-114410333D01*
X172277952Y-114410333D01*
X172182714Y-114457952D01*
X172135095Y-114505571D01*
X172087476Y-114600809D01*
X172087476Y-114838904D01*
X172135095Y-114934142D01*
X172182714Y-114981761D01*
X172277952Y-115029380D01*
X172563666Y-115029380D01*
X172658904Y-114981761D01*
X172706523Y-114934142D01*
X166475571Y-100361619D02*
X166475571Y-100694952D01*
X166999380Y-100837809D02*
X166999380Y-100361619D01*
X165999380Y-100361619D01*
X165999380Y-100837809D01*
X166951761Y-101218761D02*
X166999380Y-101361619D01*
X166999380Y-101599714D01*
X166951761Y-101694952D01*
X166904142Y-101742571D01*
X166808904Y-101790190D01*
X166713666Y-101790190D01*
X166618428Y-101742571D01*
X166570809Y-101694952D01*
X166523190Y-101599714D01*
X166475571Y-101409238D01*
X166427952Y-101313999D01*
X166380333Y-101266380D01*
X166285095Y-101218761D01*
X166189857Y-101218761D01*
X166094619Y-101266380D01*
X166047000Y-101313999D01*
X165999380Y-101409238D01*
X165999380Y-101647333D01*
X166047000Y-101790190D01*
X166999380Y-102218761D02*
X165999380Y-102218761D01*
X165999380Y-102599714D01*
X166047000Y-102694952D01*
X166094619Y-102742571D01*
X166189857Y-102790190D01*
X166332714Y-102790190D01*
X166427952Y-102742571D01*
X166475571Y-102694952D01*
X166523190Y-102599714D01*
X166523190Y-102218761D01*
X165999380Y-103123523D02*
X165999380Y-103742571D01*
X166380333Y-103409238D01*
X166380333Y-103552095D01*
X166427952Y-103647333D01*
X166475571Y-103694952D01*
X166570809Y-103742571D01*
X166808904Y-103742571D01*
X166904142Y-103694952D01*
X166951761Y-103647333D01*
X166999380Y-103552095D01*
X166999380Y-103266380D01*
X166951761Y-103171142D01*
X166904142Y-103123523D01*
X166094619Y-104123523D02*
X166047000Y-104171142D01*
X165999380Y-104266380D01*
X165999380Y-104504476D01*
X166047000Y-104599714D01*
X166094619Y-104647333D01*
X166189857Y-104694952D01*
X166285095Y-104694952D01*
X166427952Y-104647333D01*
X166999380Y-104075904D01*
X166999380Y-104694952D01*
X166618428Y-105123523D02*
X166618428Y-105885428D01*
X165999380Y-106266380D02*
X166999380Y-106504476D01*
X166285095Y-106694952D01*
X166999380Y-106885428D01*
X165999380Y-107123523D01*
X166999380Y-108075904D02*
X166523190Y-107742571D01*
X166999380Y-107504476D02*
X165999380Y-107504476D01*
X165999380Y-107885428D01*
X166046999Y-107980666D01*
X166094619Y-108028285D01*
X166189857Y-108075904D01*
X166332714Y-108075904D01*
X166427952Y-108028285D01*
X166475571Y-107980666D01*
X166523190Y-107885428D01*
X166523190Y-107504476D01*
X165999380Y-108694952D02*
X165999380Y-108885428D01*
X166046999Y-108980666D01*
X166142238Y-109075904D01*
X166332714Y-109123523D01*
X166666047Y-109123523D01*
X166856523Y-109075904D01*
X166951761Y-108980666D01*
X166999380Y-108885428D01*
X166999380Y-108694952D01*
X166951761Y-108599714D01*
X166856523Y-108504476D01*
X166666047Y-108456857D01*
X166332714Y-108456857D01*
X166142238Y-108504476D01*
X166046999Y-108599714D01*
X165999380Y-108694952D01*
X165999380Y-109742571D02*
X165999380Y-109933047D01*
X166046999Y-110028285D01*
X166142238Y-110123523D01*
X166332714Y-110171142D01*
X166666047Y-110171142D01*
X166856523Y-110123523D01*
X166951761Y-110028285D01*
X166999380Y-109933047D01*
X166999380Y-109742571D01*
X166951761Y-109647333D01*
X166856523Y-109552095D01*
X166666047Y-109504476D01*
X166332714Y-109504476D01*
X166142238Y-109552095D01*
X166046999Y-109647333D01*
X165999380Y-109742571D01*
X166999380Y-110599714D02*
X165999380Y-110599714D01*
X166713666Y-110933047D01*
X165999380Y-111266380D01*
X166999380Y-111266380D01*
X168126571Y-98099571D02*
X168126571Y-98432904D01*
X168650380Y-98575761D02*
X168650380Y-98099571D01*
X167650380Y-98099571D01*
X167650380Y-98575761D01*
X168602761Y-98956714D02*
X168650380Y-99051952D01*
X168650380Y-99242428D01*
X168602761Y-99337666D01*
X168507523Y-99385285D01*
X168459904Y-99385285D01*
X168364666Y-99337666D01*
X168317047Y-99242428D01*
X168317047Y-99099571D01*
X168269428Y-99004333D01*
X168174190Y-98956714D01*
X168126571Y-98956714D01*
X168031333Y-99004333D01*
X167983714Y-99099571D01*
X167983714Y-99242428D01*
X168031333Y-99337666D01*
X167983714Y-99813857D02*
X168983714Y-99813857D01*
X168031333Y-99813857D02*
X167983714Y-99909095D01*
X167983714Y-100099571D01*
X168031333Y-100194809D01*
X168078952Y-100242428D01*
X168174190Y-100290047D01*
X168459904Y-100290047D01*
X168555142Y-100242428D01*
X168602761Y-100194809D01*
X168650380Y-100099571D01*
X168650380Y-99909095D01*
X168602761Y-99813857D01*
X168650380Y-100718619D02*
X167983714Y-100718619D01*
X168174190Y-100718619D02*
X168078952Y-100766238D01*
X168031333Y-100813857D01*
X167983714Y-100909095D01*
X167983714Y-101004333D01*
X168602761Y-101718619D02*
X168650380Y-101623380D01*
X168650380Y-101432904D01*
X168602761Y-101337666D01*
X168507523Y-101290047D01*
X168126571Y-101290047D01*
X168031333Y-101337666D01*
X167983714Y-101432904D01*
X167983714Y-101623380D01*
X168031333Y-101718619D01*
X168126571Y-101766238D01*
X168221809Y-101766238D01*
X168317047Y-101290047D01*
X168602761Y-102147190D02*
X168650380Y-102242428D01*
X168650380Y-102432904D01*
X168602761Y-102528142D01*
X168507523Y-102575761D01*
X168459904Y-102575761D01*
X168364666Y-102528142D01*
X168317047Y-102432904D01*
X168317047Y-102290047D01*
X168269428Y-102194809D01*
X168174190Y-102147190D01*
X168126571Y-102147190D01*
X168031333Y-102194809D01*
X167983714Y-102290047D01*
X167983714Y-102432904D01*
X168031333Y-102528142D01*
X168602761Y-102956714D02*
X168650380Y-103051952D01*
X168650380Y-103242428D01*
X168602761Y-103337666D01*
X168507523Y-103385285D01*
X168459904Y-103385285D01*
X168364666Y-103337666D01*
X168317047Y-103242428D01*
X168317047Y-103099571D01*
X168269428Y-103004333D01*
X168174190Y-102956714D01*
X168126571Y-102956714D01*
X168031333Y-103004333D01*
X167983714Y-103099571D01*
X167983714Y-103242428D01*
X168031333Y-103337666D01*
X168650380Y-103813857D02*
X167983714Y-103813857D01*
X167650380Y-103813857D02*
X167698000Y-103766238D01*
X167745619Y-103813857D01*
X167698000Y-103861476D01*
X167650380Y-103813857D01*
X167745619Y-103813857D01*
X167983714Y-104147190D02*
X167983714Y-104528142D01*
X168650380Y-104290047D02*
X167793238Y-104290047D01*
X167698000Y-104337666D01*
X167650380Y-104432904D01*
X167650380Y-104528142D01*
X168602761Y-105575761D02*
X168650380Y-105718619D01*
X168650380Y-105956714D01*
X168602761Y-106051952D01*
X168555142Y-106099571D01*
X168459904Y-106147190D01*
X168364666Y-106147190D01*
X168269428Y-106099571D01*
X168221809Y-106051952D01*
X168174190Y-105956714D01*
X168126571Y-105766238D01*
X168078952Y-105671000D01*
X168031333Y-105623380D01*
X167936095Y-105575761D01*
X167840857Y-105575761D01*
X167745619Y-105623380D01*
X167697999Y-105671000D01*
X167650380Y-105766238D01*
X167650380Y-106004333D01*
X167697999Y-106147190D01*
X167983714Y-106480523D02*
X168650380Y-106718619D01*
X167983714Y-106956714D02*
X168650380Y-106718619D01*
X168888476Y-106623380D01*
X168936095Y-106575761D01*
X168983714Y-106480523D01*
X168602761Y-107290047D02*
X168650380Y-107385285D01*
X168650380Y-107575761D01*
X168602761Y-107671000D01*
X168507523Y-107718619D01*
X168459904Y-107718619D01*
X168364666Y-107671000D01*
X168317047Y-107575761D01*
X168317047Y-107432904D01*
X168269428Y-107337666D01*
X168174190Y-107290047D01*
X168126571Y-107290047D01*
X168031333Y-107337666D01*
X167983714Y-107432904D01*
X167983714Y-107575761D01*
X168031333Y-107671000D01*
X167983714Y-108004333D02*
X167983714Y-108385285D01*
X167650380Y-108147190D02*
X168507523Y-108147190D01*
X168602761Y-108194809D01*
X168650380Y-108290047D01*
X168650380Y-108385285D01*
X168602761Y-109099571D02*
X168650380Y-109004333D01*
X168650380Y-108813857D01*
X168602761Y-108718619D01*
X168507523Y-108671000D01*
X168126571Y-108671000D01*
X168031333Y-108718619D01*
X167983714Y-108813857D01*
X167983714Y-109004333D01*
X168031333Y-109099571D01*
X168126571Y-109147190D01*
X168221809Y-109147190D01*
X168317047Y-108671000D01*
X168650380Y-109575761D02*
X167983714Y-109575761D01*
X168078952Y-109575761D02*
X168031333Y-109623380D01*
X167983714Y-109718619D01*
X167983714Y-109861476D01*
X168031333Y-109956714D01*
X168126571Y-110004333D01*
X168650380Y-110004333D01*
X168126571Y-110004333D02*
X168031333Y-110051952D01*
X167983714Y-110147190D01*
X167983714Y-110290047D01*
X168031333Y-110385285D01*
X168126571Y-110432904D01*
X168650380Y-110432904D01*
X168602761Y-110861476D02*
X168650380Y-110956714D01*
X168650380Y-111147190D01*
X168602761Y-111242428D01*
X168507523Y-111290047D01*
X168459904Y-111290047D01*
X168364666Y-111242428D01*
X168317047Y-111147190D01*
X168317047Y-111004333D01*
X168269428Y-110909095D01*
X168174190Y-110861476D01*
X168126571Y-110861476D01*
X168031333Y-110909095D01*
X167983714Y-111004333D01*
X167983714Y-111147190D01*
X168031333Y-111242428D01*
G04 #@! TD*
M02*
