G04 #@! TF.GenerationSoftware,KiCad,Pcbnew,(5.0.0)*
G04 #@! TF.CreationDate,2022-12-05T21:19:23-03:00*
G04 #@! TF.ProjectId,Projeto final,50726F6A65746F2066696E616C2E6B69,rev?*
G04 #@! TF.SameCoordinates,Original*
G04 #@! TF.FileFunction,Legend,Top*
G04 #@! TF.FilePolarity,Positive*
%FSLAX46Y46*%
G04 Gerber Fmt 4.6, Leading zero omitted, Abs format (unit mm)*
G04 Created by KiCad (PCBNEW (5.0.0)) date 12/05/22 21:19:23*
%MOMM*%
%LPD*%
G01*
G04 APERTURE LIST*
%ADD10C,0.120000*%
%ADD11C,0.150000*%
G04 APERTURE END LIST*
D10*
G04 #@! TO.C,C1*
X140600000Y-80430000D02*
G75*
G03X140600000Y-80430000I-2120000J0D01*
G01*
X136400000Y-80430000D02*
X140560000Y-80430000D01*
X136400000Y-80390000D02*
X140560000Y-80390000D01*
X136401000Y-80350000D02*
X140559000Y-80350000D01*
X136403000Y-80310000D02*
X140557000Y-80310000D01*
X136406000Y-80270000D02*
X140554000Y-80270000D01*
X136409000Y-80230000D02*
X137640000Y-80230000D01*
X139320000Y-80230000D02*
X140551000Y-80230000D01*
X136413000Y-80190000D02*
X137640000Y-80190000D01*
X139320000Y-80190000D02*
X140547000Y-80190000D01*
X136418000Y-80150000D02*
X137640000Y-80150000D01*
X139320000Y-80150000D02*
X140542000Y-80150000D01*
X136424000Y-80110000D02*
X137640000Y-80110000D01*
X139320000Y-80110000D02*
X140536000Y-80110000D01*
X136430000Y-80070000D02*
X137640000Y-80070000D01*
X139320000Y-80070000D02*
X140530000Y-80070000D01*
X136438000Y-80030000D02*
X137640000Y-80030000D01*
X139320000Y-80030000D02*
X140522000Y-80030000D01*
X136446000Y-79990000D02*
X137640000Y-79990000D01*
X139320000Y-79990000D02*
X140514000Y-79990000D01*
X136455000Y-79950000D02*
X137640000Y-79950000D01*
X139320000Y-79950000D02*
X140505000Y-79950000D01*
X136464000Y-79910000D02*
X137640000Y-79910000D01*
X139320000Y-79910000D02*
X140496000Y-79910000D01*
X136475000Y-79870000D02*
X137640000Y-79870000D01*
X139320000Y-79870000D02*
X140485000Y-79870000D01*
X136486000Y-79830000D02*
X137640000Y-79830000D01*
X139320000Y-79830000D02*
X140474000Y-79830000D01*
X136498000Y-79790000D02*
X137640000Y-79790000D01*
X139320000Y-79790000D02*
X140462000Y-79790000D01*
X136512000Y-79750000D02*
X137640000Y-79750000D01*
X139320000Y-79750000D02*
X140448000Y-79750000D01*
X136526000Y-79709000D02*
X137640000Y-79709000D01*
X139320000Y-79709000D02*
X140434000Y-79709000D01*
X136540000Y-79669000D02*
X137640000Y-79669000D01*
X139320000Y-79669000D02*
X140420000Y-79669000D01*
X136556000Y-79629000D02*
X137640000Y-79629000D01*
X139320000Y-79629000D02*
X140404000Y-79629000D01*
X136573000Y-79589000D02*
X137640000Y-79589000D01*
X139320000Y-79589000D02*
X140387000Y-79589000D01*
X136591000Y-79549000D02*
X137640000Y-79549000D01*
X139320000Y-79549000D02*
X140369000Y-79549000D01*
X136610000Y-79509000D02*
X137640000Y-79509000D01*
X139320000Y-79509000D02*
X140350000Y-79509000D01*
X136629000Y-79469000D02*
X137640000Y-79469000D01*
X139320000Y-79469000D02*
X140331000Y-79469000D01*
X136650000Y-79429000D02*
X137640000Y-79429000D01*
X139320000Y-79429000D02*
X140310000Y-79429000D01*
X136672000Y-79389000D02*
X137640000Y-79389000D01*
X139320000Y-79389000D02*
X140288000Y-79389000D01*
X136695000Y-79349000D02*
X137640000Y-79349000D01*
X139320000Y-79349000D02*
X140265000Y-79349000D01*
X136720000Y-79309000D02*
X137640000Y-79309000D01*
X139320000Y-79309000D02*
X140240000Y-79309000D01*
X136745000Y-79269000D02*
X137640000Y-79269000D01*
X139320000Y-79269000D02*
X140215000Y-79269000D01*
X136772000Y-79229000D02*
X137640000Y-79229000D01*
X139320000Y-79229000D02*
X140188000Y-79229000D01*
X136800000Y-79189000D02*
X137640000Y-79189000D01*
X139320000Y-79189000D02*
X140160000Y-79189000D01*
X136830000Y-79149000D02*
X137640000Y-79149000D01*
X139320000Y-79149000D02*
X140130000Y-79149000D01*
X136861000Y-79109000D02*
X137640000Y-79109000D01*
X139320000Y-79109000D02*
X140099000Y-79109000D01*
X136893000Y-79069000D02*
X137640000Y-79069000D01*
X139320000Y-79069000D02*
X140067000Y-79069000D01*
X136928000Y-79029000D02*
X137640000Y-79029000D01*
X139320000Y-79029000D02*
X140032000Y-79029000D01*
X136964000Y-78989000D02*
X137640000Y-78989000D01*
X139320000Y-78989000D02*
X139996000Y-78989000D01*
X137002000Y-78949000D02*
X137640000Y-78949000D01*
X139320000Y-78949000D02*
X139958000Y-78949000D01*
X137042000Y-78909000D02*
X137640000Y-78909000D01*
X139320000Y-78909000D02*
X139918000Y-78909000D01*
X137084000Y-78869000D02*
X137640000Y-78869000D01*
X139320000Y-78869000D02*
X139876000Y-78869000D01*
X137129000Y-78829000D02*
X137640000Y-78829000D01*
X139320000Y-78829000D02*
X139831000Y-78829000D01*
X137176000Y-78789000D02*
X137640000Y-78789000D01*
X139320000Y-78789000D02*
X139784000Y-78789000D01*
X137226000Y-78749000D02*
X137640000Y-78749000D01*
X139320000Y-78749000D02*
X139734000Y-78749000D01*
X137280000Y-78709000D02*
X137640000Y-78709000D01*
X139320000Y-78709000D02*
X139680000Y-78709000D01*
X137338000Y-78669000D02*
X137640000Y-78669000D01*
X139320000Y-78669000D02*
X139622000Y-78669000D01*
X137400000Y-78629000D02*
X137640000Y-78629000D01*
X139320000Y-78629000D02*
X139560000Y-78629000D01*
X137467000Y-78589000D02*
X139493000Y-78589000D01*
X137540000Y-78549000D02*
X139420000Y-78549000D01*
X137621000Y-78509000D02*
X139339000Y-78509000D01*
X137712000Y-78469000D02*
X139248000Y-78469000D01*
X137816000Y-78429000D02*
X139144000Y-78429000D01*
X137943000Y-78389000D02*
X139017000Y-78389000D01*
X138110000Y-78349000D02*
X138850000Y-78349000D01*
X137285000Y-82699801D02*
X137285000Y-82299801D01*
X137085000Y-82499801D02*
X137485000Y-82499801D01*
G04 #@! TO.C,C2*
X145030199Y-92735000D02*
X145030199Y-93135000D01*
X144830199Y-92935000D02*
X145230199Y-92935000D01*
X149181000Y-93760000D02*
X149181000Y-94500000D01*
X149141000Y-93593000D02*
X149141000Y-94667000D01*
X149101000Y-93466000D02*
X149101000Y-94794000D01*
X149061000Y-93362000D02*
X149061000Y-94898000D01*
X149021000Y-93271000D02*
X149021000Y-94989000D01*
X148981000Y-93190000D02*
X148981000Y-95070000D01*
X148941000Y-93117000D02*
X148941000Y-95143000D01*
X148901000Y-94970000D02*
X148901000Y-95210000D01*
X148901000Y-93050000D02*
X148901000Y-93290000D01*
X148861000Y-94970000D02*
X148861000Y-95272000D01*
X148861000Y-92988000D02*
X148861000Y-93290000D01*
X148821000Y-94970000D02*
X148821000Y-95330000D01*
X148821000Y-92930000D02*
X148821000Y-93290000D01*
X148781000Y-94970000D02*
X148781000Y-95384000D01*
X148781000Y-92876000D02*
X148781000Y-93290000D01*
X148741000Y-94970000D02*
X148741000Y-95434000D01*
X148741000Y-92826000D02*
X148741000Y-93290000D01*
X148701000Y-94970000D02*
X148701000Y-95481000D01*
X148701000Y-92779000D02*
X148701000Y-93290000D01*
X148661000Y-94970000D02*
X148661000Y-95526000D01*
X148661000Y-92734000D02*
X148661000Y-93290000D01*
X148621000Y-94970000D02*
X148621000Y-95568000D01*
X148621000Y-92692000D02*
X148621000Y-93290000D01*
X148581000Y-94970000D02*
X148581000Y-95608000D01*
X148581000Y-92652000D02*
X148581000Y-93290000D01*
X148541000Y-94970000D02*
X148541000Y-95646000D01*
X148541000Y-92614000D02*
X148541000Y-93290000D01*
X148501000Y-94970000D02*
X148501000Y-95682000D01*
X148501000Y-92578000D02*
X148501000Y-93290000D01*
X148461000Y-94970000D02*
X148461000Y-95717000D01*
X148461000Y-92543000D02*
X148461000Y-93290000D01*
X148421000Y-94970000D02*
X148421000Y-95749000D01*
X148421000Y-92511000D02*
X148421000Y-93290000D01*
X148381000Y-94970000D02*
X148381000Y-95780000D01*
X148381000Y-92480000D02*
X148381000Y-93290000D01*
X148341000Y-94970000D02*
X148341000Y-95810000D01*
X148341000Y-92450000D02*
X148341000Y-93290000D01*
X148301000Y-94970000D02*
X148301000Y-95838000D01*
X148301000Y-92422000D02*
X148301000Y-93290000D01*
X148261000Y-94970000D02*
X148261000Y-95865000D01*
X148261000Y-92395000D02*
X148261000Y-93290000D01*
X148221000Y-94970000D02*
X148221000Y-95890000D01*
X148221000Y-92370000D02*
X148221000Y-93290000D01*
X148181000Y-94970000D02*
X148181000Y-95915000D01*
X148181000Y-92345000D02*
X148181000Y-93290000D01*
X148141000Y-94970000D02*
X148141000Y-95938000D01*
X148141000Y-92322000D02*
X148141000Y-93290000D01*
X148101000Y-94970000D02*
X148101000Y-95960000D01*
X148101000Y-92300000D02*
X148101000Y-93290000D01*
X148061000Y-94970000D02*
X148061000Y-95981000D01*
X148061000Y-92279000D02*
X148061000Y-93290000D01*
X148021000Y-94970000D02*
X148021000Y-96000000D01*
X148021000Y-92260000D02*
X148021000Y-93290000D01*
X147981000Y-94970000D02*
X147981000Y-96019000D01*
X147981000Y-92241000D02*
X147981000Y-93290000D01*
X147941000Y-94970000D02*
X147941000Y-96037000D01*
X147941000Y-92223000D02*
X147941000Y-93290000D01*
X147901000Y-94970000D02*
X147901000Y-96054000D01*
X147901000Y-92206000D02*
X147901000Y-93290000D01*
X147861000Y-94970000D02*
X147861000Y-96070000D01*
X147861000Y-92190000D02*
X147861000Y-93290000D01*
X147821000Y-94970000D02*
X147821000Y-96084000D01*
X147821000Y-92176000D02*
X147821000Y-93290000D01*
X147780000Y-94970000D02*
X147780000Y-96098000D01*
X147780000Y-92162000D02*
X147780000Y-93290000D01*
X147740000Y-94970000D02*
X147740000Y-96112000D01*
X147740000Y-92148000D02*
X147740000Y-93290000D01*
X147700000Y-94970000D02*
X147700000Y-96124000D01*
X147700000Y-92136000D02*
X147700000Y-93290000D01*
X147660000Y-94970000D02*
X147660000Y-96135000D01*
X147660000Y-92125000D02*
X147660000Y-93290000D01*
X147620000Y-94970000D02*
X147620000Y-96146000D01*
X147620000Y-92114000D02*
X147620000Y-93290000D01*
X147580000Y-94970000D02*
X147580000Y-96155000D01*
X147580000Y-92105000D02*
X147580000Y-93290000D01*
X147540000Y-94970000D02*
X147540000Y-96164000D01*
X147540000Y-92096000D02*
X147540000Y-93290000D01*
X147500000Y-94970000D02*
X147500000Y-96172000D01*
X147500000Y-92088000D02*
X147500000Y-93290000D01*
X147460000Y-94970000D02*
X147460000Y-96180000D01*
X147460000Y-92080000D02*
X147460000Y-93290000D01*
X147420000Y-94970000D02*
X147420000Y-96186000D01*
X147420000Y-92074000D02*
X147420000Y-93290000D01*
X147380000Y-94970000D02*
X147380000Y-96192000D01*
X147380000Y-92068000D02*
X147380000Y-93290000D01*
X147340000Y-94970000D02*
X147340000Y-96197000D01*
X147340000Y-92063000D02*
X147340000Y-93290000D01*
X147300000Y-94970000D02*
X147300000Y-96201000D01*
X147300000Y-92059000D02*
X147300000Y-93290000D01*
X147260000Y-92056000D02*
X147260000Y-96204000D01*
X147220000Y-92053000D02*
X147220000Y-96207000D01*
X147180000Y-92051000D02*
X147180000Y-96209000D01*
X147140000Y-92050000D02*
X147140000Y-96210000D01*
X147100000Y-92050000D02*
X147100000Y-96210000D01*
X149220000Y-94130000D02*
G75*
G03X149220000Y-94130000I-2120000J0D01*
G01*
G04 #@! TO.C,D1*
X127035660Y-92860000D02*
G75*
G03X127035660Y-92860000I-1255660J0D01*
G01*
X127035660Y-92860000D02*
X129810000Y-92860000D01*
G04 #@! TO.C,D2*
X132115660Y-89050000D02*
G75*
G03X132115660Y-89050000I-1255660J0D01*
G01*
X129604340Y-89050000D02*
X126830000Y-89050000D01*
G04 #@! TO.C,D3*
X127035660Y-85240000D02*
X129810000Y-85240000D01*
X127035660Y-85240000D02*
G75*
G03X127035660Y-85240000I-1255660J0D01*
G01*
G04 #@! TO.C,D4*
X129604340Y-81430000D02*
X126830000Y-81430000D01*
X132115660Y-81430000D02*
G75*
G03X132115660Y-81430000I-1255660J0D01*
G01*
G04 #@! TO.C,J1*
X110600000Y-83970000D02*
X107940000Y-83970000D01*
X110600000Y-83970000D02*
X110600000Y-81370000D01*
X110600000Y-81370000D02*
X107940000Y-81370000D01*
X107940000Y-83970000D02*
X107940000Y-81370000D01*
X107940000Y-86570000D02*
X107940000Y-85240000D01*
X109270000Y-86570000D02*
X107940000Y-86570000D01*
G04 #@! TO.C,J2*
X124450000Y-122070000D02*
X124450000Y-120740000D01*
X124450000Y-120740000D02*
X125780000Y-120740000D01*
X127050000Y-120740000D02*
X129650000Y-120740000D01*
X129650000Y-123400000D02*
X129650000Y-120740000D01*
X127050000Y-123400000D02*
X129650000Y-123400000D01*
X127050000Y-123400000D02*
X127050000Y-120740000D01*
G04 #@! TO.C,J4*
X154280000Y-82125000D02*
X154280000Y-81824493D01*
X154280000Y-81035507D02*
X154280000Y-80735000D01*
X151405000Y-82125000D02*
X154280000Y-82125000D01*
X151405000Y-80735000D02*
X154280000Y-80735000D01*
X151405000Y-82125000D02*
X151405000Y-82038276D01*
X151405000Y-80821724D02*
X151405000Y-80735000D01*
X150720000Y-82125000D02*
X150035000Y-82125000D01*
X150035000Y-82125000D02*
X150035000Y-81430000D01*
G04 #@! TO.C,T1*
X118753567Y-88200000D02*
G75*
G03X118753567Y-88200000I-1403567J0D01*
G01*
X121951087Y-88200000D02*
G75*
G03X121951087Y-88200000I-4601087J0D01*
G01*
G04 #@! TO.C,U0*
X135030000Y-91290000D02*
X135030000Y-92790000D01*
X135030000Y-92790000D02*
X135300000Y-92790000D01*
X135300000Y-92790000D02*
X135300000Y-95620000D01*
X141930000Y-91290000D02*
X141930000Y-92790000D01*
X141930000Y-92790000D02*
X141660000Y-92790000D01*
X141660000Y-92790000D02*
X141660000Y-93890000D01*
D11*
G04 #@! TO.C,U1*
X135905000Y-103825000D02*
X135955000Y-103825000D01*
X135905000Y-99675000D02*
X136050000Y-99675000D01*
X141055000Y-99675000D02*
X140910000Y-99675000D01*
X141055000Y-103825000D02*
X140910000Y-103825000D01*
X135905000Y-103825000D02*
X135905000Y-99675000D01*
X141055000Y-103825000D02*
X141055000Y-99675000D01*
X135955000Y-103825000D02*
X135955000Y-105225000D01*
D10*
G04 #@! TO.C,U4*
X128215000Y-97555000D02*
X129315000Y-97555000D01*
X128215000Y-97285000D02*
X128215000Y-97555000D01*
X126715000Y-97285000D02*
X128215000Y-97285000D01*
X128215000Y-103915000D02*
X131045000Y-103915000D01*
X128215000Y-104185000D02*
X128215000Y-103915000D01*
X126715000Y-104185000D02*
X128215000Y-104185000D01*
G04 #@! TO.C,U5*
X118100000Y-110910000D02*
G75*
G02X118100000Y-112910000I0J-1000000D01*
G01*
X118100000Y-112910000D02*
X118100000Y-114560000D01*
X118100000Y-114560000D02*
X138540000Y-114560000D01*
X138540000Y-114560000D02*
X138540000Y-109260000D01*
X138540000Y-109260000D02*
X118100000Y-109260000D01*
X118100000Y-109260000D02*
X118100000Y-110910000D01*
G04 #@! TO.C,C1*
D11*
X135587142Y-80596666D02*
X135634761Y-80644285D01*
X135682380Y-80787142D01*
X135682380Y-80882380D01*
X135634761Y-81025238D01*
X135539523Y-81120476D01*
X135444285Y-81168095D01*
X135253809Y-81215714D01*
X135110952Y-81215714D01*
X134920476Y-81168095D01*
X134825238Y-81120476D01*
X134729999Y-81025238D01*
X134682380Y-80882380D01*
X134682380Y-80787142D01*
X134729999Y-80644285D01*
X134777619Y-80596666D01*
X135682380Y-79644285D02*
X135682380Y-80215714D01*
X135682380Y-79930000D02*
X134682380Y-79930000D01*
X134825238Y-80025238D01*
X134920476Y-80120476D01*
X134968095Y-80215714D01*
G04 #@! TO.C,C2*
X146933333Y-91237142D02*
X146885714Y-91284761D01*
X146742857Y-91332380D01*
X146647619Y-91332380D01*
X146504761Y-91284761D01*
X146409523Y-91189523D01*
X146361904Y-91094285D01*
X146314285Y-90903809D01*
X146314285Y-90760952D01*
X146361904Y-90570476D01*
X146409523Y-90475238D01*
X146504761Y-90380000D01*
X146647619Y-90332380D01*
X146742857Y-90332380D01*
X146885714Y-90380000D01*
X146933333Y-90427619D01*
X147314285Y-90427619D02*
X147361904Y-90380000D01*
X147457142Y-90332380D01*
X147695238Y-90332380D01*
X147790476Y-90380000D01*
X147838095Y-90427619D01*
X147885714Y-90522857D01*
X147885714Y-90618095D01*
X147838095Y-90760952D01*
X147266666Y-91332380D01*
X147885714Y-91332380D01*
G04 #@! TO.C,D1*
X127581904Y-95568040D02*
X127581904Y-94568040D01*
X127819999Y-94568040D01*
X127962857Y-94615660D01*
X128058095Y-94710898D01*
X128105714Y-94806136D01*
X128153333Y-94996612D01*
X128153333Y-95139469D01*
X128105714Y-95329945D01*
X128058095Y-95425183D01*
X127962857Y-95520421D01*
X127819999Y-95568040D01*
X127581904Y-95568040D01*
X129105714Y-95568040D02*
X128534285Y-95568040D01*
X128819999Y-95568040D02*
X128819999Y-94568040D01*
X128724761Y-94710898D01*
X128629523Y-94806136D01*
X128534285Y-94853755D01*
X129148095Y-92562380D02*
X129148095Y-91562380D01*
X129719523Y-92562380D02*
X129290952Y-91990952D01*
X129719523Y-91562380D02*
X129148095Y-92133809D01*
G04 #@! TO.C,D2*
X132661904Y-89502380D02*
X132661904Y-88502380D01*
X132899999Y-88502380D01*
X133042857Y-88550000D01*
X133138095Y-88645238D01*
X133185714Y-88740476D01*
X133233333Y-88930952D01*
X133233333Y-89073809D01*
X133185714Y-89264285D01*
X133138095Y-89359523D01*
X133042857Y-89454761D01*
X132899999Y-89502380D01*
X132661904Y-89502380D01*
X133614285Y-88597619D02*
X133661904Y-88550000D01*
X133757142Y-88502380D01*
X133995238Y-88502380D01*
X134090476Y-88550000D01*
X134138095Y-88597619D01*
X134185714Y-88692857D01*
X134185714Y-88788095D01*
X134138095Y-88930952D01*
X133566666Y-89502380D01*
X134185714Y-89502380D01*
X126968095Y-90252380D02*
X126968095Y-89252380D01*
X127539523Y-90252380D02*
X127110952Y-89680952D01*
X127539523Y-89252380D02*
X126968095Y-89823809D01*
G04 #@! TO.C,D3*
X132661904Y-85692380D02*
X132661904Y-84692380D01*
X132899999Y-84692380D01*
X133042857Y-84740000D01*
X133138095Y-84835238D01*
X133185714Y-84930476D01*
X133233333Y-85120952D01*
X133233333Y-85263809D01*
X133185714Y-85454285D01*
X133138095Y-85549523D01*
X133042857Y-85644761D01*
X132899999Y-85692380D01*
X132661904Y-85692380D01*
X133566666Y-84692380D02*
X134185714Y-84692380D01*
X133852380Y-85073333D01*
X133995238Y-85073333D01*
X134090476Y-85120952D01*
X134138095Y-85168571D01*
X134185714Y-85263809D01*
X134185714Y-85501904D01*
X134138095Y-85597142D01*
X134090476Y-85644761D01*
X133995238Y-85692380D01*
X133709523Y-85692380D01*
X133614285Y-85644761D01*
X133566666Y-85597142D01*
X129148095Y-84942380D02*
X129148095Y-83942380D01*
X129719523Y-84942380D02*
X129290952Y-84370952D01*
X129719523Y-83942380D02*
X129148095Y-84513809D01*
G04 #@! TO.C,D4*
X132661904Y-81882380D02*
X132661904Y-80882380D01*
X132899999Y-80882380D01*
X133042857Y-80930000D01*
X133138095Y-81025238D01*
X133185714Y-81120476D01*
X133233333Y-81310952D01*
X133233333Y-81453809D01*
X133185714Y-81644285D01*
X133138095Y-81739523D01*
X133042857Y-81834761D01*
X132899999Y-81882380D01*
X132661904Y-81882380D01*
X134090476Y-81215714D02*
X134090476Y-81882380D01*
X133852380Y-80834761D02*
X133614285Y-81549047D01*
X134233333Y-81549047D01*
X126968095Y-82632380D02*
X126968095Y-81632380D01*
X127539523Y-82632380D02*
X127110952Y-82060952D01*
X127539523Y-81632380D02*
X126968095Y-82203809D01*
G04 #@! TO.C,J1*
X108936666Y-87462380D02*
X108936666Y-88176666D01*
X108889047Y-88319523D01*
X108793809Y-88414761D01*
X108650952Y-88462380D01*
X108555714Y-88462380D01*
X109936666Y-88462380D02*
X109365238Y-88462380D01*
X109650952Y-88462380D02*
X109650952Y-87462380D01*
X109555714Y-87605238D01*
X109460476Y-87700476D01*
X109365238Y-87748095D01*
G04 #@! TO.C,J2*
X122462380Y-122403333D02*
X123176666Y-122403333D01*
X123319523Y-122450952D01*
X123414761Y-122546190D01*
X123462380Y-122689047D01*
X123462380Y-122784285D01*
X122557619Y-121974761D02*
X122510000Y-121927142D01*
X122462380Y-121831904D01*
X122462380Y-121593809D01*
X122510000Y-121498571D01*
X122557619Y-121450952D01*
X122652857Y-121403333D01*
X122748095Y-121403333D01*
X122890952Y-121450952D01*
X123462380Y-122022380D01*
X123462380Y-121403333D01*
G04 #@! TO.C,J4*
X148612380Y-81763333D02*
X149326666Y-81763333D01*
X149469523Y-81810952D01*
X149564761Y-81906190D01*
X149612380Y-82049047D01*
X149612380Y-82144285D01*
X148945714Y-80858571D02*
X149612380Y-80858571D01*
X148564761Y-81096666D02*
X149279047Y-81334761D01*
X149279047Y-80715714D01*
G04 #@! TO.C,T1*
X122302380Y-88961904D02*
X122302380Y-88390476D01*
X123302380Y-88676190D02*
X122302380Y-88676190D01*
X123302380Y-87533333D02*
X123302380Y-88104761D01*
X123302380Y-87819047D02*
X122302380Y-87819047D01*
X122445238Y-87914285D01*
X122540476Y-88009523D01*
X122588095Y-88104761D01*
G04 #@! TO.C,U0*
X133432380Y-91081904D02*
X134241904Y-91081904D01*
X134337142Y-91034285D01*
X134384761Y-90986666D01*
X134432380Y-90891428D01*
X134432380Y-90700952D01*
X134384761Y-90605714D01*
X134337142Y-90558095D01*
X134241904Y-90510476D01*
X133432380Y-90510476D01*
X133432380Y-89843809D02*
X133432380Y-89748571D01*
X133480000Y-89653333D01*
X133527619Y-89605714D01*
X133622857Y-89558095D01*
X133813333Y-89510476D01*
X134051428Y-89510476D01*
X134241904Y-89558095D01*
X134337142Y-89605714D01*
X134384761Y-89653333D01*
X134432380Y-89748571D01*
X134432380Y-89843809D01*
X134384761Y-89939047D01*
X134337142Y-89986666D01*
X134241904Y-90034285D01*
X134051428Y-90081904D01*
X133813333Y-90081904D01*
X133622857Y-90034285D01*
X133527619Y-89986666D01*
X133480000Y-89939047D01*
X133432380Y-89843809D01*
G04 #@! TO.C,U1*
X134432380Y-102511904D02*
X135241904Y-102511904D01*
X135337142Y-102464285D01*
X135384761Y-102416666D01*
X135432380Y-102321428D01*
X135432380Y-102130952D01*
X135384761Y-102035714D01*
X135337142Y-101988095D01*
X135241904Y-101940476D01*
X134432380Y-101940476D01*
X135432380Y-100940476D02*
X135432380Y-101511904D01*
X135432380Y-101226190D02*
X134432380Y-101226190D01*
X134575238Y-101321428D01*
X134670476Y-101416666D01*
X134718095Y-101511904D01*
G04 #@! TO.C,U4*
X124983095Y-104687380D02*
X124983095Y-105496904D01*
X125030714Y-105592142D01*
X125078333Y-105639761D01*
X125173571Y-105687380D01*
X125364047Y-105687380D01*
X125459285Y-105639761D01*
X125506904Y-105592142D01*
X125554523Y-105496904D01*
X125554523Y-104687380D01*
X126459285Y-105020714D02*
X126459285Y-105687380D01*
X126221190Y-104639761D02*
X125983095Y-105354047D01*
X126602142Y-105354047D01*
G04 #@! TO.C,U5*
X116552380Y-112671904D02*
X117361904Y-112671904D01*
X117457142Y-112624285D01*
X117504761Y-112576666D01*
X117552380Y-112481428D01*
X117552380Y-112290952D01*
X117504761Y-112195714D01*
X117457142Y-112148095D01*
X117361904Y-112100476D01*
X116552380Y-112100476D01*
X116552380Y-111148095D02*
X116552380Y-111624285D01*
X117028571Y-111671904D01*
X116980952Y-111624285D01*
X116933333Y-111529047D01*
X116933333Y-111290952D01*
X116980952Y-111195714D01*
X117028571Y-111148095D01*
X117123809Y-111100476D01*
X117361904Y-111100476D01*
X117457142Y-111148095D01*
X117504761Y-111195714D01*
X117552380Y-111290952D01*
X117552380Y-111529047D01*
X117504761Y-111624285D01*
X117457142Y-111671904D01*
G04 #@! TD*
M02*
