%TF.GenerationSoftware,KiCad,Pcbnew,(5.0.0)*%
%TF.CreationDate,2022-12-04T20:10:29-03:00*%
%TF.ProjectId,Projeto final,50726F6A65746F2066696E616C2E6B69,rev?*%
%TF.SameCoordinates,Original*%
%TF.FileFunction,Plated,1,2,PTH,Drill*%
%TF.FilePolarity,Positive*%
%FSLAX46Y46*%
G04 Gerber Fmt 4.6, Leading zero omitted, Abs format (unit mm)*
G04 Created by KiCad (PCBNEW (5.0.0)) date 12/04/22 20:10:29*
%MOMM*%
%LPD*%
G01*
G04 APERTURE LIST*
%TA.AperFunction,ViaDrill*%
%ADD10C,0.400000*%
%TD*%
%TA.AperFunction,ComponentDrill*%
%ADD11C,0.500000*%
%TD*%
%TA.AperFunction,ComponentDrill*%
%ADD12C,0.600000*%
%TD*%
%TA.AperFunction,ComponentDrill*%
%ADD13C,0.750000*%
%TD*%
%TA.AperFunction,ComponentDrill*%
%ADD14C,0.800000*%
%TD*%
%TA.AperFunction,ComponentDrill*%
%ADD15C,1.000000*%
%TD*%
G04 APERTURE END LIST*
D10*
X143560000Y-92860000D03*
X143560000Y-99210000D03*
X148640000Y-110640000D03*
X149910000Y-93940000D03*
X152340000Y-92860000D03*
X152720000Y-88780000D03*
D11*
%TO.C,J4*%
X150720000Y-81430000D03*
X151720000Y-81430000D03*
X152720000Y-81430000D03*
X153720000Y-81430000D03*
D12*
%TO.C,C1*%
X138480000Y-79430000D03*
X138480000Y-81430000D03*
%TO.C,C2*%
X146100000Y-94130000D03*
X148100000Y-94130000D03*
D13*
%TO.C,D2*%
X125780000Y-89050000D03*
X130860000Y-89050000D03*
%TO.C,D4*%
X125780000Y-81430000D03*
X130860000Y-81430000D03*
%TO.C,D1*%
X125780000Y-92860000D03*
X130860000Y-92860000D03*
%TO.C,D3*%
X125780000Y-85240000D03*
X130860000Y-85240000D03*
D14*
%TO.C,U5*%
X119430000Y-108100000D03*
X119430000Y-115720000D03*
X121970000Y-108100000D03*
X121970000Y-115720000D03*
X124510000Y-108100000D03*
X124510000Y-115720000D03*
X127050000Y-108100000D03*
X127050000Y-115720000D03*
X129590000Y-108100000D03*
X129590000Y-115720000D03*
X132130000Y-108100000D03*
X132130000Y-115720000D03*
X134670000Y-108100000D03*
X134670000Y-115720000D03*
X137210000Y-108100000D03*
X137210000Y-115720000D03*
D15*
%TO.C,J2*%
X125780000Y-122070000D03*
X128320000Y-122070000D03*
%TO.C,J1*%
X109270000Y-82700000D03*
X109270000Y-85240000D03*
%TO.C,T1*%
X114350000Y-82700000D03*
X114350000Y-93700000D03*
X120350000Y-82700000D03*
X120350000Y-93700000D03*
M02*
