G04 #@! TF.GenerationSoftware,KiCad,Pcbnew,(5.0.0)*
G04 #@! TF.CreationDate,2022-12-05T21:19:22-03:00*
G04 #@! TF.ProjectId,Projeto final,50726F6A65746F2066696E616C2E6B69,rev?*
G04 #@! TF.SameCoordinates,Original*
G04 #@! TF.FileFunction,Copper,L2,Bot,Signal*
G04 #@! TF.FilePolarity,Positive*
%FSLAX46Y46*%
G04 Gerber Fmt 4.6, Leading zero omitted, Abs format (unit mm)*
G04 Created by KiCad (PCBNEW (5.0.0)) date 12/05/22 21:19:22*
%MOMM*%
%LPD*%
G01*
G04 APERTURE LIST*
G04 #@! TA.AperFunction,ComponentPad*
%ADD10R,1.200000X1.200000*%
G04 #@! TD*
G04 #@! TA.AperFunction,ComponentPad*
%ADD11C,1.200000*%
G04 #@! TD*
G04 #@! TA.AperFunction,ComponentPad*
%ADD12R,1.500000X1.500000*%
G04 #@! TD*
G04 #@! TA.AperFunction,ComponentPad*
%ADD13O,1.500000X1.500000*%
G04 #@! TD*
G04 #@! TA.AperFunction,ComponentPad*
%ADD14R,1.700000X1.700000*%
G04 #@! TD*
G04 #@! TA.AperFunction,ComponentPad*
%ADD15O,1.700000X1.700000*%
G04 #@! TD*
G04 #@! TA.AperFunction,ComponentPad*
%ADD16R,0.850000X0.850000*%
G04 #@! TD*
G04 #@! TA.AperFunction,ComponentPad*
%ADD17O,0.850000X0.850000*%
G04 #@! TD*
G04 #@! TA.AperFunction,ComponentPad*
%ADD18C,2.000000*%
G04 #@! TD*
G04 #@! TA.AperFunction,SMDPad,CuDef*
%ADD19R,6.000000X6.000000*%
G04 #@! TD*
G04 #@! TA.AperFunction,SMDPad,CuDef*
%ADD20O,2.500000X0.900000*%
G04 #@! TD*
G04 #@! TA.AperFunction,SMDPad,CuDef*
%ADD21O,0.900000X2.500000*%
G04 #@! TD*
G04 #@! TA.AperFunction,ComponentPad*
%ADD22R,1.600000X1.600000*%
G04 #@! TD*
G04 #@! TA.AperFunction,ComponentPad*
%ADD23O,1.600000X1.600000*%
G04 #@! TD*
G04 #@! TA.AperFunction,ViaPad*
%ADD24C,0.800000*%
G04 #@! TD*
G04 #@! TA.AperFunction,Conductor*
%ADD25C,0.250000*%
G04 #@! TD*
G04 #@! TA.AperFunction,Conductor*
%ADD26C,0.750000*%
G04 #@! TD*
G04 #@! TA.AperFunction,Conductor*
%ADD27C,0.254000*%
G04 #@! TD*
G04 APERTURE END LIST*
D10*
G04 #@! TO.P,C1,1*
G04 #@! TO.N,C1*
X138480000Y-81430000D03*
D11*
G04 #@! TO.P,C1,2*
G04 #@! TO.N,GND*
X138480000Y-79430000D03*
G04 #@! TD*
G04 #@! TO.P,C2,2*
G04 #@! TO.N,GND*
X148100000Y-94130000D03*
D10*
G04 #@! TO.P,C2,1*
G04 #@! TO.N,12V*
X146100000Y-94130000D03*
G04 #@! TD*
D12*
G04 #@! TO.P,D1,1*
G04 #@! TO.N,GND*
X130860000Y-92860000D03*
D13*
G04 #@! TO.P,D1,2*
G04 #@! TO.N,D1D2*
X125780000Y-92860000D03*
G04 #@! TD*
D12*
G04 #@! TO.P,D2,1*
G04 #@! TO.N,D1D2*
X125780000Y-89050000D03*
D13*
G04 #@! TO.P,D2,2*
G04 #@! TO.N,C1*
X130860000Y-89050000D03*
G04 #@! TD*
G04 #@! TO.P,D3,2*
G04 #@! TO.N,D3D4*
X125780000Y-85240000D03*
D12*
G04 #@! TO.P,D3,1*
G04 #@! TO.N,GND*
X130860000Y-85240000D03*
G04 #@! TD*
D13*
G04 #@! TO.P,D4,2*
G04 #@! TO.N,C1*
X130860000Y-81430000D03*
D12*
G04 #@! TO.P,D4,1*
G04 #@! TO.N,D3D4*
X125780000Y-81430000D03*
G04 #@! TD*
D14*
G04 #@! TO.P,J1,1*
G04 #@! TO.N,GND*
X109270000Y-85240000D03*
D15*
G04 #@! TO.P,J1,2*
G04 #@! TO.N,VCC-AC*
X109270000Y-82700000D03*
G04 #@! TD*
G04 #@! TO.P,J2,2*
G04 #@! TO.N,OUT-HORARIO*
X128320000Y-122070000D03*
D14*
G04 #@! TO.P,J2,1*
G04 #@! TO.N,OUT-ANTIH*
X125780000Y-122070000D03*
G04 #@! TD*
D16*
G04 #@! TO.P,J4,1*
G04 #@! TO.N,GND*
X150720000Y-81430000D03*
D17*
G04 #@! TO.P,J4,2*
G04 #@! TO.N,3.3V*
X151720000Y-81430000D03*
G04 #@! TO.P,J4,3*
G04 #@! TO.N,SDA*
X152720000Y-81430000D03*
G04 #@! TO.P,J4,4*
G04 #@! TO.N,SCL*
X153720000Y-81430000D03*
G04 #@! TD*
D18*
G04 #@! TO.P,T1,1*
G04 #@! TO.N,VCC-AC*
X114350000Y-82700000D03*
G04 #@! TO.P,T1,2*
G04 #@! TO.N,GND*
X114350000Y-93700000D03*
G04 #@! TO.P,T1,3*
G04 #@! TO.N,D3D4*
X120350000Y-82700000D03*
G04 #@! TO.P,T1,4*
G04 #@! TO.N,D1D2*
X120350000Y-93700000D03*
G04 #@! TD*
D19*
G04 #@! TO.P,U3,39*
G04 #@! TO.N,GND*
X161040000Y-103110000D03*
D20*
G04 #@! TO.P,U3,1*
X152340000Y-110810000D03*
G04 #@! TO.P,U3,2*
G04 #@! TO.N,3.3V*
X152340000Y-109540000D03*
G04 #@! TO.P,U3,3*
G04 #@! TO.N,Net-(U3-Pad3)*
X152340000Y-108270000D03*
G04 #@! TO.P,U3,4*
G04 #@! TO.N,Net-(U3-Pad4)*
X152340000Y-107000000D03*
G04 #@! TO.P,U3,5*
G04 #@! TO.N,Net-(U3-Pad5)*
X152340000Y-105730000D03*
G04 #@! TO.P,U3,6*
G04 #@! TO.N,HORARIO*
X152340000Y-104460000D03*
G04 #@! TO.P,U3,7*
G04 #@! TO.N,ANTIH*
X152340000Y-103190000D03*
G04 #@! TO.P,U3,8*
G04 #@! TO.N,Net-(U3-Pad8)*
X152340000Y-101920000D03*
G04 #@! TO.P,U3,9*
G04 #@! TO.N,Net-(U3-Pad9)*
X152340000Y-100650000D03*
G04 #@! TO.P,U3,10*
G04 #@! TO.N,Net-(U3-Pad10)*
X152340000Y-99380000D03*
G04 #@! TO.P,U3,11*
G04 #@! TO.N,Net-(U3-Pad11)*
X152340000Y-98110000D03*
G04 #@! TO.P,U3,12*
G04 #@! TO.N,Net-(U3-Pad12)*
X152340000Y-96840000D03*
G04 #@! TO.P,U3,13*
G04 #@! TO.N,SCL*
X152340000Y-95570000D03*
G04 #@! TO.P,U3,14*
G04 #@! TO.N,SDA*
X152340000Y-94300000D03*
D21*
G04 #@! TO.P,U3,15*
G04 #@! TO.N,Net-(U3-Pad15)*
X155625000Y-92810000D03*
G04 #@! TO.P,U3,16*
G04 #@! TO.N,ENABLE*
X156895000Y-92810000D03*
G04 #@! TO.P,U3,17*
G04 #@! TO.N,Net-(U3-Pad17)*
X158165000Y-92810000D03*
G04 #@! TO.P,U3,18*
G04 #@! TO.N,Net-(U3-Pad18)*
X159435000Y-92810000D03*
G04 #@! TO.P,U3,19*
G04 #@! TO.N,Net-(U3-Pad19)*
X160705000Y-92810000D03*
G04 #@! TO.P,U3,20*
G04 #@! TO.N,Net-(U3-Pad20)*
X161975000Y-92810000D03*
G04 #@! TO.P,U3,21*
G04 #@! TO.N,Net-(U3-Pad21)*
X163245000Y-92810000D03*
G04 #@! TO.P,U3,22*
G04 #@! TO.N,Net-(U3-Pad22)*
X164515000Y-92810000D03*
G04 #@! TO.P,U3,23*
G04 #@! TO.N,Net-(U3-Pad23)*
X165785000Y-92810000D03*
G04 #@! TO.P,U3,24*
G04 #@! TO.N,Net-(U3-Pad24)*
X167055000Y-92810000D03*
D20*
G04 #@! TO.P,U3,25*
G04 #@! TO.N,Net-(U3-Pad25)*
X170340000Y-94300000D03*
G04 #@! TO.P,U3,26*
G04 #@! TO.N,Net-(U3-Pad26)*
X170340000Y-95570000D03*
G04 #@! TO.P,U3,27*
G04 #@! TO.N,Net-(U3-Pad27)*
X170340000Y-96840000D03*
G04 #@! TO.P,U3,28*
G04 #@! TO.N,Net-(U3-Pad28)*
X170340000Y-98110000D03*
G04 #@! TO.P,U3,29*
G04 #@! TO.N,Net-(U3-Pad29)*
X170340000Y-99380000D03*
G04 #@! TO.P,U3,30*
G04 #@! TO.N,Net-(U3-Pad30)*
X170340000Y-100650000D03*
G04 #@! TO.P,U3,31*
G04 #@! TO.N,Net-(U3-Pad31)*
X170340000Y-101920000D03*
G04 #@! TO.P,U3,32*
G04 #@! TO.N,Net-(U3-Pad32)*
X170340000Y-103190000D03*
G04 #@! TO.P,U3,33*
G04 #@! TO.N,Net-(U3-Pad33)*
X170340000Y-104460000D03*
G04 #@! TO.P,U3,34*
G04 #@! TO.N,Net-(U3-Pad34)*
X170340000Y-105730000D03*
G04 #@! TO.P,U3,35*
G04 #@! TO.N,Net-(U3-Pad35)*
X170340000Y-107000000D03*
G04 #@! TO.P,U3,36*
G04 #@! TO.N,Net-(U3-Pad36)*
X170340000Y-108270000D03*
G04 #@! TO.P,U3,37*
G04 #@! TO.N,Net-(U3-Pad37)*
X170340000Y-109540000D03*
G04 #@! TO.P,U3,38*
G04 #@! TO.N,Net-(U3-Pad38)*
X170340000Y-110810000D03*
G04 #@! TD*
D22*
G04 #@! TO.P,U5,1*
G04 #@! TO.N,ENABLE*
X119430000Y-115720000D03*
D23*
G04 #@! TO.P,U5,9*
G04 #@! TO.N,Net-(U5-Pad9)*
X137210000Y-108100000D03*
G04 #@! TO.P,U5,2*
G04 #@! TO.N,HORARIO*
X121970000Y-115720000D03*
G04 #@! TO.P,U5,10*
G04 #@! TO.N,Net-(U5-Pad10)*
X134670000Y-108100000D03*
G04 #@! TO.P,U5,3*
G04 #@! TO.N,OUT-ANTIH*
X124510000Y-115720000D03*
G04 #@! TO.P,U5,11*
G04 #@! TO.N,Net-(U5-Pad11)*
X132130000Y-108100000D03*
G04 #@! TO.P,U5,4*
G04 #@! TO.N,GND*
X127050000Y-115720000D03*
G04 #@! TO.P,U5,12*
G04 #@! TO.N,Net-(U5-Pad12)*
X129590000Y-108100000D03*
G04 #@! TO.P,U5,5*
G04 #@! TO.N,Net-(U5-Pad5)*
X129590000Y-115720000D03*
G04 #@! TO.P,U5,13*
G04 #@! TO.N,Net-(U5-Pad13)*
X127050000Y-108100000D03*
G04 #@! TO.P,U5,6*
G04 #@! TO.N,OUT-HORARIO*
X132130000Y-115720000D03*
G04 #@! TO.P,U5,14*
G04 #@! TO.N,Net-(U5-Pad14)*
X124510000Y-108100000D03*
G04 #@! TO.P,U5,7*
G04 #@! TO.N,ANTIH*
X134670000Y-115720000D03*
G04 #@! TO.P,U5,15*
G04 #@! TO.N,Net-(U5-Pad15)*
X121970000Y-108100000D03*
G04 #@! TO.P,U5,8*
G04 #@! TO.N,12V*
X137210000Y-115720000D03*
G04 #@! TO.P,U5,16*
G04 #@! TO.N,5V*
X119430000Y-108100000D03*
G04 #@! TD*
D24*
G04 #@! TO.N,3.3V*
X148640000Y-110640000D03*
X143560000Y-99210000D03*
X143560000Y-92860000D03*
G04 #@! TO.N,SDA*
X152340000Y-92860000D03*
X152720000Y-88780000D03*
G04 #@! TO.N,SCL*
X149910000Y-93940000D03*
G04 #@! TD*
D25*
G04 #@! TO.N,3.3V*
X152340000Y-109540000D02*
X151540000Y-109540000D01*
D26*
X149740000Y-109540000D02*
X148640000Y-110640000D01*
X152340000Y-109540000D02*
X149740000Y-109540000D01*
X143560000Y-92860000D02*
X143560000Y-99210000D01*
D25*
G04 #@! TO.N,ENABLE*
X130400008Y-91234990D02*
X116890000Y-104744998D01*
X155946019Y-91234990D02*
X130400008Y-91234990D01*
X156895000Y-92810000D02*
X156895000Y-92183971D01*
X156895000Y-92183971D02*
X155946019Y-91234990D01*
X119430000Y-114670000D02*
X119430000Y-115720000D01*
X116890000Y-112130000D02*
X119430000Y-114670000D01*
X116890000Y-104744998D02*
X116890000Y-112130000D01*
G04 #@! TO.N,HORARIO*
X142290000Y-119530000D02*
X125780000Y-119530000D01*
X143560000Y-118260000D02*
X142290000Y-119530000D01*
X125780000Y-119530000D02*
X121970000Y-115720000D01*
X143560000Y-112440000D02*
X143560000Y-118260000D01*
X152340000Y-104460000D02*
X151540000Y-104460000D01*
X151540000Y-104460000D02*
X143560000Y-112440000D01*
G04 #@! TO.N,ANTIH*
X151540000Y-103190000D02*
X151370000Y-103020000D01*
X152340000Y-103190000D02*
X151540000Y-103190000D01*
X151370000Y-103020000D02*
X146100000Y-103020000D01*
X146100000Y-103020000D02*
X142290000Y-106830000D01*
X142290000Y-106830000D02*
X142290000Y-116990000D01*
X142290000Y-116990000D02*
X141020000Y-118260000D01*
X137210000Y-118260000D02*
X134670000Y-115720000D01*
X141020000Y-118260000D02*
X137210000Y-118260000D01*
G04 #@! TO.N,SDA*
X152340000Y-94300000D02*
X152340000Y-92860000D01*
X152720000Y-81430000D02*
X152720000Y-88780000D01*
X152720000Y-88780000D02*
X152720000Y-88780000D01*
G04 #@! TO.N,SCL*
X151540000Y-95570000D02*
X149910000Y-93940000D01*
X152340000Y-95570000D02*
X151540000Y-95570000D01*
X149910000Y-93940000D02*
X149910000Y-93940000D01*
G04 #@! TD*
D27*
G04 #@! TO.N,GND*
G36*
X174123000Y-124921510D02*
X105827805Y-124124483D01*
X105846383Y-121220000D01*
X124392676Y-121220000D01*
X124392676Y-122920000D01*
X124433577Y-123125625D01*
X124550055Y-123299945D01*
X124724375Y-123416423D01*
X124930000Y-123457324D01*
X126630000Y-123457324D01*
X126835625Y-123416423D01*
X127009945Y-123299945D01*
X127126423Y-123125625D01*
X127167324Y-122920000D01*
X127167324Y-122823434D01*
X127327238Y-123062762D01*
X127782721Y-123367106D01*
X128184377Y-123447000D01*
X128455623Y-123447000D01*
X128857279Y-123367106D01*
X129312762Y-123062762D01*
X129617106Y-122607279D01*
X129723977Y-122070000D01*
X129617106Y-121532721D01*
X129312762Y-121077238D01*
X128857279Y-120772894D01*
X128455623Y-120693000D01*
X128184377Y-120693000D01*
X127782721Y-120772894D01*
X127327238Y-121077238D01*
X127167324Y-121316566D01*
X127167324Y-121220000D01*
X127126423Y-121014375D01*
X127009945Y-120840055D01*
X126835625Y-120723577D01*
X126630000Y-120682676D01*
X124930000Y-120682676D01*
X124724375Y-120723577D01*
X124550055Y-120840055D01*
X124433577Y-121014375D01*
X124392676Y-121220000D01*
X105846383Y-121220000D01*
X105951766Y-104744998D01*
X116225228Y-104744998D01*
X116238000Y-104809208D01*
X116238001Y-112065785D01*
X116225228Y-112130000D01*
X116275830Y-112384397D01*
X116275831Y-112384398D01*
X116419936Y-112600065D01*
X116474373Y-112636439D01*
X118326745Y-114488812D01*
X118250055Y-114540055D01*
X118133577Y-114714375D01*
X118092676Y-114920000D01*
X118092676Y-116520000D01*
X118133577Y-116725625D01*
X118250055Y-116899945D01*
X118424375Y-117016423D01*
X118630000Y-117057324D01*
X120230000Y-117057324D01*
X120435625Y-117016423D01*
X120609945Y-116899945D01*
X120726423Y-116725625D01*
X120767324Y-116520000D01*
X120767324Y-116308604D01*
X121013287Y-116676713D01*
X121452230Y-116970006D01*
X121839304Y-117047000D01*
X122100696Y-117047000D01*
X122329435Y-117001501D01*
X125273563Y-119945631D01*
X125309935Y-120000065D01*
X125364369Y-120036437D01*
X125364372Y-120036440D01*
X125465620Y-120104091D01*
X125525602Y-120144170D01*
X125715786Y-120182000D01*
X125715790Y-120182000D01*
X125780000Y-120194772D01*
X125844210Y-120182000D01*
X142225790Y-120182000D01*
X142290000Y-120194772D01*
X142354210Y-120182000D01*
X142354214Y-120182000D01*
X142544398Y-120144170D01*
X142760065Y-120000065D01*
X142796440Y-119945626D01*
X143975628Y-118766439D01*
X144030065Y-118730065D01*
X144174170Y-118514398D01*
X144212000Y-118324214D01*
X144212000Y-118324211D01*
X144224772Y-118260001D01*
X144212000Y-118195791D01*
X144212000Y-112710066D01*
X150696261Y-106225806D01*
X150789267Y-106365000D01*
X150619687Y-106618794D01*
X150543860Y-107000000D01*
X150619687Y-107381206D01*
X150789267Y-107635000D01*
X150619687Y-107888794D01*
X150543860Y-108270000D01*
X150617060Y-108638000D01*
X149828838Y-108638000D01*
X149740000Y-108620329D01*
X149651162Y-108638000D01*
X149388057Y-108690335D01*
X149089694Y-108889694D01*
X149039371Y-108965008D01*
X148175253Y-109829127D01*
X148114897Y-109854127D01*
X147854127Y-110114897D01*
X147713000Y-110455608D01*
X147713000Y-110824392D01*
X147854127Y-111165103D01*
X148114897Y-111425873D01*
X148455608Y-111567000D01*
X148824392Y-111567000D01*
X149165103Y-111425873D01*
X149425873Y-111165103D01*
X149450873Y-111104747D01*
X149451619Y-111104001D01*
X150495592Y-111104001D01*
X150682987Y-111487408D01*
X151007456Y-111763808D01*
X151413000Y-111895000D01*
X152213000Y-111895000D01*
X152213000Y-110937000D01*
X152467000Y-110937000D01*
X152467000Y-111895000D01*
X153267000Y-111895000D01*
X153672544Y-111763808D01*
X153997013Y-111487408D01*
X154184408Y-111104001D01*
X154057502Y-110937000D01*
X152467000Y-110937000D01*
X152213000Y-110937000D01*
X150622498Y-110937000D01*
X150495592Y-111104001D01*
X149451619Y-111104001D01*
X150113621Y-110442000D01*
X150531760Y-110442000D01*
X150495592Y-110515999D01*
X150622498Y-110683000D01*
X152213000Y-110683000D01*
X152213000Y-110663000D01*
X152467000Y-110663000D01*
X152467000Y-110683000D01*
X154057502Y-110683000D01*
X154184408Y-110515999D01*
X153997013Y-110132592D01*
X153947342Y-110090279D01*
X154060313Y-109921206D01*
X154136140Y-109540000D01*
X154060313Y-109158794D01*
X153890733Y-108905000D01*
X154060313Y-108651206D01*
X154136140Y-108270000D01*
X154060313Y-107888794D01*
X153890733Y-107635000D01*
X154060313Y-107381206D01*
X154136140Y-107000000D01*
X154060313Y-106618794D01*
X153890733Y-106365000D01*
X154060313Y-106111206D01*
X154136140Y-105730000D01*
X154060313Y-105348794D01*
X153890733Y-105095000D01*
X154060313Y-104841206D01*
X154136140Y-104460000D01*
X154060313Y-104078794D01*
X153890733Y-103825000D01*
X154060313Y-103571206D01*
X154095213Y-103395750D01*
X157405000Y-103395750D01*
X157405000Y-106236310D01*
X157501673Y-106469699D01*
X157680302Y-106648327D01*
X157913691Y-106745000D01*
X160754250Y-106745000D01*
X160913000Y-106586250D01*
X160913000Y-103237000D01*
X161167000Y-103237000D01*
X161167000Y-106586250D01*
X161325750Y-106745000D01*
X164166309Y-106745000D01*
X164399698Y-106648327D01*
X164578327Y-106469699D01*
X164675000Y-106236310D01*
X164675000Y-103395750D01*
X164516250Y-103237000D01*
X161167000Y-103237000D01*
X160913000Y-103237000D01*
X157563750Y-103237000D01*
X157405000Y-103395750D01*
X154095213Y-103395750D01*
X154136140Y-103190000D01*
X154060313Y-102808794D01*
X153890733Y-102555000D01*
X154060313Y-102301206D01*
X154136140Y-101920000D01*
X154060313Y-101538794D01*
X153890733Y-101285000D01*
X154060313Y-101031206D01*
X154136140Y-100650000D01*
X154060313Y-100268794D01*
X153890733Y-100015000D01*
X153911653Y-99983690D01*
X157405000Y-99983690D01*
X157405000Y-102824250D01*
X157563750Y-102983000D01*
X160913000Y-102983000D01*
X160913000Y-99633750D01*
X161167000Y-99633750D01*
X161167000Y-102983000D01*
X164516250Y-102983000D01*
X164675000Y-102824250D01*
X164675000Y-99983690D01*
X164578327Y-99750301D01*
X164399698Y-99571673D01*
X164166309Y-99475000D01*
X161325750Y-99475000D01*
X161167000Y-99633750D01*
X160913000Y-99633750D01*
X160754250Y-99475000D01*
X157913691Y-99475000D01*
X157680302Y-99571673D01*
X157501673Y-99750301D01*
X157405000Y-99983690D01*
X153911653Y-99983690D01*
X154060313Y-99761206D01*
X154136140Y-99380000D01*
X154060313Y-98998794D01*
X153890733Y-98745000D01*
X154060313Y-98491206D01*
X154136140Y-98110000D01*
X154060313Y-97728794D01*
X153890733Y-97475000D01*
X154060313Y-97221206D01*
X154136140Y-96840000D01*
X154060313Y-96458794D01*
X153890733Y-96205000D01*
X154060313Y-95951206D01*
X154136140Y-95570000D01*
X154060313Y-95188794D01*
X153890733Y-94935000D01*
X154060313Y-94681206D01*
X154136140Y-94300000D01*
X154060313Y-93918794D01*
X153844377Y-93595623D01*
X153521206Y-93379687D01*
X153236223Y-93323000D01*
X153151597Y-93323000D01*
X153267000Y-93044392D01*
X153267000Y-92675608D01*
X153125873Y-92334897D01*
X152865103Y-92074127D01*
X152524392Y-91933000D01*
X152155608Y-91933000D01*
X151814897Y-92074127D01*
X151554127Y-92334897D01*
X151413000Y-92675608D01*
X151413000Y-93044392D01*
X151528403Y-93323000D01*
X151443777Y-93323000D01*
X151158794Y-93379687D01*
X150835623Y-93595623D01*
X150795565Y-93655574D01*
X150695873Y-93414897D01*
X150435103Y-93154127D01*
X150094392Y-93013000D01*
X149725608Y-93013000D01*
X149384897Y-93154127D01*
X149124127Y-93414897D01*
X149098529Y-93476696D01*
X148962735Y-93446870D01*
X148279605Y-94130000D01*
X148962735Y-94813130D01*
X149188164Y-94763617D01*
X149248124Y-94589100D01*
X149384897Y-94725873D01*
X149725608Y-94867000D01*
X149914934Y-94867000D01*
X150556150Y-95508216D01*
X150543860Y-95570000D01*
X150619687Y-95951206D01*
X150789267Y-96205000D01*
X150619687Y-96458794D01*
X150543860Y-96840000D01*
X150619687Y-97221206D01*
X150789267Y-97475000D01*
X150619687Y-97728794D01*
X150543860Y-98110000D01*
X150619687Y-98491206D01*
X150789267Y-98745000D01*
X150619687Y-98998794D01*
X150543860Y-99380000D01*
X150619687Y-99761206D01*
X150789267Y-100015000D01*
X150619687Y-100268794D01*
X150543860Y-100650000D01*
X150619687Y-101031206D01*
X150789267Y-101285000D01*
X150619687Y-101538794D01*
X150543860Y-101920000D01*
X150619687Y-102301206D01*
X150664317Y-102368000D01*
X146164210Y-102368000D01*
X146100000Y-102355228D01*
X146035790Y-102368000D01*
X146035786Y-102368000D01*
X145845602Y-102405830D01*
X145785620Y-102445909D01*
X145684372Y-102513560D01*
X145684369Y-102513563D01*
X145629935Y-102549935D01*
X145593563Y-102604369D01*
X141874374Y-106323559D01*
X141819935Y-106359935D01*
X141675830Y-106575603D01*
X141638000Y-106765787D01*
X141638000Y-106765790D01*
X141625228Y-106830000D01*
X141638000Y-106894210D01*
X141638001Y-116719932D01*
X140749934Y-117608000D01*
X137480067Y-117608000D01*
X136879279Y-117007212D01*
X137079304Y-117047000D01*
X137340696Y-117047000D01*
X137727770Y-116970006D01*
X138166713Y-116676713D01*
X138460006Y-116237770D01*
X138562997Y-115720000D01*
X138460006Y-115202230D01*
X138166713Y-114763287D01*
X137727770Y-114469994D01*
X137340696Y-114393000D01*
X137079304Y-114393000D01*
X136692230Y-114469994D01*
X136253287Y-114763287D01*
X135959994Y-115202230D01*
X135940000Y-115302746D01*
X135920006Y-115202230D01*
X135626713Y-114763287D01*
X135187770Y-114469994D01*
X134800696Y-114393000D01*
X134539304Y-114393000D01*
X134152230Y-114469994D01*
X133713287Y-114763287D01*
X133419994Y-115202230D01*
X133400000Y-115302746D01*
X133380006Y-115202230D01*
X133086713Y-114763287D01*
X132647770Y-114469994D01*
X132260696Y-114393000D01*
X131999304Y-114393000D01*
X131612230Y-114469994D01*
X131173287Y-114763287D01*
X130879994Y-115202230D01*
X130860000Y-115302746D01*
X130840006Y-115202230D01*
X130546713Y-114763287D01*
X130107770Y-114469994D01*
X129720696Y-114393000D01*
X129459304Y-114393000D01*
X129072230Y-114469994D01*
X128633287Y-114763287D01*
X128352909Y-115182901D01*
X128202389Y-114864866D01*
X127787423Y-114488959D01*
X127399039Y-114328096D01*
X127177000Y-114450085D01*
X127177000Y-115593000D01*
X127197000Y-115593000D01*
X127197000Y-115847000D01*
X127177000Y-115847000D01*
X127177000Y-116989915D01*
X127399039Y-117111904D01*
X127787423Y-116951041D01*
X128202389Y-116575134D01*
X128352909Y-116257099D01*
X128633287Y-116676713D01*
X129072230Y-116970006D01*
X129459304Y-117047000D01*
X129720696Y-117047000D01*
X130107770Y-116970006D01*
X130546713Y-116676713D01*
X130840006Y-116237770D01*
X130860000Y-116137254D01*
X130879994Y-116237770D01*
X131173287Y-116676713D01*
X131612230Y-116970006D01*
X131999304Y-117047000D01*
X132260696Y-117047000D01*
X132647770Y-116970006D01*
X133086713Y-116676713D01*
X133380006Y-116237770D01*
X133400000Y-116137254D01*
X133419994Y-116237770D01*
X133713287Y-116676713D01*
X134152230Y-116970006D01*
X134539304Y-117047000D01*
X134800696Y-117047000D01*
X135029435Y-117001501D01*
X136703561Y-118675628D01*
X136739935Y-118730065D01*
X136955602Y-118874170D01*
X136974857Y-118878000D01*
X126050068Y-118878000D01*
X124179279Y-117007213D01*
X124379304Y-117047000D01*
X124640696Y-117047000D01*
X125027770Y-116970006D01*
X125466713Y-116676713D01*
X125747091Y-116257099D01*
X125897611Y-116575134D01*
X126312577Y-116951041D01*
X126700961Y-117111904D01*
X126923000Y-116989915D01*
X126923000Y-115847000D01*
X126903000Y-115847000D01*
X126903000Y-115593000D01*
X126923000Y-115593000D01*
X126923000Y-114450085D01*
X126700961Y-114328096D01*
X126312577Y-114488959D01*
X125897611Y-114864866D01*
X125747091Y-115182901D01*
X125466713Y-114763287D01*
X125027770Y-114469994D01*
X124640696Y-114393000D01*
X124379304Y-114393000D01*
X123992230Y-114469994D01*
X123553287Y-114763287D01*
X123259994Y-115202230D01*
X123240000Y-115302746D01*
X123220006Y-115202230D01*
X122926713Y-114763287D01*
X122487770Y-114469994D01*
X122100696Y-114393000D01*
X121839304Y-114393000D01*
X121452230Y-114469994D01*
X121013287Y-114763287D01*
X120767324Y-115131396D01*
X120767324Y-114920000D01*
X120726423Y-114714375D01*
X120609945Y-114540055D01*
X120435625Y-114423577D01*
X120230000Y-114382676D01*
X120022169Y-114382676D01*
X119900065Y-114199935D01*
X119845629Y-114163562D01*
X117542000Y-111859934D01*
X117542000Y-108100000D01*
X118077003Y-108100000D01*
X118179994Y-108617770D01*
X118473287Y-109056713D01*
X118912230Y-109350006D01*
X119299304Y-109427000D01*
X119560696Y-109427000D01*
X119947770Y-109350006D01*
X120386713Y-109056713D01*
X120680006Y-108617770D01*
X120700000Y-108517254D01*
X120719994Y-108617770D01*
X121013287Y-109056713D01*
X121452230Y-109350006D01*
X121839304Y-109427000D01*
X122100696Y-109427000D01*
X122487770Y-109350006D01*
X122926713Y-109056713D01*
X123220006Y-108617770D01*
X123240000Y-108517254D01*
X123259994Y-108617770D01*
X123553287Y-109056713D01*
X123992230Y-109350006D01*
X124379304Y-109427000D01*
X124640696Y-109427000D01*
X125027770Y-109350006D01*
X125466713Y-109056713D01*
X125760006Y-108617770D01*
X125780000Y-108517254D01*
X125799994Y-108617770D01*
X126093287Y-109056713D01*
X126532230Y-109350006D01*
X126919304Y-109427000D01*
X127180696Y-109427000D01*
X127567770Y-109350006D01*
X128006713Y-109056713D01*
X128300006Y-108617770D01*
X128320000Y-108517254D01*
X128339994Y-108617770D01*
X128633287Y-109056713D01*
X129072230Y-109350006D01*
X129459304Y-109427000D01*
X129720696Y-109427000D01*
X130107770Y-109350006D01*
X130546713Y-109056713D01*
X130840006Y-108617770D01*
X130860000Y-108517254D01*
X130879994Y-108617770D01*
X131173287Y-109056713D01*
X131612230Y-109350006D01*
X131999304Y-109427000D01*
X132260696Y-109427000D01*
X132647770Y-109350006D01*
X133086713Y-109056713D01*
X133380006Y-108617770D01*
X133400000Y-108517254D01*
X133419994Y-108617770D01*
X133713287Y-109056713D01*
X134152230Y-109350006D01*
X134539304Y-109427000D01*
X134800696Y-109427000D01*
X135187770Y-109350006D01*
X135626713Y-109056713D01*
X135920006Y-108617770D01*
X135940000Y-108517254D01*
X135959994Y-108617770D01*
X136253287Y-109056713D01*
X136692230Y-109350006D01*
X137079304Y-109427000D01*
X137340696Y-109427000D01*
X137727770Y-109350006D01*
X138166713Y-109056713D01*
X138460006Y-108617770D01*
X138562997Y-108100000D01*
X138460006Y-107582230D01*
X138166713Y-107143287D01*
X137727770Y-106849994D01*
X137340696Y-106773000D01*
X137079304Y-106773000D01*
X136692230Y-106849994D01*
X136253287Y-107143287D01*
X135959994Y-107582230D01*
X135940000Y-107682746D01*
X135920006Y-107582230D01*
X135626713Y-107143287D01*
X135187770Y-106849994D01*
X134800696Y-106773000D01*
X134539304Y-106773000D01*
X134152230Y-106849994D01*
X133713287Y-107143287D01*
X133419994Y-107582230D01*
X133400000Y-107682746D01*
X133380006Y-107582230D01*
X133086713Y-107143287D01*
X132647770Y-106849994D01*
X132260696Y-106773000D01*
X131999304Y-106773000D01*
X131612230Y-106849994D01*
X131173287Y-107143287D01*
X130879994Y-107582230D01*
X130860000Y-107682746D01*
X130840006Y-107582230D01*
X130546713Y-107143287D01*
X130107770Y-106849994D01*
X129720696Y-106773000D01*
X129459304Y-106773000D01*
X129072230Y-106849994D01*
X128633287Y-107143287D01*
X128339994Y-107582230D01*
X128320000Y-107682746D01*
X128300006Y-107582230D01*
X128006713Y-107143287D01*
X127567770Y-106849994D01*
X127180696Y-106773000D01*
X126919304Y-106773000D01*
X126532230Y-106849994D01*
X126093287Y-107143287D01*
X125799994Y-107582230D01*
X125780000Y-107682746D01*
X125760006Y-107582230D01*
X125466713Y-107143287D01*
X125027770Y-106849994D01*
X124640696Y-106773000D01*
X124379304Y-106773000D01*
X123992230Y-106849994D01*
X123553287Y-107143287D01*
X123259994Y-107582230D01*
X123240000Y-107682746D01*
X123220006Y-107582230D01*
X122926713Y-107143287D01*
X122487770Y-106849994D01*
X122100696Y-106773000D01*
X121839304Y-106773000D01*
X121452230Y-106849994D01*
X121013287Y-107143287D01*
X120719994Y-107582230D01*
X120700000Y-107682746D01*
X120680006Y-107582230D01*
X120386713Y-107143287D01*
X119947770Y-106849994D01*
X119560696Y-106773000D01*
X119299304Y-106773000D01*
X118912230Y-106849994D01*
X118473287Y-107143287D01*
X118179994Y-107582230D01*
X118077003Y-108100000D01*
X117542000Y-108100000D01*
X117542000Y-105015064D01*
X129570064Y-92987002D01*
X129633748Y-92987002D01*
X129475000Y-93145750D01*
X129475000Y-93736310D01*
X129571673Y-93969699D01*
X129750302Y-94148327D01*
X129983691Y-94245000D01*
X130574250Y-94245000D01*
X130733000Y-94086250D01*
X130733000Y-92987000D01*
X130987000Y-92987000D01*
X130987000Y-94086250D01*
X131145750Y-94245000D01*
X131736309Y-94245000D01*
X131969698Y-94148327D01*
X132148327Y-93969699D01*
X132245000Y-93736310D01*
X132245000Y-93145750D01*
X132086250Y-92987000D01*
X130987000Y-92987000D01*
X130733000Y-92987000D01*
X130713000Y-92987000D01*
X130713000Y-92733000D01*
X130733000Y-92733000D01*
X130733000Y-92713000D01*
X130987000Y-92713000D01*
X130987000Y-92733000D01*
X132086250Y-92733000D01*
X132143642Y-92675608D01*
X142633000Y-92675608D01*
X142633000Y-93044392D01*
X142658000Y-93104748D01*
X142658001Y-98965250D01*
X142633000Y-99025608D01*
X142633000Y-99394392D01*
X142774127Y-99735103D01*
X143034897Y-99995873D01*
X143375608Y-100137000D01*
X143744392Y-100137000D01*
X144085103Y-99995873D01*
X144345873Y-99735103D01*
X144487000Y-99394392D01*
X144487000Y-99025608D01*
X144462000Y-98965253D01*
X144462000Y-93530000D01*
X144962676Y-93530000D01*
X144962676Y-94730000D01*
X145003577Y-94935625D01*
X145120055Y-95109945D01*
X145294375Y-95226423D01*
X145500000Y-95267324D01*
X146700000Y-95267324D01*
X146905625Y-95226423D01*
X147079945Y-95109945D01*
X147158262Y-94992735D01*
X147416870Y-94992735D01*
X147466383Y-95218164D01*
X147931036Y-95377807D01*
X148421413Y-95347482D01*
X148733617Y-95218164D01*
X148783130Y-94992735D01*
X148100000Y-94309605D01*
X147416870Y-94992735D01*
X147158262Y-94992735D01*
X147196423Y-94935625D01*
X147221478Y-94809663D01*
X147237265Y-94813130D01*
X147920395Y-94130000D01*
X147237265Y-93446870D01*
X147221478Y-93450337D01*
X147196423Y-93324375D01*
X147158263Y-93267265D01*
X147416870Y-93267265D01*
X148100000Y-93950395D01*
X148783130Y-93267265D01*
X148733617Y-93041836D01*
X148268964Y-92882193D01*
X147778587Y-92912518D01*
X147466383Y-93041836D01*
X147416870Y-93267265D01*
X147158263Y-93267265D01*
X147079945Y-93150055D01*
X146905625Y-93033577D01*
X146700000Y-92992676D01*
X145500000Y-92992676D01*
X145294375Y-93033577D01*
X145120055Y-93150055D01*
X145003577Y-93324375D01*
X144962676Y-93530000D01*
X144462000Y-93530000D01*
X144462000Y-93104747D01*
X144487000Y-93044392D01*
X144487000Y-92675608D01*
X144345873Y-92334897D01*
X144085103Y-92074127D01*
X143744392Y-91933000D01*
X143375608Y-91933000D01*
X143034897Y-92074127D01*
X142774127Y-92334897D01*
X142633000Y-92675608D01*
X132143642Y-92675608D01*
X132245000Y-92574250D01*
X132245000Y-91983690D01*
X132204946Y-91886990D01*
X154653329Y-91886990D01*
X154648001Y-91913777D01*
X154648000Y-93706222D01*
X154704687Y-93991205D01*
X154920623Y-94314377D01*
X155243794Y-94530313D01*
X155625000Y-94606140D01*
X156006205Y-94530313D01*
X156260000Y-94360733D01*
X156513794Y-94530313D01*
X156895000Y-94606140D01*
X157276205Y-94530313D01*
X157530000Y-94360733D01*
X157783794Y-94530313D01*
X158165000Y-94606140D01*
X158546205Y-94530313D01*
X158800000Y-94360733D01*
X159053794Y-94530313D01*
X159435000Y-94606140D01*
X159816205Y-94530313D01*
X160070000Y-94360733D01*
X160323794Y-94530313D01*
X160705000Y-94606140D01*
X161086205Y-94530313D01*
X161340000Y-94360733D01*
X161593794Y-94530313D01*
X161975000Y-94606140D01*
X162356205Y-94530313D01*
X162610000Y-94360733D01*
X162863794Y-94530313D01*
X163245000Y-94606140D01*
X163626205Y-94530313D01*
X163880000Y-94360733D01*
X164133794Y-94530313D01*
X164515000Y-94606140D01*
X164896205Y-94530313D01*
X165150000Y-94360733D01*
X165403794Y-94530313D01*
X165785000Y-94606140D01*
X166166205Y-94530313D01*
X166420000Y-94360733D01*
X166673794Y-94530313D01*
X167055000Y-94606140D01*
X167436205Y-94530313D01*
X167759377Y-94314377D01*
X167768983Y-94300000D01*
X168543860Y-94300000D01*
X168619687Y-94681206D01*
X168789267Y-94935000D01*
X168619687Y-95188794D01*
X168543860Y-95570000D01*
X168619687Y-95951206D01*
X168789267Y-96205000D01*
X168619687Y-96458794D01*
X168543860Y-96840000D01*
X168619687Y-97221206D01*
X168789267Y-97475000D01*
X168619687Y-97728794D01*
X168543860Y-98110000D01*
X168619687Y-98491206D01*
X168789267Y-98745000D01*
X168619687Y-98998794D01*
X168543860Y-99380000D01*
X168619687Y-99761206D01*
X168789267Y-100015000D01*
X168619687Y-100268794D01*
X168543860Y-100650000D01*
X168619687Y-101031206D01*
X168789267Y-101285000D01*
X168619687Y-101538794D01*
X168543860Y-101920000D01*
X168619687Y-102301206D01*
X168789267Y-102555000D01*
X168619687Y-102808794D01*
X168543860Y-103190000D01*
X168619687Y-103571206D01*
X168789267Y-103825000D01*
X168619687Y-104078794D01*
X168543860Y-104460000D01*
X168619687Y-104841206D01*
X168789267Y-105095000D01*
X168619687Y-105348794D01*
X168543860Y-105730000D01*
X168619687Y-106111206D01*
X168789267Y-106365000D01*
X168619687Y-106618794D01*
X168543860Y-107000000D01*
X168619687Y-107381206D01*
X168789267Y-107635000D01*
X168619687Y-107888794D01*
X168543860Y-108270000D01*
X168619687Y-108651206D01*
X168789267Y-108905000D01*
X168619687Y-109158794D01*
X168543860Y-109540000D01*
X168619687Y-109921206D01*
X168789267Y-110175000D01*
X168619687Y-110428794D01*
X168543860Y-110810000D01*
X168619687Y-111191206D01*
X168835623Y-111514377D01*
X169158794Y-111730313D01*
X169443777Y-111787000D01*
X171236223Y-111787000D01*
X171521206Y-111730313D01*
X171844377Y-111514377D01*
X172060313Y-111191206D01*
X172136140Y-110810000D01*
X172060313Y-110428794D01*
X171890733Y-110175000D01*
X172060313Y-109921206D01*
X172136140Y-109540000D01*
X172060313Y-109158794D01*
X171890733Y-108905000D01*
X172060313Y-108651206D01*
X172136140Y-108270000D01*
X172060313Y-107888794D01*
X171890733Y-107635000D01*
X172060313Y-107381206D01*
X172136140Y-107000000D01*
X172060313Y-106618794D01*
X171890733Y-106365000D01*
X172060313Y-106111206D01*
X172136140Y-105730000D01*
X172060313Y-105348794D01*
X171890733Y-105095000D01*
X172060313Y-104841206D01*
X172136140Y-104460000D01*
X172060313Y-104078794D01*
X171890733Y-103825000D01*
X172060313Y-103571206D01*
X172136140Y-103190000D01*
X172060313Y-102808794D01*
X171890733Y-102555000D01*
X172060313Y-102301206D01*
X172136140Y-101920000D01*
X172060313Y-101538794D01*
X171890733Y-101285000D01*
X172060313Y-101031206D01*
X172136140Y-100650000D01*
X172060313Y-100268794D01*
X171890733Y-100015000D01*
X172060313Y-99761206D01*
X172136140Y-99380000D01*
X172060313Y-98998794D01*
X171890733Y-98745000D01*
X172060313Y-98491206D01*
X172136140Y-98110000D01*
X172060313Y-97728794D01*
X171890733Y-97475000D01*
X172060313Y-97221206D01*
X172136140Y-96840000D01*
X172060313Y-96458794D01*
X171890733Y-96205000D01*
X172060313Y-95951206D01*
X172136140Y-95570000D01*
X172060313Y-95188794D01*
X171890733Y-94935000D01*
X172060313Y-94681206D01*
X172136140Y-94300000D01*
X172060313Y-93918794D01*
X171844377Y-93595623D01*
X171521206Y-93379687D01*
X171236223Y-93323000D01*
X169443777Y-93323000D01*
X169158794Y-93379687D01*
X168835623Y-93595623D01*
X168619687Y-93918794D01*
X168543860Y-94300000D01*
X167768983Y-94300000D01*
X167975313Y-93991206D01*
X168032000Y-93706223D01*
X168032000Y-91913777D01*
X167975313Y-91628794D01*
X167759377Y-91305623D01*
X167436206Y-91089687D01*
X167055000Y-91013860D01*
X166673795Y-91089687D01*
X166420000Y-91259267D01*
X166166206Y-91089687D01*
X165785000Y-91013860D01*
X165403795Y-91089687D01*
X165150000Y-91259267D01*
X164896206Y-91089687D01*
X164515000Y-91013860D01*
X164133795Y-91089687D01*
X163880000Y-91259267D01*
X163626206Y-91089687D01*
X163245000Y-91013860D01*
X162863795Y-91089687D01*
X162610000Y-91259267D01*
X162356206Y-91089687D01*
X161975000Y-91013860D01*
X161593795Y-91089687D01*
X161340000Y-91259267D01*
X161086206Y-91089687D01*
X160705000Y-91013860D01*
X160323795Y-91089687D01*
X160070000Y-91259267D01*
X159816206Y-91089687D01*
X159435000Y-91013860D01*
X159053795Y-91089687D01*
X158800000Y-91259267D01*
X158546206Y-91089687D01*
X158165000Y-91013860D01*
X157783795Y-91089687D01*
X157530000Y-91259267D01*
X157276206Y-91089687D01*
X156895000Y-91013860D01*
X156688109Y-91055014D01*
X156452459Y-90819364D01*
X156416084Y-90764925D01*
X156200417Y-90620820D01*
X156010233Y-90582990D01*
X156010229Y-90582990D01*
X155946019Y-90570218D01*
X155881809Y-90582990D01*
X130464218Y-90582990D01*
X130400008Y-90570218D01*
X130335798Y-90582990D01*
X130335794Y-90582990D01*
X130145610Y-90620820D01*
X130085628Y-90660899D01*
X129984380Y-90728550D01*
X129984377Y-90728553D01*
X129929943Y-90764925D01*
X129893571Y-90819359D01*
X116474375Y-104238557D01*
X116419935Y-104274933D01*
X116275830Y-104490601D01*
X116238000Y-104680785D01*
X116238000Y-104680788D01*
X116225228Y-104744998D01*
X105951766Y-104744998D01*
X106015044Y-94852532D01*
X113377073Y-94852532D01*
X113475736Y-95119387D01*
X114085461Y-95345908D01*
X114735460Y-95321856D01*
X115224264Y-95119387D01*
X115322927Y-94852532D01*
X114350000Y-93879605D01*
X113377073Y-94852532D01*
X106015044Y-94852532D01*
X106024109Y-93435461D01*
X112704092Y-93435461D01*
X112728144Y-94085460D01*
X112930613Y-94574264D01*
X113197468Y-94672927D01*
X114170395Y-93700000D01*
X114529605Y-93700000D01*
X115502532Y-94672927D01*
X115769387Y-94574264D01*
X115995908Y-93964539D01*
X115974880Y-93396261D01*
X118823000Y-93396261D01*
X118823000Y-94003739D01*
X119055472Y-94564976D01*
X119485024Y-94994528D01*
X120046261Y-95227000D01*
X120653739Y-95227000D01*
X121214976Y-94994528D01*
X121644528Y-94564976D01*
X121877000Y-94003739D01*
X121877000Y-93396261D01*
X121654874Y-92860000D01*
X124477983Y-92860000D01*
X124577093Y-93358260D01*
X124859335Y-93780665D01*
X125281740Y-94062907D01*
X125654231Y-94137000D01*
X125905769Y-94137000D01*
X126278260Y-94062907D01*
X126700665Y-93780665D01*
X126982907Y-93358260D01*
X127082017Y-92860000D01*
X126982907Y-92361740D01*
X126700665Y-91939335D01*
X126278260Y-91657093D01*
X125905769Y-91583000D01*
X125654231Y-91583000D01*
X125281740Y-91657093D01*
X124859335Y-91939335D01*
X124577093Y-92361740D01*
X124477983Y-92860000D01*
X121654874Y-92860000D01*
X121644528Y-92835024D01*
X121214976Y-92405472D01*
X120653739Y-92173000D01*
X120046261Y-92173000D01*
X119485024Y-92405472D01*
X119055472Y-92835024D01*
X118823000Y-93396261D01*
X115974880Y-93396261D01*
X115971856Y-93314540D01*
X115769387Y-92825736D01*
X115502532Y-92727073D01*
X114529605Y-93700000D01*
X114170395Y-93700000D01*
X113197468Y-92727073D01*
X112930613Y-92825736D01*
X112704092Y-93435461D01*
X106024109Y-93435461D01*
X106029789Y-92547468D01*
X113377073Y-92547468D01*
X114350000Y-93520395D01*
X115322927Y-92547468D01*
X115224264Y-92280613D01*
X114614539Y-92054092D01*
X113964540Y-92078144D01*
X113475736Y-92280613D01*
X113377073Y-92547468D01*
X106029789Y-92547468D01*
X106056958Y-88300000D01*
X124492676Y-88300000D01*
X124492676Y-89800000D01*
X124533577Y-90005625D01*
X124650055Y-90179945D01*
X124824375Y-90296423D01*
X125030000Y-90337324D01*
X126530000Y-90337324D01*
X126735625Y-90296423D01*
X126909945Y-90179945D01*
X127026423Y-90005625D01*
X127067324Y-89800000D01*
X127067324Y-89050000D01*
X129557983Y-89050000D01*
X129657093Y-89548260D01*
X129939335Y-89970665D01*
X130361740Y-90252907D01*
X130734231Y-90327000D01*
X130985769Y-90327000D01*
X131358260Y-90252907D01*
X131780665Y-89970665D01*
X132062907Y-89548260D01*
X132162017Y-89050000D01*
X132062907Y-88551740D01*
X131780665Y-88129335D01*
X131358260Y-87847093D01*
X130985769Y-87773000D01*
X130734231Y-87773000D01*
X130361740Y-87847093D01*
X129939335Y-88129335D01*
X129657093Y-88551740D01*
X129557983Y-89050000D01*
X127067324Y-89050000D01*
X127067324Y-88300000D01*
X127026423Y-88094375D01*
X126909945Y-87920055D01*
X126735625Y-87803577D01*
X126530000Y-87762676D01*
X125030000Y-87762676D01*
X124824375Y-87803577D01*
X124650055Y-87920055D01*
X124533577Y-88094375D01*
X124492676Y-88300000D01*
X106056958Y-88300000D01*
X106074705Y-85525750D01*
X107785000Y-85525750D01*
X107785000Y-86216310D01*
X107881673Y-86449699D01*
X108060302Y-86628327D01*
X108293691Y-86725000D01*
X108984250Y-86725000D01*
X109143000Y-86566250D01*
X109143000Y-85367000D01*
X109397000Y-85367000D01*
X109397000Y-86566250D01*
X109555750Y-86725000D01*
X110246309Y-86725000D01*
X110479698Y-86628327D01*
X110658327Y-86449699D01*
X110755000Y-86216310D01*
X110755000Y-85525750D01*
X110596250Y-85367000D01*
X109397000Y-85367000D01*
X109143000Y-85367000D01*
X107943750Y-85367000D01*
X107785000Y-85525750D01*
X106074705Y-85525750D01*
X106076532Y-85240000D01*
X124477983Y-85240000D01*
X124577093Y-85738260D01*
X124859335Y-86160665D01*
X125281740Y-86442907D01*
X125654231Y-86517000D01*
X125905769Y-86517000D01*
X126278260Y-86442907D01*
X126700665Y-86160665D01*
X126982907Y-85738260D01*
X127025177Y-85525750D01*
X129475000Y-85525750D01*
X129475000Y-86116310D01*
X129571673Y-86349699D01*
X129750302Y-86528327D01*
X129983691Y-86625000D01*
X130574250Y-86625000D01*
X130733000Y-86466250D01*
X130733000Y-85367000D01*
X130987000Y-85367000D01*
X130987000Y-86466250D01*
X131145750Y-86625000D01*
X131736309Y-86625000D01*
X131969698Y-86528327D01*
X132148327Y-86349699D01*
X132245000Y-86116310D01*
X132245000Y-85525750D01*
X132086250Y-85367000D01*
X130987000Y-85367000D01*
X130733000Y-85367000D01*
X129633750Y-85367000D01*
X129475000Y-85525750D01*
X127025177Y-85525750D01*
X127082017Y-85240000D01*
X126982907Y-84741740D01*
X126730303Y-84363690D01*
X129475000Y-84363690D01*
X129475000Y-84954250D01*
X129633750Y-85113000D01*
X130733000Y-85113000D01*
X130733000Y-84013750D01*
X130987000Y-84013750D01*
X130987000Y-85113000D01*
X132086250Y-85113000D01*
X132245000Y-84954250D01*
X132245000Y-84363690D01*
X132148327Y-84130301D01*
X131969698Y-83951673D01*
X131736309Y-83855000D01*
X131145750Y-83855000D01*
X130987000Y-84013750D01*
X130733000Y-84013750D01*
X130574250Y-83855000D01*
X129983691Y-83855000D01*
X129750302Y-83951673D01*
X129571673Y-84130301D01*
X129475000Y-84363690D01*
X126730303Y-84363690D01*
X126700665Y-84319335D01*
X126278260Y-84037093D01*
X125905769Y-83963000D01*
X125654231Y-83963000D01*
X125281740Y-84037093D01*
X124859335Y-84319335D01*
X124577093Y-84741740D01*
X124477983Y-85240000D01*
X106076532Y-85240000D01*
X106082777Y-84263690D01*
X107785000Y-84263690D01*
X107785000Y-84954250D01*
X107943750Y-85113000D01*
X109143000Y-85113000D01*
X109143000Y-85093000D01*
X109397000Y-85093000D01*
X109397000Y-85113000D01*
X110596250Y-85113000D01*
X110755000Y-84954250D01*
X110755000Y-84263690D01*
X110658327Y-84030301D01*
X110479698Y-83851673D01*
X110246309Y-83755000D01*
X110169616Y-83755000D01*
X110262762Y-83692762D01*
X110567106Y-83237279D01*
X110673977Y-82700000D01*
X110613560Y-82396261D01*
X112823000Y-82396261D01*
X112823000Y-83003739D01*
X113055472Y-83564976D01*
X113485024Y-83994528D01*
X114046261Y-84227000D01*
X114653739Y-84227000D01*
X115214976Y-83994528D01*
X115644528Y-83564976D01*
X115877000Y-83003739D01*
X115877000Y-82396261D01*
X118823000Y-82396261D01*
X118823000Y-83003739D01*
X119055472Y-83564976D01*
X119485024Y-83994528D01*
X120046261Y-84227000D01*
X120653739Y-84227000D01*
X121214976Y-83994528D01*
X121644528Y-83564976D01*
X121877000Y-83003739D01*
X121877000Y-82396261D01*
X121644528Y-81835024D01*
X121214976Y-81405472D01*
X120653739Y-81173000D01*
X120046261Y-81173000D01*
X119485024Y-81405472D01*
X119055472Y-81835024D01*
X118823000Y-82396261D01*
X115877000Y-82396261D01*
X115644528Y-81835024D01*
X115214976Y-81405472D01*
X114653739Y-81173000D01*
X114046261Y-81173000D01*
X113485024Y-81405472D01*
X113055472Y-81835024D01*
X112823000Y-82396261D01*
X110613560Y-82396261D01*
X110567106Y-82162721D01*
X110262762Y-81707238D01*
X109807279Y-81402894D01*
X109405623Y-81323000D01*
X109134377Y-81323000D01*
X108732721Y-81402894D01*
X108277238Y-81707238D01*
X107972894Y-82162721D01*
X107866023Y-82700000D01*
X107972894Y-83237279D01*
X108277238Y-83692762D01*
X108370384Y-83755000D01*
X108293691Y-83755000D01*
X108060302Y-83851673D01*
X107881673Y-84030301D01*
X107785000Y-84263690D01*
X106082777Y-84263690D01*
X106105701Y-80680000D01*
X124492676Y-80680000D01*
X124492676Y-82180000D01*
X124533577Y-82385625D01*
X124650055Y-82559945D01*
X124824375Y-82676423D01*
X125030000Y-82717324D01*
X126530000Y-82717324D01*
X126735625Y-82676423D01*
X126909945Y-82559945D01*
X127026423Y-82385625D01*
X127067324Y-82180000D01*
X127067324Y-81430000D01*
X129557983Y-81430000D01*
X129657093Y-81928260D01*
X129939335Y-82350665D01*
X130361740Y-82632907D01*
X130734231Y-82707000D01*
X130985769Y-82707000D01*
X131358260Y-82632907D01*
X131780665Y-82350665D01*
X132062907Y-81928260D01*
X132162017Y-81430000D01*
X132062907Y-80931740D01*
X131994927Y-80830000D01*
X137342676Y-80830000D01*
X137342676Y-82030000D01*
X137383577Y-82235625D01*
X137500055Y-82409945D01*
X137674375Y-82526423D01*
X137880000Y-82567324D01*
X139080000Y-82567324D01*
X139285625Y-82526423D01*
X139459945Y-82409945D01*
X139576423Y-82235625D01*
X139617324Y-82030000D01*
X139617324Y-81715750D01*
X149660000Y-81715750D01*
X149660000Y-81981309D01*
X149756673Y-82214698D01*
X149935301Y-82393327D01*
X150168690Y-82490000D01*
X150434250Y-82490000D01*
X150593000Y-82331250D01*
X150593000Y-81557000D01*
X149818750Y-81557000D01*
X149660000Y-81715750D01*
X139617324Y-81715750D01*
X139617324Y-81430000D01*
X150749350Y-81430000D01*
X150823236Y-81801452D01*
X150847000Y-81837017D01*
X150847000Y-82331250D01*
X151005750Y-82490000D01*
X151271310Y-82490000D01*
X151504699Y-82393327D01*
X151534311Y-82363714D01*
X151626240Y-82382000D01*
X151813760Y-82382000D01*
X152068000Y-82331429D01*
X152068001Y-88121023D01*
X151934127Y-88254897D01*
X151793000Y-88595608D01*
X151793000Y-88964392D01*
X151934127Y-89305103D01*
X152194897Y-89565873D01*
X152535608Y-89707000D01*
X152904392Y-89707000D01*
X153245103Y-89565873D01*
X153505873Y-89305103D01*
X153647000Y-88964392D01*
X153647000Y-88595608D01*
X153505873Y-88254897D01*
X153372000Y-88121024D01*
X153372000Y-82331429D01*
X153626240Y-82382000D01*
X153813760Y-82382000D01*
X154091452Y-82326764D01*
X154406353Y-82116353D01*
X154616764Y-81801452D01*
X154690650Y-81430000D01*
X154616764Y-81058548D01*
X154406353Y-80743647D01*
X154091452Y-80533236D01*
X153813760Y-80478000D01*
X153626240Y-80478000D01*
X153348548Y-80533236D01*
X153220000Y-80619129D01*
X153091452Y-80533236D01*
X152813760Y-80478000D01*
X152626240Y-80478000D01*
X152348548Y-80533236D01*
X152220000Y-80619129D01*
X152091452Y-80533236D01*
X151813760Y-80478000D01*
X151626240Y-80478000D01*
X151534311Y-80496286D01*
X151504699Y-80466673D01*
X151271310Y-80370000D01*
X151005750Y-80370000D01*
X150847000Y-80528750D01*
X150847000Y-81022983D01*
X150823236Y-81058548D01*
X150749350Y-81430000D01*
X139617324Y-81430000D01*
X139617324Y-80878691D01*
X149660000Y-80878691D01*
X149660000Y-81144250D01*
X149818750Y-81303000D01*
X150593000Y-81303000D01*
X150593000Y-80528750D01*
X150434250Y-80370000D01*
X150168690Y-80370000D01*
X149935301Y-80466673D01*
X149756673Y-80645302D01*
X149660000Y-80878691D01*
X139617324Y-80878691D01*
X139617324Y-80830000D01*
X139576423Y-80624375D01*
X139459945Y-80450055D01*
X139285625Y-80333577D01*
X139159663Y-80308522D01*
X139163130Y-80292735D01*
X138480000Y-79609605D01*
X137796870Y-80292735D01*
X137800337Y-80308522D01*
X137674375Y-80333577D01*
X137500055Y-80450055D01*
X137383577Y-80624375D01*
X137342676Y-80830000D01*
X131994927Y-80830000D01*
X131780665Y-80509335D01*
X131358260Y-80227093D01*
X130985769Y-80153000D01*
X130734231Y-80153000D01*
X130361740Y-80227093D01*
X129939335Y-80509335D01*
X129657093Y-80931740D01*
X129557983Y-81430000D01*
X127067324Y-81430000D01*
X127067324Y-80680000D01*
X127026423Y-80474375D01*
X126909945Y-80300055D01*
X126735625Y-80183577D01*
X126530000Y-80142676D01*
X125030000Y-80142676D01*
X124824375Y-80183577D01*
X124650055Y-80300055D01*
X124533577Y-80474375D01*
X124492676Y-80680000D01*
X106105701Y-80680000D01*
X106114777Y-79261036D01*
X137232193Y-79261036D01*
X137262518Y-79751413D01*
X137391836Y-80063617D01*
X137617265Y-80113130D01*
X138300395Y-79430000D01*
X138659605Y-79430000D01*
X139342735Y-80113130D01*
X139568164Y-80063617D01*
X139727807Y-79598964D01*
X139697482Y-79108587D01*
X139568164Y-78796383D01*
X139342735Y-78746870D01*
X138659605Y-79430000D01*
X138300395Y-79430000D01*
X137617265Y-78746870D01*
X137391836Y-78796383D01*
X137232193Y-79261036D01*
X106114777Y-79261036D01*
X106119215Y-78567265D01*
X137796870Y-78567265D01*
X138480000Y-79250395D01*
X139163130Y-78567265D01*
X139113617Y-78341836D01*
X138648964Y-78182193D01*
X138158587Y-78212518D01*
X137846383Y-78341836D01*
X137796870Y-78567265D01*
X106119215Y-78567265D01*
X106126190Y-77477000D01*
X174123000Y-77477000D01*
X174123000Y-124921510D01*
X174123000Y-124921510D01*
G37*
X174123000Y-124921510D02*
X105827805Y-124124483D01*
X105846383Y-121220000D01*
X124392676Y-121220000D01*
X124392676Y-122920000D01*
X124433577Y-123125625D01*
X124550055Y-123299945D01*
X124724375Y-123416423D01*
X124930000Y-123457324D01*
X126630000Y-123457324D01*
X126835625Y-123416423D01*
X127009945Y-123299945D01*
X127126423Y-123125625D01*
X127167324Y-122920000D01*
X127167324Y-122823434D01*
X127327238Y-123062762D01*
X127782721Y-123367106D01*
X128184377Y-123447000D01*
X128455623Y-123447000D01*
X128857279Y-123367106D01*
X129312762Y-123062762D01*
X129617106Y-122607279D01*
X129723977Y-122070000D01*
X129617106Y-121532721D01*
X129312762Y-121077238D01*
X128857279Y-120772894D01*
X128455623Y-120693000D01*
X128184377Y-120693000D01*
X127782721Y-120772894D01*
X127327238Y-121077238D01*
X127167324Y-121316566D01*
X127167324Y-121220000D01*
X127126423Y-121014375D01*
X127009945Y-120840055D01*
X126835625Y-120723577D01*
X126630000Y-120682676D01*
X124930000Y-120682676D01*
X124724375Y-120723577D01*
X124550055Y-120840055D01*
X124433577Y-121014375D01*
X124392676Y-121220000D01*
X105846383Y-121220000D01*
X105951766Y-104744998D01*
X116225228Y-104744998D01*
X116238000Y-104809208D01*
X116238001Y-112065785D01*
X116225228Y-112130000D01*
X116275830Y-112384397D01*
X116275831Y-112384398D01*
X116419936Y-112600065D01*
X116474373Y-112636439D01*
X118326745Y-114488812D01*
X118250055Y-114540055D01*
X118133577Y-114714375D01*
X118092676Y-114920000D01*
X118092676Y-116520000D01*
X118133577Y-116725625D01*
X118250055Y-116899945D01*
X118424375Y-117016423D01*
X118630000Y-117057324D01*
X120230000Y-117057324D01*
X120435625Y-117016423D01*
X120609945Y-116899945D01*
X120726423Y-116725625D01*
X120767324Y-116520000D01*
X120767324Y-116308604D01*
X121013287Y-116676713D01*
X121452230Y-116970006D01*
X121839304Y-117047000D01*
X122100696Y-117047000D01*
X122329435Y-117001501D01*
X125273563Y-119945631D01*
X125309935Y-120000065D01*
X125364369Y-120036437D01*
X125364372Y-120036440D01*
X125465620Y-120104091D01*
X125525602Y-120144170D01*
X125715786Y-120182000D01*
X125715790Y-120182000D01*
X125780000Y-120194772D01*
X125844210Y-120182000D01*
X142225790Y-120182000D01*
X142290000Y-120194772D01*
X142354210Y-120182000D01*
X142354214Y-120182000D01*
X142544398Y-120144170D01*
X142760065Y-120000065D01*
X142796440Y-119945626D01*
X143975628Y-118766439D01*
X144030065Y-118730065D01*
X144174170Y-118514398D01*
X144212000Y-118324214D01*
X144212000Y-118324211D01*
X144224772Y-118260001D01*
X144212000Y-118195791D01*
X144212000Y-112710066D01*
X150696261Y-106225806D01*
X150789267Y-106365000D01*
X150619687Y-106618794D01*
X150543860Y-107000000D01*
X150619687Y-107381206D01*
X150789267Y-107635000D01*
X150619687Y-107888794D01*
X150543860Y-108270000D01*
X150617060Y-108638000D01*
X149828838Y-108638000D01*
X149740000Y-108620329D01*
X149651162Y-108638000D01*
X149388057Y-108690335D01*
X149089694Y-108889694D01*
X149039371Y-108965008D01*
X148175253Y-109829127D01*
X148114897Y-109854127D01*
X147854127Y-110114897D01*
X147713000Y-110455608D01*
X147713000Y-110824392D01*
X147854127Y-111165103D01*
X148114897Y-111425873D01*
X148455608Y-111567000D01*
X148824392Y-111567000D01*
X149165103Y-111425873D01*
X149425873Y-111165103D01*
X149450873Y-111104747D01*
X149451619Y-111104001D01*
X150495592Y-111104001D01*
X150682987Y-111487408D01*
X151007456Y-111763808D01*
X151413000Y-111895000D01*
X152213000Y-111895000D01*
X152213000Y-110937000D01*
X152467000Y-110937000D01*
X152467000Y-111895000D01*
X153267000Y-111895000D01*
X153672544Y-111763808D01*
X153997013Y-111487408D01*
X154184408Y-111104001D01*
X154057502Y-110937000D01*
X152467000Y-110937000D01*
X152213000Y-110937000D01*
X150622498Y-110937000D01*
X150495592Y-111104001D01*
X149451619Y-111104001D01*
X150113621Y-110442000D01*
X150531760Y-110442000D01*
X150495592Y-110515999D01*
X150622498Y-110683000D01*
X152213000Y-110683000D01*
X152213000Y-110663000D01*
X152467000Y-110663000D01*
X152467000Y-110683000D01*
X154057502Y-110683000D01*
X154184408Y-110515999D01*
X153997013Y-110132592D01*
X153947342Y-110090279D01*
X154060313Y-109921206D01*
X154136140Y-109540000D01*
X154060313Y-109158794D01*
X153890733Y-108905000D01*
X154060313Y-108651206D01*
X154136140Y-108270000D01*
X154060313Y-107888794D01*
X153890733Y-107635000D01*
X154060313Y-107381206D01*
X154136140Y-107000000D01*
X154060313Y-106618794D01*
X153890733Y-106365000D01*
X154060313Y-106111206D01*
X154136140Y-105730000D01*
X154060313Y-105348794D01*
X153890733Y-105095000D01*
X154060313Y-104841206D01*
X154136140Y-104460000D01*
X154060313Y-104078794D01*
X153890733Y-103825000D01*
X154060313Y-103571206D01*
X154095213Y-103395750D01*
X157405000Y-103395750D01*
X157405000Y-106236310D01*
X157501673Y-106469699D01*
X157680302Y-106648327D01*
X157913691Y-106745000D01*
X160754250Y-106745000D01*
X160913000Y-106586250D01*
X160913000Y-103237000D01*
X161167000Y-103237000D01*
X161167000Y-106586250D01*
X161325750Y-106745000D01*
X164166309Y-106745000D01*
X164399698Y-106648327D01*
X164578327Y-106469699D01*
X164675000Y-106236310D01*
X164675000Y-103395750D01*
X164516250Y-103237000D01*
X161167000Y-103237000D01*
X160913000Y-103237000D01*
X157563750Y-103237000D01*
X157405000Y-103395750D01*
X154095213Y-103395750D01*
X154136140Y-103190000D01*
X154060313Y-102808794D01*
X153890733Y-102555000D01*
X154060313Y-102301206D01*
X154136140Y-101920000D01*
X154060313Y-101538794D01*
X153890733Y-101285000D01*
X154060313Y-101031206D01*
X154136140Y-100650000D01*
X154060313Y-100268794D01*
X153890733Y-100015000D01*
X153911653Y-99983690D01*
X157405000Y-99983690D01*
X157405000Y-102824250D01*
X157563750Y-102983000D01*
X160913000Y-102983000D01*
X160913000Y-99633750D01*
X161167000Y-99633750D01*
X161167000Y-102983000D01*
X164516250Y-102983000D01*
X164675000Y-102824250D01*
X164675000Y-99983690D01*
X164578327Y-99750301D01*
X164399698Y-99571673D01*
X164166309Y-99475000D01*
X161325750Y-99475000D01*
X161167000Y-99633750D01*
X160913000Y-99633750D01*
X160754250Y-99475000D01*
X157913691Y-99475000D01*
X157680302Y-99571673D01*
X157501673Y-99750301D01*
X157405000Y-99983690D01*
X153911653Y-99983690D01*
X154060313Y-99761206D01*
X154136140Y-99380000D01*
X154060313Y-98998794D01*
X153890733Y-98745000D01*
X154060313Y-98491206D01*
X154136140Y-98110000D01*
X154060313Y-97728794D01*
X153890733Y-97475000D01*
X154060313Y-97221206D01*
X154136140Y-96840000D01*
X154060313Y-96458794D01*
X153890733Y-96205000D01*
X154060313Y-95951206D01*
X154136140Y-95570000D01*
X154060313Y-95188794D01*
X153890733Y-94935000D01*
X154060313Y-94681206D01*
X154136140Y-94300000D01*
X154060313Y-93918794D01*
X153844377Y-93595623D01*
X153521206Y-93379687D01*
X153236223Y-93323000D01*
X153151597Y-93323000D01*
X153267000Y-93044392D01*
X153267000Y-92675608D01*
X153125873Y-92334897D01*
X152865103Y-92074127D01*
X152524392Y-91933000D01*
X152155608Y-91933000D01*
X151814897Y-92074127D01*
X151554127Y-92334897D01*
X151413000Y-92675608D01*
X151413000Y-93044392D01*
X151528403Y-93323000D01*
X151443777Y-93323000D01*
X151158794Y-93379687D01*
X150835623Y-93595623D01*
X150795565Y-93655574D01*
X150695873Y-93414897D01*
X150435103Y-93154127D01*
X150094392Y-93013000D01*
X149725608Y-93013000D01*
X149384897Y-93154127D01*
X149124127Y-93414897D01*
X149098529Y-93476696D01*
X148962735Y-93446870D01*
X148279605Y-94130000D01*
X148962735Y-94813130D01*
X149188164Y-94763617D01*
X149248124Y-94589100D01*
X149384897Y-94725873D01*
X149725608Y-94867000D01*
X149914934Y-94867000D01*
X150556150Y-95508216D01*
X150543860Y-95570000D01*
X150619687Y-95951206D01*
X150789267Y-96205000D01*
X150619687Y-96458794D01*
X150543860Y-96840000D01*
X150619687Y-97221206D01*
X150789267Y-97475000D01*
X150619687Y-97728794D01*
X150543860Y-98110000D01*
X150619687Y-98491206D01*
X150789267Y-98745000D01*
X150619687Y-98998794D01*
X150543860Y-99380000D01*
X150619687Y-99761206D01*
X150789267Y-100015000D01*
X150619687Y-100268794D01*
X150543860Y-100650000D01*
X150619687Y-101031206D01*
X150789267Y-101285000D01*
X150619687Y-101538794D01*
X150543860Y-101920000D01*
X150619687Y-102301206D01*
X150664317Y-102368000D01*
X146164210Y-102368000D01*
X146100000Y-102355228D01*
X146035790Y-102368000D01*
X146035786Y-102368000D01*
X145845602Y-102405830D01*
X145785620Y-102445909D01*
X145684372Y-102513560D01*
X145684369Y-102513563D01*
X145629935Y-102549935D01*
X145593563Y-102604369D01*
X141874374Y-106323559D01*
X141819935Y-106359935D01*
X141675830Y-106575603D01*
X141638000Y-106765787D01*
X141638000Y-106765790D01*
X141625228Y-106830000D01*
X141638000Y-106894210D01*
X141638001Y-116719932D01*
X140749934Y-117608000D01*
X137480067Y-117608000D01*
X136879279Y-117007212D01*
X137079304Y-117047000D01*
X137340696Y-117047000D01*
X137727770Y-116970006D01*
X138166713Y-116676713D01*
X138460006Y-116237770D01*
X138562997Y-115720000D01*
X138460006Y-115202230D01*
X138166713Y-114763287D01*
X137727770Y-114469994D01*
X137340696Y-114393000D01*
X137079304Y-114393000D01*
X136692230Y-114469994D01*
X136253287Y-114763287D01*
X135959994Y-115202230D01*
X135940000Y-115302746D01*
X135920006Y-115202230D01*
X135626713Y-114763287D01*
X135187770Y-114469994D01*
X134800696Y-114393000D01*
X134539304Y-114393000D01*
X134152230Y-114469994D01*
X133713287Y-114763287D01*
X133419994Y-115202230D01*
X133400000Y-115302746D01*
X133380006Y-115202230D01*
X133086713Y-114763287D01*
X132647770Y-114469994D01*
X132260696Y-114393000D01*
X131999304Y-114393000D01*
X131612230Y-114469994D01*
X131173287Y-114763287D01*
X130879994Y-115202230D01*
X130860000Y-115302746D01*
X130840006Y-115202230D01*
X130546713Y-114763287D01*
X130107770Y-114469994D01*
X129720696Y-114393000D01*
X129459304Y-114393000D01*
X129072230Y-114469994D01*
X128633287Y-114763287D01*
X128352909Y-115182901D01*
X128202389Y-114864866D01*
X127787423Y-114488959D01*
X127399039Y-114328096D01*
X127177000Y-114450085D01*
X127177000Y-115593000D01*
X127197000Y-115593000D01*
X127197000Y-115847000D01*
X127177000Y-115847000D01*
X127177000Y-116989915D01*
X127399039Y-117111904D01*
X127787423Y-116951041D01*
X128202389Y-116575134D01*
X128352909Y-116257099D01*
X128633287Y-116676713D01*
X129072230Y-116970006D01*
X129459304Y-117047000D01*
X129720696Y-117047000D01*
X130107770Y-116970006D01*
X130546713Y-116676713D01*
X130840006Y-116237770D01*
X130860000Y-116137254D01*
X130879994Y-116237770D01*
X131173287Y-116676713D01*
X131612230Y-116970006D01*
X131999304Y-117047000D01*
X132260696Y-117047000D01*
X132647770Y-116970006D01*
X133086713Y-116676713D01*
X133380006Y-116237770D01*
X133400000Y-116137254D01*
X133419994Y-116237770D01*
X133713287Y-116676713D01*
X134152230Y-116970006D01*
X134539304Y-117047000D01*
X134800696Y-117047000D01*
X135029435Y-117001501D01*
X136703561Y-118675628D01*
X136739935Y-118730065D01*
X136955602Y-118874170D01*
X136974857Y-118878000D01*
X126050068Y-118878000D01*
X124179279Y-117007213D01*
X124379304Y-117047000D01*
X124640696Y-117047000D01*
X125027770Y-116970006D01*
X125466713Y-116676713D01*
X125747091Y-116257099D01*
X125897611Y-116575134D01*
X126312577Y-116951041D01*
X126700961Y-117111904D01*
X126923000Y-116989915D01*
X126923000Y-115847000D01*
X126903000Y-115847000D01*
X126903000Y-115593000D01*
X126923000Y-115593000D01*
X126923000Y-114450085D01*
X126700961Y-114328096D01*
X126312577Y-114488959D01*
X125897611Y-114864866D01*
X125747091Y-115182901D01*
X125466713Y-114763287D01*
X125027770Y-114469994D01*
X124640696Y-114393000D01*
X124379304Y-114393000D01*
X123992230Y-114469994D01*
X123553287Y-114763287D01*
X123259994Y-115202230D01*
X123240000Y-115302746D01*
X123220006Y-115202230D01*
X122926713Y-114763287D01*
X122487770Y-114469994D01*
X122100696Y-114393000D01*
X121839304Y-114393000D01*
X121452230Y-114469994D01*
X121013287Y-114763287D01*
X120767324Y-115131396D01*
X120767324Y-114920000D01*
X120726423Y-114714375D01*
X120609945Y-114540055D01*
X120435625Y-114423577D01*
X120230000Y-114382676D01*
X120022169Y-114382676D01*
X119900065Y-114199935D01*
X119845629Y-114163562D01*
X117542000Y-111859934D01*
X117542000Y-108100000D01*
X118077003Y-108100000D01*
X118179994Y-108617770D01*
X118473287Y-109056713D01*
X118912230Y-109350006D01*
X119299304Y-109427000D01*
X119560696Y-109427000D01*
X119947770Y-109350006D01*
X120386713Y-109056713D01*
X120680006Y-108617770D01*
X120700000Y-108517254D01*
X120719994Y-108617770D01*
X121013287Y-109056713D01*
X121452230Y-109350006D01*
X121839304Y-109427000D01*
X122100696Y-109427000D01*
X122487770Y-109350006D01*
X122926713Y-109056713D01*
X123220006Y-108617770D01*
X123240000Y-108517254D01*
X123259994Y-108617770D01*
X123553287Y-109056713D01*
X123992230Y-109350006D01*
X124379304Y-109427000D01*
X124640696Y-109427000D01*
X125027770Y-109350006D01*
X125466713Y-109056713D01*
X125760006Y-108617770D01*
X125780000Y-108517254D01*
X125799994Y-108617770D01*
X126093287Y-109056713D01*
X126532230Y-109350006D01*
X126919304Y-109427000D01*
X127180696Y-109427000D01*
X127567770Y-109350006D01*
X128006713Y-109056713D01*
X128300006Y-108617770D01*
X128320000Y-108517254D01*
X128339994Y-108617770D01*
X128633287Y-109056713D01*
X129072230Y-109350006D01*
X129459304Y-109427000D01*
X129720696Y-109427000D01*
X130107770Y-109350006D01*
X130546713Y-109056713D01*
X130840006Y-108617770D01*
X130860000Y-108517254D01*
X130879994Y-108617770D01*
X131173287Y-109056713D01*
X131612230Y-109350006D01*
X131999304Y-109427000D01*
X132260696Y-109427000D01*
X132647770Y-109350006D01*
X133086713Y-109056713D01*
X133380006Y-108617770D01*
X133400000Y-108517254D01*
X133419994Y-108617770D01*
X133713287Y-109056713D01*
X134152230Y-109350006D01*
X134539304Y-109427000D01*
X134800696Y-109427000D01*
X135187770Y-109350006D01*
X135626713Y-109056713D01*
X135920006Y-108617770D01*
X135940000Y-108517254D01*
X135959994Y-108617770D01*
X136253287Y-109056713D01*
X136692230Y-109350006D01*
X137079304Y-109427000D01*
X137340696Y-109427000D01*
X137727770Y-109350006D01*
X138166713Y-109056713D01*
X138460006Y-108617770D01*
X138562997Y-108100000D01*
X138460006Y-107582230D01*
X138166713Y-107143287D01*
X137727770Y-106849994D01*
X137340696Y-106773000D01*
X137079304Y-106773000D01*
X136692230Y-106849994D01*
X136253287Y-107143287D01*
X135959994Y-107582230D01*
X135940000Y-107682746D01*
X135920006Y-107582230D01*
X135626713Y-107143287D01*
X135187770Y-106849994D01*
X134800696Y-106773000D01*
X134539304Y-106773000D01*
X134152230Y-106849994D01*
X133713287Y-107143287D01*
X133419994Y-107582230D01*
X133400000Y-107682746D01*
X133380006Y-107582230D01*
X133086713Y-107143287D01*
X132647770Y-106849994D01*
X132260696Y-106773000D01*
X131999304Y-106773000D01*
X131612230Y-106849994D01*
X131173287Y-107143287D01*
X130879994Y-107582230D01*
X130860000Y-107682746D01*
X130840006Y-107582230D01*
X130546713Y-107143287D01*
X130107770Y-106849994D01*
X129720696Y-106773000D01*
X129459304Y-106773000D01*
X129072230Y-106849994D01*
X128633287Y-107143287D01*
X128339994Y-107582230D01*
X128320000Y-107682746D01*
X128300006Y-107582230D01*
X128006713Y-107143287D01*
X127567770Y-106849994D01*
X127180696Y-106773000D01*
X126919304Y-106773000D01*
X126532230Y-106849994D01*
X126093287Y-107143287D01*
X125799994Y-107582230D01*
X125780000Y-107682746D01*
X125760006Y-107582230D01*
X125466713Y-107143287D01*
X125027770Y-106849994D01*
X124640696Y-106773000D01*
X124379304Y-106773000D01*
X123992230Y-106849994D01*
X123553287Y-107143287D01*
X123259994Y-107582230D01*
X123240000Y-107682746D01*
X123220006Y-107582230D01*
X122926713Y-107143287D01*
X122487770Y-106849994D01*
X122100696Y-106773000D01*
X121839304Y-106773000D01*
X121452230Y-106849994D01*
X121013287Y-107143287D01*
X120719994Y-107582230D01*
X120700000Y-107682746D01*
X120680006Y-107582230D01*
X120386713Y-107143287D01*
X119947770Y-106849994D01*
X119560696Y-106773000D01*
X119299304Y-106773000D01*
X118912230Y-106849994D01*
X118473287Y-107143287D01*
X118179994Y-107582230D01*
X118077003Y-108100000D01*
X117542000Y-108100000D01*
X117542000Y-105015064D01*
X129570064Y-92987002D01*
X129633748Y-92987002D01*
X129475000Y-93145750D01*
X129475000Y-93736310D01*
X129571673Y-93969699D01*
X129750302Y-94148327D01*
X129983691Y-94245000D01*
X130574250Y-94245000D01*
X130733000Y-94086250D01*
X130733000Y-92987000D01*
X130987000Y-92987000D01*
X130987000Y-94086250D01*
X131145750Y-94245000D01*
X131736309Y-94245000D01*
X131969698Y-94148327D01*
X132148327Y-93969699D01*
X132245000Y-93736310D01*
X132245000Y-93145750D01*
X132086250Y-92987000D01*
X130987000Y-92987000D01*
X130733000Y-92987000D01*
X130713000Y-92987000D01*
X130713000Y-92733000D01*
X130733000Y-92733000D01*
X130733000Y-92713000D01*
X130987000Y-92713000D01*
X130987000Y-92733000D01*
X132086250Y-92733000D01*
X132143642Y-92675608D01*
X142633000Y-92675608D01*
X142633000Y-93044392D01*
X142658000Y-93104748D01*
X142658001Y-98965250D01*
X142633000Y-99025608D01*
X142633000Y-99394392D01*
X142774127Y-99735103D01*
X143034897Y-99995873D01*
X143375608Y-100137000D01*
X143744392Y-100137000D01*
X144085103Y-99995873D01*
X144345873Y-99735103D01*
X144487000Y-99394392D01*
X144487000Y-99025608D01*
X144462000Y-98965253D01*
X144462000Y-93530000D01*
X144962676Y-93530000D01*
X144962676Y-94730000D01*
X145003577Y-94935625D01*
X145120055Y-95109945D01*
X145294375Y-95226423D01*
X145500000Y-95267324D01*
X146700000Y-95267324D01*
X146905625Y-95226423D01*
X147079945Y-95109945D01*
X147158262Y-94992735D01*
X147416870Y-94992735D01*
X147466383Y-95218164D01*
X147931036Y-95377807D01*
X148421413Y-95347482D01*
X148733617Y-95218164D01*
X148783130Y-94992735D01*
X148100000Y-94309605D01*
X147416870Y-94992735D01*
X147158262Y-94992735D01*
X147196423Y-94935625D01*
X147221478Y-94809663D01*
X147237265Y-94813130D01*
X147920395Y-94130000D01*
X147237265Y-93446870D01*
X147221478Y-93450337D01*
X147196423Y-93324375D01*
X147158263Y-93267265D01*
X147416870Y-93267265D01*
X148100000Y-93950395D01*
X148783130Y-93267265D01*
X148733617Y-93041836D01*
X148268964Y-92882193D01*
X147778587Y-92912518D01*
X147466383Y-93041836D01*
X147416870Y-93267265D01*
X147158263Y-93267265D01*
X147079945Y-93150055D01*
X146905625Y-93033577D01*
X146700000Y-92992676D01*
X145500000Y-92992676D01*
X145294375Y-93033577D01*
X145120055Y-93150055D01*
X145003577Y-93324375D01*
X144962676Y-93530000D01*
X144462000Y-93530000D01*
X144462000Y-93104747D01*
X144487000Y-93044392D01*
X144487000Y-92675608D01*
X144345873Y-92334897D01*
X144085103Y-92074127D01*
X143744392Y-91933000D01*
X143375608Y-91933000D01*
X143034897Y-92074127D01*
X142774127Y-92334897D01*
X142633000Y-92675608D01*
X132143642Y-92675608D01*
X132245000Y-92574250D01*
X132245000Y-91983690D01*
X132204946Y-91886990D01*
X154653329Y-91886990D01*
X154648001Y-91913777D01*
X154648000Y-93706222D01*
X154704687Y-93991205D01*
X154920623Y-94314377D01*
X155243794Y-94530313D01*
X155625000Y-94606140D01*
X156006205Y-94530313D01*
X156260000Y-94360733D01*
X156513794Y-94530313D01*
X156895000Y-94606140D01*
X157276205Y-94530313D01*
X157530000Y-94360733D01*
X157783794Y-94530313D01*
X158165000Y-94606140D01*
X158546205Y-94530313D01*
X158800000Y-94360733D01*
X159053794Y-94530313D01*
X159435000Y-94606140D01*
X159816205Y-94530313D01*
X160070000Y-94360733D01*
X160323794Y-94530313D01*
X160705000Y-94606140D01*
X161086205Y-94530313D01*
X161340000Y-94360733D01*
X161593794Y-94530313D01*
X161975000Y-94606140D01*
X162356205Y-94530313D01*
X162610000Y-94360733D01*
X162863794Y-94530313D01*
X163245000Y-94606140D01*
X163626205Y-94530313D01*
X163880000Y-94360733D01*
X164133794Y-94530313D01*
X164515000Y-94606140D01*
X164896205Y-94530313D01*
X165150000Y-94360733D01*
X165403794Y-94530313D01*
X165785000Y-94606140D01*
X166166205Y-94530313D01*
X166420000Y-94360733D01*
X166673794Y-94530313D01*
X167055000Y-94606140D01*
X167436205Y-94530313D01*
X167759377Y-94314377D01*
X167768983Y-94300000D01*
X168543860Y-94300000D01*
X168619687Y-94681206D01*
X168789267Y-94935000D01*
X168619687Y-95188794D01*
X168543860Y-95570000D01*
X168619687Y-95951206D01*
X168789267Y-96205000D01*
X168619687Y-96458794D01*
X168543860Y-96840000D01*
X168619687Y-97221206D01*
X168789267Y-97475000D01*
X168619687Y-97728794D01*
X168543860Y-98110000D01*
X168619687Y-98491206D01*
X168789267Y-98745000D01*
X168619687Y-98998794D01*
X168543860Y-99380000D01*
X168619687Y-99761206D01*
X168789267Y-100015000D01*
X168619687Y-100268794D01*
X168543860Y-100650000D01*
X168619687Y-101031206D01*
X168789267Y-101285000D01*
X168619687Y-101538794D01*
X168543860Y-101920000D01*
X168619687Y-102301206D01*
X168789267Y-102555000D01*
X168619687Y-102808794D01*
X168543860Y-103190000D01*
X168619687Y-103571206D01*
X168789267Y-103825000D01*
X168619687Y-104078794D01*
X168543860Y-104460000D01*
X168619687Y-104841206D01*
X168789267Y-105095000D01*
X168619687Y-105348794D01*
X168543860Y-105730000D01*
X168619687Y-106111206D01*
X168789267Y-106365000D01*
X168619687Y-106618794D01*
X168543860Y-107000000D01*
X168619687Y-107381206D01*
X168789267Y-107635000D01*
X168619687Y-107888794D01*
X168543860Y-108270000D01*
X168619687Y-108651206D01*
X168789267Y-108905000D01*
X168619687Y-109158794D01*
X168543860Y-109540000D01*
X168619687Y-109921206D01*
X168789267Y-110175000D01*
X168619687Y-110428794D01*
X168543860Y-110810000D01*
X168619687Y-111191206D01*
X168835623Y-111514377D01*
X169158794Y-111730313D01*
X169443777Y-111787000D01*
X171236223Y-111787000D01*
X171521206Y-111730313D01*
X171844377Y-111514377D01*
X172060313Y-111191206D01*
X172136140Y-110810000D01*
X172060313Y-110428794D01*
X171890733Y-110175000D01*
X172060313Y-109921206D01*
X172136140Y-109540000D01*
X172060313Y-109158794D01*
X171890733Y-108905000D01*
X172060313Y-108651206D01*
X172136140Y-108270000D01*
X172060313Y-107888794D01*
X171890733Y-107635000D01*
X172060313Y-107381206D01*
X172136140Y-107000000D01*
X172060313Y-106618794D01*
X171890733Y-106365000D01*
X172060313Y-106111206D01*
X172136140Y-105730000D01*
X172060313Y-105348794D01*
X171890733Y-105095000D01*
X172060313Y-104841206D01*
X172136140Y-104460000D01*
X172060313Y-104078794D01*
X171890733Y-103825000D01*
X172060313Y-103571206D01*
X172136140Y-103190000D01*
X172060313Y-102808794D01*
X171890733Y-102555000D01*
X172060313Y-102301206D01*
X172136140Y-101920000D01*
X172060313Y-101538794D01*
X171890733Y-101285000D01*
X172060313Y-101031206D01*
X172136140Y-100650000D01*
X172060313Y-100268794D01*
X171890733Y-100015000D01*
X172060313Y-99761206D01*
X172136140Y-99380000D01*
X172060313Y-98998794D01*
X171890733Y-98745000D01*
X172060313Y-98491206D01*
X172136140Y-98110000D01*
X172060313Y-97728794D01*
X171890733Y-97475000D01*
X172060313Y-97221206D01*
X172136140Y-96840000D01*
X172060313Y-96458794D01*
X171890733Y-96205000D01*
X172060313Y-95951206D01*
X172136140Y-95570000D01*
X172060313Y-95188794D01*
X171890733Y-94935000D01*
X172060313Y-94681206D01*
X172136140Y-94300000D01*
X172060313Y-93918794D01*
X171844377Y-93595623D01*
X171521206Y-93379687D01*
X171236223Y-93323000D01*
X169443777Y-93323000D01*
X169158794Y-93379687D01*
X168835623Y-93595623D01*
X168619687Y-93918794D01*
X168543860Y-94300000D01*
X167768983Y-94300000D01*
X167975313Y-93991206D01*
X168032000Y-93706223D01*
X168032000Y-91913777D01*
X167975313Y-91628794D01*
X167759377Y-91305623D01*
X167436206Y-91089687D01*
X167055000Y-91013860D01*
X166673795Y-91089687D01*
X166420000Y-91259267D01*
X166166206Y-91089687D01*
X165785000Y-91013860D01*
X165403795Y-91089687D01*
X165150000Y-91259267D01*
X164896206Y-91089687D01*
X164515000Y-91013860D01*
X164133795Y-91089687D01*
X163880000Y-91259267D01*
X163626206Y-91089687D01*
X163245000Y-91013860D01*
X162863795Y-91089687D01*
X162610000Y-91259267D01*
X162356206Y-91089687D01*
X161975000Y-91013860D01*
X161593795Y-91089687D01*
X161340000Y-91259267D01*
X161086206Y-91089687D01*
X160705000Y-91013860D01*
X160323795Y-91089687D01*
X160070000Y-91259267D01*
X159816206Y-91089687D01*
X159435000Y-91013860D01*
X159053795Y-91089687D01*
X158800000Y-91259267D01*
X158546206Y-91089687D01*
X158165000Y-91013860D01*
X157783795Y-91089687D01*
X157530000Y-91259267D01*
X157276206Y-91089687D01*
X156895000Y-91013860D01*
X156688109Y-91055014D01*
X156452459Y-90819364D01*
X156416084Y-90764925D01*
X156200417Y-90620820D01*
X156010233Y-90582990D01*
X156010229Y-90582990D01*
X155946019Y-90570218D01*
X155881809Y-90582990D01*
X130464218Y-90582990D01*
X130400008Y-90570218D01*
X130335798Y-90582990D01*
X130335794Y-90582990D01*
X130145610Y-90620820D01*
X130085628Y-90660899D01*
X129984380Y-90728550D01*
X129984377Y-90728553D01*
X129929943Y-90764925D01*
X129893571Y-90819359D01*
X116474375Y-104238557D01*
X116419935Y-104274933D01*
X116275830Y-104490601D01*
X116238000Y-104680785D01*
X116238000Y-104680788D01*
X116225228Y-104744998D01*
X105951766Y-104744998D01*
X106015044Y-94852532D01*
X113377073Y-94852532D01*
X113475736Y-95119387D01*
X114085461Y-95345908D01*
X114735460Y-95321856D01*
X115224264Y-95119387D01*
X115322927Y-94852532D01*
X114350000Y-93879605D01*
X113377073Y-94852532D01*
X106015044Y-94852532D01*
X106024109Y-93435461D01*
X112704092Y-93435461D01*
X112728144Y-94085460D01*
X112930613Y-94574264D01*
X113197468Y-94672927D01*
X114170395Y-93700000D01*
X114529605Y-93700000D01*
X115502532Y-94672927D01*
X115769387Y-94574264D01*
X115995908Y-93964539D01*
X115974880Y-93396261D01*
X118823000Y-93396261D01*
X118823000Y-94003739D01*
X119055472Y-94564976D01*
X119485024Y-94994528D01*
X120046261Y-95227000D01*
X120653739Y-95227000D01*
X121214976Y-94994528D01*
X121644528Y-94564976D01*
X121877000Y-94003739D01*
X121877000Y-93396261D01*
X121654874Y-92860000D01*
X124477983Y-92860000D01*
X124577093Y-93358260D01*
X124859335Y-93780665D01*
X125281740Y-94062907D01*
X125654231Y-94137000D01*
X125905769Y-94137000D01*
X126278260Y-94062907D01*
X126700665Y-93780665D01*
X126982907Y-93358260D01*
X127082017Y-92860000D01*
X126982907Y-92361740D01*
X126700665Y-91939335D01*
X126278260Y-91657093D01*
X125905769Y-91583000D01*
X125654231Y-91583000D01*
X125281740Y-91657093D01*
X124859335Y-91939335D01*
X124577093Y-92361740D01*
X124477983Y-92860000D01*
X121654874Y-92860000D01*
X121644528Y-92835024D01*
X121214976Y-92405472D01*
X120653739Y-92173000D01*
X120046261Y-92173000D01*
X119485024Y-92405472D01*
X119055472Y-92835024D01*
X118823000Y-93396261D01*
X115974880Y-93396261D01*
X115971856Y-93314540D01*
X115769387Y-92825736D01*
X115502532Y-92727073D01*
X114529605Y-93700000D01*
X114170395Y-93700000D01*
X113197468Y-92727073D01*
X112930613Y-92825736D01*
X112704092Y-93435461D01*
X106024109Y-93435461D01*
X106029789Y-92547468D01*
X113377073Y-92547468D01*
X114350000Y-93520395D01*
X115322927Y-92547468D01*
X115224264Y-92280613D01*
X114614539Y-92054092D01*
X113964540Y-92078144D01*
X113475736Y-92280613D01*
X113377073Y-92547468D01*
X106029789Y-92547468D01*
X106056958Y-88300000D01*
X124492676Y-88300000D01*
X124492676Y-89800000D01*
X124533577Y-90005625D01*
X124650055Y-90179945D01*
X124824375Y-90296423D01*
X125030000Y-90337324D01*
X126530000Y-90337324D01*
X126735625Y-90296423D01*
X126909945Y-90179945D01*
X127026423Y-90005625D01*
X127067324Y-89800000D01*
X127067324Y-89050000D01*
X129557983Y-89050000D01*
X129657093Y-89548260D01*
X129939335Y-89970665D01*
X130361740Y-90252907D01*
X130734231Y-90327000D01*
X130985769Y-90327000D01*
X131358260Y-90252907D01*
X131780665Y-89970665D01*
X132062907Y-89548260D01*
X132162017Y-89050000D01*
X132062907Y-88551740D01*
X131780665Y-88129335D01*
X131358260Y-87847093D01*
X130985769Y-87773000D01*
X130734231Y-87773000D01*
X130361740Y-87847093D01*
X129939335Y-88129335D01*
X129657093Y-88551740D01*
X129557983Y-89050000D01*
X127067324Y-89050000D01*
X127067324Y-88300000D01*
X127026423Y-88094375D01*
X126909945Y-87920055D01*
X126735625Y-87803577D01*
X126530000Y-87762676D01*
X125030000Y-87762676D01*
X124824375Y-87803577D01*
X124650055Y-87920055D01*
X124533577Y-88094375D01*
X124492676Y-88300000D01*
X106056958Y-88300000D01*
X106074705Y-85525750D01*
X107785000Y-85525750D01*
X107785000Y-86216310D01*
X107881673Y-86449699D01*
X108060302Y-86628327D01*
X108293691Y-86725000D01*
X108984250Y-86725000D01*
X109143000Y-86566250D01*
X109143000Y-85367000D01*
X109397000Y-85367000D01*
X109397000Y-86566250D01*
X109555750Y-86725000D01*
X110246309Y-86725000D01*
X110479698Y-86628327D01*
X110658327Y-86449699D01*
X110755000Y-86216310D01*
X110755000Y-85525750D01*
X110596250Y-85367000D01*
X109397000Y-85367000D01*
X109143000Y-85367000D01*
X107943750Y-85367000D01*
X107785000Y-85525750D01*
X106074705Y-85525750D01*
X106076532Y-85240000D01*
X124477983Y-85240000D01*
X124577093Y-85738260D01*
X124859335Y-86160665D01*
X125281740Y-86442907D01*
X125654231Y-86517000D01*
X125905769Y-86517000D01*
X126278260Y-86442907D01*
X126700665Y-86160665D01*
X126982907Y-85738260D01*
X127025177Y-85525750D01*
X129475000Y-85525750D01*
X129475000Y-86116310D01*
X129571673Y-86349699D01*
X129750302Y-86528327D01*
X129983691Y-86625000D01*
X130574250Y-86625000D01*
X130733000Y-86466250D01*
X130733000Y-85367000D01*
X130987000Y-85367000D01*
X130987000Y-86466250D01*
X131145750Y-86625000D01*
X131736309Y-86625000D01*
X131969698Y-86528327D01*
X132148327Y-86349699D01*
X132245000Y-86116310D01*
X132245000Y-85525750D01*
X132086250Y-85367000D01*
X130987000Y-85367000D01*
X130733000Y-85367000D01*
X129633750Y-85367000D01*
X129475000Y-85525750D01*
X127025177Y-85525750D01*
X127082017Y-85240000D01*
X126982907Y-84741740D01*
X126730303Y-84363690D01*
X129475000Y-84363690D01*
X129475000Y-84954250D01*
X129633750Y-85113000D01*
X130733000Y-85113000D01*
X130733000Y-84013750D01*
X130987000Y-84013750D01*
X130987000Y-85113000D01*
X132086250Y-85113000D01*
X132245000Y-84954250D01*
X132245000Y-84363690D01*
X132148327Y-84130301D01*
X131969698Y-83951673D01*
X131736309Y-83855000D01*
X131145750Y-83855000D01*
X130987000Y-84013750D01*
X130733000Y-84013750D01*
X130574250Y-83855000D01*
X129983691Y-83855000D01*
X129750302Y-83951673D01*
X129571673Y-84130301D01*
X129475000Y-84363690D01*
X126730303Y-84363690D01*
X126700665Y-84319335D01*
X126278260Y-84037093D01*
X125905769Y-83963000D01*
X125654231Y-83963000D01*
X125281740Y-84037093D01*
X124859335Y-84319335D01*
X124577093Y-84741740D01*
X124477983Y-85240000D01*
X106076532Y-85240000D01*
X106082777Y-84263690D01*
X107785000Y-84263690D01*
X107785000Y-84954250D01*
X107943750Y-85113000D01*
X109143000Y-85113000D01*
X109143000Y-85093000D01*
X109397000Y-85093000D01*
X109397000Y-85113000D01*
X110596250Y-85113000D01*
X110755000Y-84954250D01*
X110755000Y-84263690D01*
X110658327Y-84030301D01*
X110479698Y-83851673D01*
X110246309Y-83755000D01*
X110169616Y-83755000D01*
X110262762Y-83692762D01*
X110567106Y-83237279D01*
X110673977Y-82700000D01*
X110613560Y-82396261D01*
X112823000Y-82396261D01*
X112823000Y-83003739D01*
X113055472Y-83564976D01*
X113485024Y-83994528D01*
X114046261Y-84227000D01*
X114653739Y-84227000D01*
X115214976Y-83994528D01*
X115644528Y-83564976D01*
X115877000Y-83003739D01*
X115877000Y-82396261D01*
X118823000Y-82396261D01*
X118823000Y-83003739D01*
X119055472Y-83564976D01*
X119485024Y-83994528D01*
X120046261Y-84227000D01*
X120653739Y-84227000D01*
X121214976Y-83994528D01*
X121644528Y-83564976D01*
X121877000Y-83003739D01*
X121877000Y-82396261D01*
X121644528Y-81835024D01*
X121214976Y-81405472D01*
X120653739Y-81173000D01*
X120046261Y-81173000D01*
X119485024Y-81405472D01*
X119055472Y-81835024D01*
X118823000Y-82396261D01*
X115877000Y-82396261D01*
X115644528Y-81835024D01*
X115214976Y-81405472D01*
X114653739Y-81173000D01*
X114046261Y-81173000D01*
X113485024Y-81405472D01*
X113055472Y-81835024D01*
X112823000Y-82396261D01*
X110613560Y-82396261D01*
X110567106Y-82162721D01*
X110262762Y-81707238D01*
X109807279Y-81402894D01*
X109405623Y-81323000D01*
X109134377Y-81323000D01*
X108732721Y-81402894D01*
X108277238Y-81707238D01*
X107972894Y-82162721D01*
X107866023Y-82700000D01*
X107972894Y-83237279D01*
X108277238Y-83692762D01*
X108370384Y-83755000D01*
X108293691Y-83755000D01*
X108060302Y-83851673D01*
X107881673Y-84030301D01*
X107785000Y-84263690D01*
X106082777Y-84263690D01*
X106105701Y-80680000D01*
X124492676Y-80680000D01*
X124492676Y-82180000D01*
X124533577Y-82385625D01*
X124650055Y-82559945D01*
X124824375Y-82676423D01*
X125030000Y-82717324D01*
X126530000Y-82717324D01*
X126735625Y-82676423D01*
X126909945Y-82559945D01*
X127026423Y-82385625D01*
X127067324Y-82180000D01*
X127067324Y-81430000D01*
X129557983Y-81430000D01*
X129657093Y-81928260D01*
X129939335Y-82350665D01*
X130361740Y-82632907D01*
X130734231Y-82707000D01*
X130985769Y-82707000D01*
X131358260Y-82632907D01*
X131780665Y-82350665D01*
X132062907Y-81928260D01*
X132162017Y-81430000D01*
X132062907Y-80931740D01*
X131994927Y-80830000D01*
X137342676Y-80830000D01*
X137342676Y-82030000D01*
X137383577Y-82235625D01*
X137500055Y-82409945D01*
X137674375Y-82526423D01*
X137880000Y-82567324D01*
X139080000Y-82567324D01*
X139285625Y-82526423D01*
X139459945Y-82409945D01*
X139576423Y-82235625D01*
X139617324Y-82030000D01*
X139617324Y-81715750D01*
X149660000Y-81715750D01*
X149660000Y-81981309D01*
X149756673Y-82214698D01*
X149935301Y-82393327D01*
X150168690Y-82490000D01*
X150434250Y-82490000D01*
X150593000Y-82331250D01*
X150593000Y-81557000D01*
X149818750Y-81557000D01*
X149660000Y-81715750D01*
X139617324Y-81715750D01*
X139617324Y-81430000D01*
X150749350Y-81430000D01*
X150823236Y-81801452D01*
X150847000Y-81837017D01*
X150847000Y-82331250D01*
X151005750Y-82490000D01*
X151271310Y-82490000D01*
X151504699Y-82393327D01*
X151534311Y-82363714D01*
X151626240Y-82382000D01*
X151813760Y-82382000D01*
X152068000Y-82331429D01*
X152068001Y-88121023D01*
X151934127Y-88254897D01*
X151793000Y-88595608D01*
X151793000Y-88964392D01*
X151934127Y-89305103D01*
X152194897Y-89565873D01*
X152535608Y-89707000D01*
X152904392Y-89707000D01*
X153245103Y-89565873D01*
X153505873Y-89305103D01*
X153647000Y-88964392D01*
X153647000Y-88595608D01*
X153505873Y-88254897D01*
X153372000Y-88121024D01*
X153372000Y-82331429D01*
X153626240Y-82382000D01*
X153813760Y-82382000D01*
X154091452Y-82326764D01*
X154406353Y-82116353D01*
X154616764Y-81801452D01*
X154690650Y-81430000D01*
X154616764Y-81058548D01*
X154406353Y-80743647D01*
X154091452Y-80533236D01*
X153813760Y-80478000D01*
X153626240Y-80478000D01*
X153348548Y-80533236D01*
X153220000Y-80619129D01*
X153091452Y-80533236D01*
X152813760Y-80478000D01*
X152626240Y-80478000D01*
X152348548Y-80533236D01*
X152220000Y-80619129D01*
X152091452Y-80533236D01*
X151813760Y-80478000D01*
X151626240Y-80478000D01*
X151534311Y-80496286D01*
X151504699Y-80466673D01*
X151271310Y-80370000D01*
X151005750Y-80370000D01*
X150847000Y-80528750D01*
X150847000Y-81022983D01*
X150823236Y-81058548D01*
X150749350Y-81430000D01*
X139617324Y-81430000D01*
X139617324Y-80878691D01*
X149660000Y-80878691D01*
X149660000Y-81144250D01*
X149818750Y-81303000D01*
X150593000Y-81303000D01*
X150593000Y-80528750D01*
X150434250Y-80370000D01*
X150168690Y-80370000D01*
X149935301Y-80466673D01*
X149756673Y-80645302D01*
X149660000Y-80878691D01*
X139617324Y-80878691D01*
X139617324Y-80830000D01*
X139576423Y-80624375D01*
X139459945Y-80450055D01*
X139285625Y-80333577D01*
X139159663Y-80308522D01*
X139163130Y-80292735D01*
X138480000Y-79609605D01*
X137796870Y-80292735D01*
X137800337Y-80308522D01*
X137674375Y-80333577D01*
X137500055Y-80450055D01*
X137383577Y-80624375D01*
X137342676Y-80830000D01*
X131994927Y-80830000D01*
X131780665Y-80509335D01*
X131358260Y-80227093D01*
X130985769Y-80153000D01*
X130734231Y-80153000D01*
X130361740Y-80227093D01*
X129939335Y-80509335D01*
X129657093Y-80931740D01*
X129557983Y-81430000D01*
X127067324Y-81430000D01*
X127067324Y-80680000D01*
X127026423Y-80474375D01*
X126909945Y-80300055D01*
X126735625Y-80183577D01*
X126530000Y-80142676D01*
X125030000Y-80142676D01*
X124824375Y-80183577D01*
X124650055Y-80300055D01*
X124533577Y-80474375D01*
X124492676Y-80680000D01*
X106105701Y-80680000D01*
X106114777Y-79261036D01*
X137232193Y-79261036D01*
X137262518Y-79751413D01*
X137391836Y-80063617D01*
X137617265Y-80113130D01*
X138300395Y-79430000D01*
X138659605Y-79430000D01*
X139342735Y-80113130D01*
X139568164Y-80063617D01*
X139727807Y-79598964D01*
X139697482Y-79108587D01*
X139568164Y-78796383D01*
X139342735Y-78746870D01*
X138659605Y-79430000D01*
X138300395Y-79430000D01*
X137617265Y-78746870D01*
X137391836Y-78796383D01*
X137232193Y-79261036D01*
X106114777Y-79261036D01*
X106119215Y-78567265D01*
X137796870Y-78567265D01*
X138480000Y-79250395D01*
X139163130Y-78567265D01*
X139113617Y-78341836D01*
X138648964Y-78182193D01*
X138158587Y-78212518D01*
X137846383Y-78341836D01*
X137796870Y-78567265D01*
X106119215Y-78567265D01*
X106126190Y-77477000D01*
X174123000Y-77477000D01*
X174123000Y-124921510D01*
G04 #@! TD*
M02*
